<svg version="1.1" xmlns="http://www.w3.org/2000/svg" viewBox="0 0 714 112.5" width="1428" height="225">
  <!-- svg-source:excalidraw -->
  
  <defs>
    <style>
      @font-face {
        font-family: "Virgil";
        src: url("https://excalidraw.com/Virgil.woff2");
      }
      @font-face {
        font-family: "Cascadia";
        src: url("https://excalidraw.com/Cascadia.woff2");
      }
    </style>
  </defs>
  <rect x="0" y="0" width="714" height="112.5" fill="#ffffff"></rect><g><g transform="translate(9.999999999999943 21.75) rotate(0 347.00000000000006 1)"><path d="M0 0 C115.66666666666667 0.3333333333333333, 578.3333333333334 1.6666666666666667, 694 2 M0 0 C115.66666666666667 0.3333333333333333, 578.3333333333334 1.6666666666666667, 694 2" stroke="#000000" stroke-width="1" fill="none"></path></g></g><g transform="translate(255 41.25) rotate(0 22 10.5)"><text x="0" y="16" font-family="Helvetica, Segoe UI Emoji" font-size="20px" fill="#000000" text-anchor="start" style="white-space: pre;" direction="ltr">Build</text></g><g transform="translate(82 10) rotate(0 12 11)"><path d="M12 0 C14.442592916808849 -0.14044148123847902, 17.74383581021406 1.0585327847472812, 19.713451316238473 2.573511125691242 C21.683066822262887 4.088489466635203, 23.371217447950695 6.768788566612306, 23.817693036146494 9.089870045663766 C24.264168624342293 11.410951524715225, 23.677880064786343 14.458875202836461, 22.392304845413264 16.5 C21.106729626040185 18.541124797163537, 18.52033281412824 20.530515690537495, 16.104241719908025 21.336618828644994 C13.68815062568781 22.142721966752493, 10.31184937431219 22.142721966752493, 7.895758280091975 21.336618828644994 C5.47966718587176 20.530515690537495, 2.8932703739598145 18.541124797163537, 1.607695154586736 16.5 C0.32211993521365745 14.458875202836461, -0.26416862434229404 11.410951524715225, 0.1823069638535042 9.089870045663766 C0.6287825520493024 6.768788566612306, 2.31693317773711 4.088489466635205, 4.286548683761525 2.573511125691244 C6.256164189785941 1.058532784747283, 10.714424780626919 0.39225185428187387, 11.999999999999998 0 C13.285575219373078 -0.39225185428187387, 12 0.036666666666667375, 12 0.22000000000000064 M12 0 C14.442592916808849 -0.14044148123847902, 17.74383581021406 1.0585327847472812, 19.713451316238473 2.573511125691242 C21.683066822262887 4.088489466635203, 23.371217447950695 6.768788566612306, 23.817693036146494 9.089870045663766 C24.264168624342293 11.410951524715225, 23.677880064786343 14.458875202836461, 22.392304845413264 16.5 C21.106729626040185 18.541124797163537, 18.52033281412824 20.530515690537495, 16.104241719908025 21.336618828644994 C13.68815062568781 22.142721966752493, 10.31184937431219 22.142721966752493, 7.895758280091975 21.336618828644994 C5.47966718587176 20.530515690537495, 2.8932703739598145 18.541124797163537, 1.607695154586736 16.5 C0.32211993521365745 14.458875202836461, -0.26416862434229404 11.410951524715225, 0.1823069638535042 9.089870045663766 C0.6287825520493024 6.768788566612306, 2.31693317773711 4.088489466635205, 4.286548683761525 2.573511125691244 C6.256164189785941 1.058532784747283, 10.714424780626919 0.39225185428187387, 11.999999999999998 0 C13.285575219373078 -0.39225185428187387, 12 0.036666666666667375, 12 0.22000000000000064" stroke="none" stroke-width="0" fill="#82c91e"></path><path d="M12 0 C14.442592916808849 -0.14044148123847902, 17.74383581021406 1.0585327847472812, 19.713451316238473 2.573511125691242 C21.683066822262887 4.088489466635203, 23.371217447950695 6.768788566612306, 23.817693036146494 9.089870045663766 C24.264168624342293 11.410951524715225, 23.677880064786343 14.458875202836461, 22.392304845413264 16.5 C21.106729626040185 18.541124797163537, 18.52033281412824 20.530515690537495, 16.104241719908025 21.336618828644994 C13.68815062568781 22.142721966752493, 10.31184937431219 22.142721966752493, 7.895758280091975 21.336618828644994 C5.47966718587176 20.530515690537495, 2.8932703739598145 18.541124797163537, 1.607695154586736 16.5 C0.32211993521365745 14.458875202836461, -0.26416862434229404 11.410951524715225, 0.1823069638535042 9.089870045663766 C0.6287825520493024 6.768788566612306, 2.31693317773711 4.088489466635205, 4.286548683761525 2.573511125691244 C6.256164189785941 1.058532784747283, 10.714424780626919 0.39225185428187387, 11.999999999999998 0 C13.285575219373078 -0.39225185428187387, 12 0.036666666666667375, 12 0.22000000000000064 M12 0 C14.442592916808849 -0.14044148123847902, 17.74383581021406 1.0585327847472812, 19.713451316238473 2.573511125691242 C21.683066822262887 4.088489466635203, 23.371217447950695 6.768788566612306, 23.817693036146494 9.089870045663766 C24.264168624342293 11.410951524715225, 23.677880064786343 14.458875202836461, 22.392304845413264 16.5 C21.106729626040185 18.541124797163537, 18.52033281412824 20.530515690537495, 16.104241719908025 21.336618828644994 C13.68815062568781 22.142721966752493, 10.31184937431219 22.142721966752493, 7.895758280091975 21.336618828644994 C5.47966718587176 20.530515690537495, 2.8932703739598145 18.541124797163537, 1.607695154586736 16.5 C0.32211993521365745 14.458875202836461, -0.26416862434229404 11.410951524715225, 0.1823069638535042 9.089870045663766 C0.6287825520493024 6.768788566612306, 2.31693317773711 4.088489466635205, 4.286548683761525 2.573511125691244 C6.256164189785941 1.058532784747283, 10.714424780626919 0.39225185428187387, 11.999999999999998 0 C13.285575219373078 -0.39225185428187387, 12 0.036666666666667375, 12 0.22000000000000064" stroke="#000000" stroke-width="1" fill="none"></path></g><g transform="translate(73 40.5) rotate(0 37 31)"><text x="0" y="15.666666666666668" font-family="Helvetica, Segoe UI Emoji" font-size="20px" fill="#000000" text-anchor="start" style="white-space: pre;" direction="ltr">Analysis</text><text x="0" y="36.333333333333336" font-family="Helvetica, Segoe UI Emoji" font-size="20px" fill="#000000" text-anchor="start" style="white-space: pre;" direction="ltr">and</text><text x="0" y="57" font-family="Helvetica, Segoe UI Emoji" font-size="20px" fill="#000000" text-anchor="start" style="white-space: pre;" direction="ltr">Design</text></g><g transform="translate(264 10.75) rotate(0 12 11)"><path d="M12 0 C14.442592916808849 -0.14044148123847902, 17.74383581021406 1.0585327847472812, 19.713451316238473 2.573511125691242 C21.683066822262887 4.088489466635203, 23.371217447950695 6.768788566612306, 23.817693036146494 9.089870045663766 C24.264168624342293 11.410951524715225, 23.677880064786343 14.458875202836461, 22.392304845413264 16.5 C21.106729626040185 18.541124797163537, 18.52033281412824 20.530515690537495, 16.104241719908025 21.336618828644994 C13.68815062568781 22.142721966752493, 10.31184937431219 22.142721966752493, 7.895758280091975 21.336618828644994 C5.47966718587176 20.530515690537495, 2.8932703739598145 18.541124797163537, 1.607695154586736 16.5 C0.32211993521365745 14.458875202836461, -0.26416862434229404 11.410951524715225, 0.1823069638535042 9.089870045663766 C0.6287825520493024 6.768788566612306, 2.31693317773711 4.088489466635205, 4.286548683761525 2.573511125691244 C6.256164189785941 1.058532784747283, 10.714424780626919 0.39225185428187387, 11.999999999999998 0 C13.285575219373078 -0.39225185428187387, 12 0.036666666666667375, 12 0.22000000000000064 M12 0 C14.442592916808849 -0.14044148123847902, 17.74383581021406 1.0585327847472812, 19.713451316238473 2.573511125691242 C21.683066822262887 4.088489466635203, 23.371217447950695 6.768788566612306, 23.817693036146494 9.089870045663766 C24.264168624342293 11.410951524715225, 23.677880064786343 14.458875202836461, 22.392304845413264 16.5 C21.106729626040185 18.541124797163537, 18.52033281412824 20.530515690537495, 16.104241719908025 21.336618828644994 C13.68815062568781 22.142721966752493, 10.31184937431219 22.142721966752493, 7.895758280091975 21.336618828644994 C5.47966718587176 20.530515690537495, 2.8932703739598145 18.541124797163537, 1.607695154586736 16.5 C0.32211993521365745 14.458875202836461, -0.26416862434229404 11.410951524715225, 0.1823069638535042 9.089870045663766 C0.6287825520493024 6.768788566612306, 2.31693317773711 4.088489466635205, 4.286548683761525 2.573511125691244 C6.256164189785941 1.058532784747283, 10.714424780626919 0.39225185428187387, 11.999999999999998 0 C13.285575219373078 -0.39225185428187387, 12 0.036666666666667375, 12 0.22000000000000064" stroke="none" stroke-width="0" fill="#82c91e"></path><path d="M12 0 C14.442592916808849 -0.14044148123847902, 17.74383581021406 1.0585327847472812, 19.713451316238473 2.573511125691242 C21.683066822262887 4.088489466635203, 23.371217447950695 6.768788566612306, 23.817693036146494 9.089870045663766 C24.264168624342293 11.410951524715225, 23.677880064786343 14.458875202836461, 22.392304845413264 16.5 C21.106729626040185 18.541124797163537, 18.52033281412824 20.530515690537495, 16.104241719908025 21.336618828644994 C13.68815062568781 22.142721966752493, 10.31184937431219 22.142721966752493, 7.895758280091975 21.336618828644994 C5.47966718587176 20.530515690537495, 2.8932703739598145 18.541124797163537, 1.607695154586736 16.5 C0.32211993521365745 14.458875202836461, -0.26416862434229404 11.410951524715225, 0.1823069638535042 9.089870045663766 C0.6287825520493024 6.768788566612306, 2.31693317773711 4.088489466635205, 4.286548683761525 2.573511125691244 C6.256164189785941 1.058532784747283, 10.714424780626919 0.39225185428187387, 11.999999999999998 0 C13.285575219373078 -0.39225185428187387, 12 0.036666666666667375, 12 0.22000000000000064 M12 0 C14.442592916808849 -0.14044148123847902, 17.74383581021406 1.0585327847472812, 19.713451316238473 2.573511125691242 C21.683066822262887 4.088489466635203, 23.371217447950695 6.768788566612306, 23.817693036146494 9.089870045663766 C24.264168624342293 11.410951524715225, 23.677880064786343 14.458875202836461, 22.392304845413264 16.5 C21.106729626040185 18.541124797163537, 18.52033281412824 20.530515690537495, 16.104241719908025 21.336618828644994 C13.68815062568781 22.142721966752493, 10.31184937431219 22.142721966752493, 7.895758280091975 21.336618828644994 C5.47966718587176 20.530515690537495, 2.8932703739598145 18.541124797163537, 1.607695154586736 16.5 C0.32211993521365745 14.458875202836461, -0.26416862434229404 11.410951524715225, 0.1823069638535042 9.089870045663766 C0.6287825520493024 6.768788566612306, 2.31693317773711 4.088489466635205, 4.286548683761525 2.573511125691244 C6.256164189785941 1.058532784747283, 10.714424780626919 0.39225185428187387, 11.999999999999998 0 C13.285575219373078 -0.39225185428187387, 12 0.036666666666667375, 12 0.22000000000000064" stroke="#000000" stroke-width="1" fill="none"></path></g><g transform="translate(438 10.75) rotate(0 12 11)"><path d="M12 0 C14.442592916808849 -0.14044148123847902, 17.74383581021406 1.0585327847472812, 19.713451316238473 2.573511125691242 C21.683066822262887 4.088489466635203, 23.371217447950695 6.768788566612306, 23.817693036146494 9.089870045663766 C24.264168624342293 11.410951524715225, 23.677880064786343 14.458875202836461, 22.392304845413264 16.5 C21.106729626040185 18.541124797163537, 18.52033281412824 20.530515690537495, 16.104241719908025 21.336618828644994 C13.68815062568781 22.142721966752493, 10.31184937431219 22.142721966752493, 7.895758280091975 21.336618828644994 C5.47966718587176 20.530515690537495, 2.8932703739598145 18.541124797163537, 1.607695154586736 16.5 C0.32211993521365745 14.458875202836461, -0.26416862434229404 11.410951524715225, 0.1823069638535042 9.089870045663766 C0.6287825520493024 6.768788566612306, 2.31693317773711 4.088489466635205, 4.286548683761525 2.573511125691244 C6.256164189785941 1.058532784747283, 10.714424780626919 0.39225185428187387, 11.999999999999998 0 C13.285575219373078 -0.39225185428187387, 12 0.036666666666667375, 12 0.22000000000000064 M12 0 C14.442592916808849 -0.14044148123847902, 17.74383581021406 1.0585327847472812, 19.713451316238473 2.573511125691242 C21.683066822262887 4.088489466635203, 23.371217447950695 6.768788566612306, 23.817693036146494 9.089870045663766 C24.264168624342293 11.410951524715225, 23.677880064786343 14.458875202836461, 22.392304845413264 16.5 C21.106729626040185 18.541124797163537, 18.52033281412824 20.530515690537495, 16.104241719908025 21.336618828644994 C13.68815062568781 22.142721966752493, 10.31184937431219 22.142721966752493, 7.895758280091975 21.336618828644994 C5.47966718587176 20.530515690537495, 2.8932703739598145 18.541124797163537, 1.607695154586736 16.5 C0.32211993521365745 14.458875202836461, -0.26416862434229404 11.410951524715225, 0.1823069638535042 9.089870045663766 C0.6287825520493024 6.768788566612306, 2.31693317773711 4.088489466635205, 4.286548683761525 2.573511125691244 C6.256164189785941 1.058532784747283, 10.714424780626919 0.39225185428187387, 11.999999999999998 0 C13.285575219373078 -0.39225185428187387, 12 0.036666666666667375, 12 0.22000000000000064" stroke="none" stroke-width="0" fill="#82c91e"></path><path d="M12 0 C14.442592916808849 -0.14044148123847902, 17.74383581021406 1.0585327847472812, 19.713451316238473 2.573511125691242 C21.683066822262887 4.088489466635203, 23.371217447950695 6.768788566612306, 23.817693036146494 9.089870045663766 C24.264168624342293 11.410951524715225, 23.677880064786343 14.458875202836461, 22.392304845413264 16.5 C21.106729626040185 18.541124797163537, 18.52033281412824 20.530515690537495, 16.104241719908025 21.336618828644994 C13.68815062568781 22.142721966752493, 10.31184937431219 22.142721966752493, 7.895758280091975 21.336618828644994 C5.47966718587176 20.530515690537495, 2.8932703739598145 18.541124797163537, 1.607695154586736 16.5 C0.32211993521365745 14.458875202836461, -0.26416862434229404 11.410951524715225, 0.1823069638535042 9.089870045663766 C0.6287825520493024 6.768788566612306, 2.31693317773711 4.088489466635205, 4.286548683761525 2.573511125691244 C6.256164189785941 1.058532784747283, 10.714424780626919 0.39225185428187387, 11.999999999999998 0 C13.285575219373078 -0.39225185428187387, 12 0.036666666666667375, 12 0.22000000000000064 M12 0 C14.442592916808849 -0.14044148123847902, 17.74383581021406 1.0585327847472812, 19.713451316238473 2.573511125691242 C21.683066822262887 4.088489466635203, 23.371217447950695 6.768788566612306, 23.817693036146494 9.089870045663766 C24.264168624342293 11.410951524715225, 23.677880064786343 14.458875202836461, 22.392304845413264 16.5 C21.106729626040185 18.541124797163537, 18.52033281412824 20.530515690537495, 16.104241719908025 21.336618828644994 C13.68815062568781 22.142721966752493, 10.31184937431219 22.142721966752493, 7.895758280091975 21.336618828644994 C5.47966718587176 20.530515690537495, 2.8932703739598145 18.541124797163537, 1.607695154586736 16.5 C0.32211993521365745 14.458875202836461, -0.26416862434229404 11.410951524715225, 0.1823069638535042 9.089870045663766 C0.6287825520493024 6.768788566612306, 2.31693317773711 4.088489466635205, 4.286548683761525 2.573511125691244 C6.256164189785941 1.058532784747283, 10.714424780626919 0.39225185428187387, 11.999999999999998 0 C13.285575219373078 -0.39225185428187387, 12 0.036666666666667375, 12 0.22000000000000064" stroke="#000000" stroke-width="1" fill="none"></path></g><g transform="translate(589 11.75) rotate(0 12 11)"><path d="M12 0 C14.442592916808849 -0.14044148123847902, 17.74383581021406 1.0585327847472812, 19.713451316238473 2.573511125691242 C21.683066822262887 4.088489466635203, 23.371217447950695 6.768788566612306, 23.817693036146494 9.089870045663766 C24.264168624342293 11.410951524715225, 23.677880064786343 14.458875202836461, 22.392304845413264 16.5 C21.106729626040185 18.541124797163537, 18.52033281412824 20.530515690537495, 16.104241719908025 21.336618828644994 C13.68815062568781 22.142721966752493, 10.31184937431219 22.142721966752493, 7.895758280091975 21.336618828644994 C5.47966718587176 20.530515690537495, 2.8932703739598145 18.541124797163537, 1.607695154586736 16.5 C0.32211993521365745 14.458875202836461, -0.26416862434229404 11.410951524715225, 0.1823069638535042 9.089870045663766 C0.6287825520493024 6.768788566612306, 2.31693317773711 4.088489466635205, 4.286548683761525 2.573511125691244 C6.256164189785941 1.058532784747283, 10.714424780626919 0.39225185428187387, 11.999999999999998 0 C13.285575219373078 -0.39225185428187387, 12 0.036666666666667375, 12 0.22000000000000064 M12 0 C14.442592916808849 -0.14044148123847902, 17.74383581021406 1.0585327847472812, 19.713451316238473 2.573511125691242 C21.683066822262887 4.088489466635203, 23.371217447950695 6.768788566612306, 23.817693036146494 9.089870045663766 C24.264168624342293 11.410951524715225, 23.677880064786343 14.458875202836461, 22.392304845413264 16.5 C21.106729626040185 18.541124797163537, 18.52033281412824 20.530515690537495, 16.104241719908025 21.336618828644994 C13.68815062568781 22.142721966752493, 10.31184937431219 22.142721966752493, 7.895758280091975 21.336618828644994 C5.47966718587176 20.530515690537495, 2.8932703739598145 18.541124797163537, 1.607695154586736 16.5 C0.32211993521365745 14.458875202836461, -0.26416862434229404 11.410951524715225, 0.1823069638535042 9.089870045663766 C0.6287825520493024 6.768788566612306, 2.31693317773711 4.088489466635205, 4.286548683761525 2.573511125691244 C6.256164189785941 1.058532784747283, 10.714424780626919 0.39225185428187387, 11.999999999999998 0 C13.285575219373078 -0.39225185428187387, 12 0.036666666666667375, 12 0.22000000000000064" stroke="none" stroke-width="0" fill="#82c91e"></path><path d="M12 0 C14.442592916808849 -0.14044148123847902, 17.74383581021406 1.0585327847472812, 19.713451316238473 2.573511125691242 C21.683066822262887 4.088489466635203, 23.371217447950695 6.768788566612306, 23.817693036146494 9.089870045663766 C24.264168624342293 11.410951524715225, 23.677880064786343 14.458875202836461, 22.392304845413264 16.5 C21.106729626040185 18.541124797163537, 18.52033281412824 20.530515690537495, 16.104241719908025 21.336618828644994 C13.68815062568781 22.142721966752493, 10.31184937431219 22.142721966752493, 7.895758280091975 21.336618828644994 C5.47966718587176 20.530515690537495, 2.8932703739598145 18.541124797163537, 1.607695154586736 16.5 C0.32211993521365745 14.458875202836461, -0.26416862434229404 11.410951524715225, 0.1823069638535042 9.089870045663766 C0.6287825520493024 6.768788566612306, 2.31693317773711 4.088489466635205, 4.286548683761525 2.573511125691244 C6.256164189785941 1.058532784747283, 10.714424780626919 0.39225185428187387, 11.999999999999998 0 C13.285575219373078 -0.39225185428187387, 12 0.036666666666667375, 12 0.22000000000000064 M12 0 C14.442592916808849 -0.14044148123847902, 17.74383581021406 1.0585327847472812, 19.713451316238473 2.573511125691242 C21.683066822262887 4.088489466635203, 23.371217447950695 6.768788566612306, 23.817693036146494 9.089870045663766 C24.264168624342293 11.410951524715225, 23.677880064786343 14.458875202836461, 22.392304845413264 16.5 C21.106729626040185 18.541124797163537, 18.52033281412824 20.530515690537495, 16.104241719908025 21.336618828644994 C13.68815062568781 22.142721966752493, 10.31184937431219 22.142721966752493, 7.895758280091975 21.336618828644994 C5.47966718587176 20.530515690537495, 2.8932703739598145 18.541124797163537, 1.607695154586736 16.5 C0.32211993521365745 14.458875202836461, -0.26416862434229404 11.410951524715225, 0.1823069638535042 9.089870045663766 C0.6287825520493024 6.768788566612306, 2.31693317773711 4.088489466635205, 4.286548683761525 2.573511125691244 C6.256164189785941 1.058532784747283, 10.714424780626919 0.39225185428187387, 11.999999999999998 0 C13.285575219373078 -0.39225185428187387, 12 0.036666666666667375, 12 0.22000000000000064" stroke="#000000" stroke-width="1" fill="none"></path></g><g transform="translate(430 42.25) rotate(0 18.5 10.5)"><text x="0" y="16" font-family="Helvetica, Segoe UI Emoji" font-size="20px" fill="#000000" text-anchor="start" style="white-space: pre;" direction="ltr">Test</text></g><g transform="translate(580 45.25) rotate(0 31 10.5)"><text x="0" y="16" font-family="Helvetica, Segoe UI Emoji" font-size="20px" fill="#000000" text-anchor="start" style="white-space: pre;" direction="ltr">Deploy</text></g></svg>