<svg version="1.1" xmlns="http://www.w3.org/2000/svg" viewBox="0 0 1182.5 638.5" width="2365" height="1277">
  <!-- svg-source:excalidraw -->
  
  <defs>
    <style>
      @font-face {
        font-family: "Virgil";
        src: url("https://excalidraw.com/FG_Virgil.woff2");
      }
      @font-face {
        font-family: "Cascadia";
        src: url("https://excalidraw.com/Cascadia.woff2");
      }
    </style>
  </defs>
  <rect x="0" y="0" width="1182.5" height="638.5" fill="#ffffff"></rect><g transform="translate(371.5 50) rotate(0 84 35)"><path d="M1.0803204495459795 0.14842003397643566 C62.76190962009132 -3.5399728539586066, 124.11473482884468 -3.4522385719418525, 166.37936297245324 -1.7699567098170519 M-0.032234192825853825 0.023278103210031986 C36.78246758859605 -1.169978150166571, 74.50085493978114 -0.8909144783392546, 168.9330626418814 -0.13321374263614416 M167.06593170948327 -0.41045153327286243 C167.71523767514154 18.75464754458517, 167.00082206530496 35.674749597907066, 169.41383478231728 69.21877723746002 M167.49107298161834 -0.416104300878942 C168.9071497841738 26.75339321047068, 167.94294502576813 52.21160322334618, 168.7420439114794 69.20165102276951 M168.408188553527 69.66966730169952 C101.04878253899514 68.14235988751054, 36.98817603923379 68.49708101645112, -1.3451332729309797 71.07178234867752 M168.722455679439 69.65810220036656 C117.80298859011381 70.33780882310123, 68.01932376977055 72.1640126163885, -0.40071985218673944 70.85201509390026 M-1.8364514987915754 70.64970183186233 C1.848386895377189 49.87658989895135, -0.9503373387269676 34.31490183994174, 0.8014944512397051 0.9386557918041945 M0.16835310962051153 70.57295449171215 C-1.339487302582711 41.823967987671494, -0.40945645002648234 15.855210098437958, -0.6382035026326776 -0.7212755819782615" stroke="#000000" stroke-width="1" fill="none"></path></g><g transform="translate(410 74.5) rotate(0 45.5 10.5)"><text x="45.5" y="16" font-family="Helvetica, Segoe UI Emoji" font-size="20px" fill="#000000" text-anchor="middle" style="white-space: pre;" direction="ltr">Document</text></g><g transform="translate(432.5 10) rotate(0 20 10.5)"><text x="0" y="16" font-family="Helvetica, Segoe UI Emoji" font-size="20px" fill="#000000" text-anchor="start" style="white-space: pre;" direction="ltr">2GB</text></g><g transform="translate(328.5 333) rotate(0 63 25)"><path d="M-0.3615494053810835 -0.35134715028107166 C39.5619313498959 -0.6189606363512575, 79.60379169806839 1.038349909093231, 126.76068571396172 -0.9399013537913561 M-0.7738875756040215 -0.32716198172420263 C24.901012356951835 -0.18494517141953115, 49.690596394427125 -2.053554152790457, 125.39239230658859 0.16903133783489466 M125.28029278106987 -0.9871649760752916 C126.30303579056635 12.280488484539092, 126.76727389777079 25.076704490929842, 126.73056325502694 51.01888340525329 M126.91352215316147 0.6278552571311593 C125.24882137635723 10.419791704043746, 126.33600631216541 23.22596555482596, 125.62920904066414 49.549601898528636 M127.60971316881478 48.46437185816467 C79.39509263206273 52.28442531162873, 28.762352664768684 50.18406450087205, 0.8434022981673479 49.87233483605087 M125.66404890920967 49.304896459914744 C79.56532917246221 49.97540631057694, 30.957941489852956 49.60571967722848, -0.002162129618227482 49.631841198541224 M1.0698880273848772 50.56496989540756 C-0.3930241079069674 31.739550176076587, -0.6798426718451083 12.688176400959485, 0.0599572379142046 -1.8041686434298754 M-0.927977473475039 49.599377886392176 C0.029765694867819548 36.8127747438848, 0.3113571400754154 25.074893868528306, -0.9943054327741265 -0.11754543986171484" stroke="#000000" stroke-width="1" fill="none"></path></g><g transform="translate(345.5 348.5) rotate(0 48 10.5)"><text x="48" y="16" font-family="Helvetica, Segoe UI Emoji" font-size="20px" fill="#000000" text-anchor="middle" style="white-space: pre;" direction="ltr">Decryption</text></g><g><g transform="translate(175.64999439183623 359.3562981523439) rotate(0 75.31920309513808 0.02263434148525789)"><path d="M0.022384213283658028 0.5083594154566526 C24.944278915493438 0.5709057704547755, 124.85503121151899 -0.37150883329922335, 149.86734911624342 -0.6905538937063739 M-1.425002804081887 -0.27035583676770325 C23.83348983726154 0.07131043836496409, 126.3934262750422 0.7866024952392839, 152.06340899435804 0.7358225766768829" stroke="#000000" stroke-width="1" fill="none"></path></g><g transform="translate(175.64999439183623 359.3562981523439) rotate(0 75.31920309513808 0.02263434148525789)"><path d="M124.68635485979695 9.26603944678536 C132.83439664373338 6.307264994996819, 140.8996668748304 3.304986372639175, 151.19808619773016 -1.2608934476772173 M124.00110394886661 11.519317928559392 C132.74639652519622 8.437424078292477, 141.38712829345454 4.516371747351444, 152.2010832356848 0.40912566019354024" stroke="#000000" stroke-width="1" fill="none"></path></g><g transform="translate(175.64999439183623 359.3562981523439) rotate(0 75.31920309513808 0.02263434148525789)"><path d="M124.75374124782263 -11.255058512645281 C132.697413375672 -7.482932921456632, 140.7405809787365 -3.7543240707644356, 151.19808619773016 -1.2608934476772173 M124.0684903368923 -9.001780030871249 C132.6868481316255 -5.3932037702201505, 141.30560928100516 -2.623569221393205, 152.2010832356848 0.40912566019354024" stroke="#000000" stroke-width="1" fill="none"></path></g></g><g transform="translate(29 157.4666666666667) rotate(0 84 35)"><path d="M-0.5283659379929304 -0.7521928567439318 C52.83414695672691 -0.5842236569523811, 107.48709754981101 1.7914458820223809, 167.56034371443093 1.3514392953366041 M0.580406635068357 0.8086813846603036 C44.59941056054086 -1.397161626853049, 89.34677656944842 -1.909480744637549, 167.71005874779075 0.24581460747867823 M169.9907936770469 1.601584730669856 C165.627273602318 20.81908371206373, 167.21321008903905 38.57765744626522, 169.48779991455376 71.58967542462051 M167.89966851379722 0.8988295057788491 C167.93297737976536 18.953021325170994, 169.48725196858868 35.62017491366714, 168.7851790478453 69.37781854066998 M169.98921850509942 71.56645965389907 C104.77050512991846 69.32143517151475, 43.23932417966425 71.93540503397584, 1.78545150347054 71.5295240264386 M167.89450469519943 69.63614197168499 C120.71316138040274 70.9863986856863, 73.07628122325985 70.33146138858051, -0.410079718567431 69.0419050315395 M-0.5762433093041182 70.15921658091247 C1.1831049707718193 48.43182829488069, -0.97212751833722 29.619904410094023, 1.615224750712514 0.5139416437596083 M0.9805340757593513 69.36037097964436 C-0.02749795643612729 46.84234415926039, 0.25041898163035525 25.50106084626168, -0.3907627174630761 -0.5071346601471305" stroke="#000000" stroke-width="1" fill="none"></path></g><g transform="translate(67.5 181.9666666666667) rotate(0 45.5 10.5)"><text x="45.5" y="16" font-family="Helvetica, Segoe UI Emoji" font-size="20px" fill="#000000" text-anchor="middle" style="white-space: pre;" direction="ltr">Document</text></g><g transform="translate(90 117.46666666666668) rotate(0 20 10.500000000000007)"><text x="0" y="16" font-family="Helvetica, Segoe UI Emoji" font-size="20px" fill="#000000" text-anchor="start" style="white-space: pre;" direction="ltr">2GB</text></g><g transform="translate(10 89.46666666666668) rotate(0 103.5 166)"><path d="M-0.9723944244143709 -0.34108490610032227 C57.76934057311514 0.622063362829453, 114.46331725880536 0.41409438207693716, 207.19214227056915 0.9807266438784584 M-0.41729723411006997 -0.1188613271899335 C73.24202376063461 0.0014946173885696523, 148.4471933808668 0.007587382613384042, 206.4045040560534 0.41039375478822065 M208.22437062380905 -0.21590611280684244 C209.1754808285905 133.65881411279875, 209.8886629065771 264.76563084285, 208.03723255276398 330.98308406971324 M207.4586610722608 0.6482351009870815 C208.39209913229374 96.80288217679616, 208.60601111964493 192.99952786420687, 206.47585154482462 332.007564229482 M206.38062469996507 330.9750904140469 C126.01421933041743 332.27492481992255, 42.98186292608126 330.3817917269783, -0.21286273209912626 332.8314940430754 M207.17776926926342 332.06057261405556 C146.6797370860174 332.02024339993386, 86.31642372645233 332.20488424701136, 0.4574425874771349 331.6906489087794 M-1.3488496392722509 331.5841010891729 C-1.0032830861980058 243.06392134113372, 0.16974575682612866 152.2556754935851, 0.9617621332327699 0.5167668790462278 M-0.331720211498915 332.5068907358725 C2.015547590798712 199.58056707416912, 1.0991044309460762 67.76245051237301, -0.5262537922653187 0.37429756080071214" stroke="#000000" stroke-width="1" fill="none"></path></g><g transform="translate(20 38.5333333333333) rotate(0 103.5 19.5)"><text x="0" y="15.5" font-family="Helvetica, Segoe UI Emoji" font-size="19.33333333333333px" fill="#000000" text-anchor="start" style="white-space: pre;" direction="ltr">Receiving the document</text><text x="0" y="35" font-family="Helvetica, Segoe UI Emoji" font-size="19.33333333333333px" fill="#000000" text-anchor="start" style="white-space: pre;" direction="ltr">with signature</text></g><g transform="translate(88 449.4666666666667) rotate(0 26 10.5)"><text x="0" y="16" font-family="Helvetica, Segoe UI Emoji" font-size="20px" fill="#000000" text-anchor="start" style="white-space: pre;" direction="ltr">~2GB</text></g><g transform="translate(71.5 336.9666666666667) rotate(0 45.5 23.5)"><path d="M0 0 C0 0, 0 0, 0 0 M0 0 C0 0, 0 0, 0 0 M-0.10001405474263014 5.801701805790059 C0.20903838818215525 5.7669197141476065, 1.7619640191461752 3.055352279278439, 4.6687915864908165 0.9780259374377551 M-0.15209277976768798 6.30956612122535 C1.555782274016401 4.667702325827241, 3.3811983373315195 2.286525640301078, 5.324431245731658 0.5600171521154466 M1.3398125910292946 12.67376016867119 C4.285679940118413 7.0924273710486965, 7.6099781549368055 2.7278570443347574, 11.016854110312593 0.6633697967126748 M-0.2977203844953696 12.119498617618857 C2.7661617988803813 8.919856356955822, 6.067157309153308 4.792775442086131, 10.57314916918887 0.18215681343225443 M-1.0658923546364782 16.47046622345286 C3.46512973958035 11.676078566181342, 9.190462515706713 7.552165787451907, 16.46595738223143 -0.7332369697350067 M-0.49050648888109905 18.921592101362222 C5.2214756733690395 12.984460827518406, 10.052176592236474 7.7032789230192975, 16.206843203402535 -0.4337632193299932 M0.19134480712927981 22.36554212467289 C5.393322095012519 15.032009155841227, 11.693324719216196 8.156707127323907, 23.000080548504258 -1.3146213559270343 M0.18955937700338765 24.18104451773232 C7.295747223423507 17.55758499346077, 12.215529988543368 8.405766846982315, 20.588993628786767 -0.8913230389193139 M-1.1627821595827719 28.48287025443112 C6.5478853134649695 24.918134136535404, 11.950422648485228 16.920964806538002, 24.532519762080522 -0.801988376862111 M-0.6982618271792909 31.34383570286279 C6.583622317644577 22.80231330540459, 12.890064494301095 16.30945133295067, 25.347928614963205 -0.20125087685764065 M-0.5466160812508818 38.615775700473534 C10.64989310099419 21.8176735562501, 25.806372451699964 8.536384568830798, 30.506069350472487 -0.8305506500170292 M-0.8166671759542581 36.979383273796486 C9.60625348198051 26.715459882282797, 18.661477658255624 14.891592818973926, 31.04634605389724 0.866200366175109 M-0.8765466593532878 42.3368804255461 C9.222296058990157 31.65152880538699, 19.407056750324166 19.75852888372897, 38.053740650230395 0.9501144030225035 M0.7175446936533731 42.72058141007625 C11.141674215009825 31.53996259432037, 20.92514451075179 19.473591550621403, 36.762356159092235 0.5293426728901025 M0.08943050064126012 47.44031284761758 C15.871226412059816 30.580188288108204, 31.04456745304701 13.388118330097718, 40.5597342388665 -1.4741120852203053 M1.5211645531279778 46.67476043396772 C13.321360902429408 34.64229762169629, 23.481943762272245 20.667064543219034, 43.18170369751357 -0.38637373239257755 M5.000568063216548 49.10095035854285 C16.695891660310018 35.023908964652335, 30.048730353098406 21.66147499193822, 47.723467702931046 -0.7567137863311615 M5.724676756406467 48.551679329122656 C15.71366242276338 37.791515310073464, 24.136474235961238 26.46658145089406, 48.19304575766462 0.24556625803823806 M11.728922498960781 49.63727260762731 C22.273247546714458 37.80331861563268, 29.790570162428104 25.09924452556321, 54.12054786993629 -0.5407158177868645 M10.31906477603017 48.395129024143316 C23.831212344879596 32.80406013086783, 38.59620183835127 15.135740260871028, 53.98017398151076 -0.5286840064973752 M16.490916606395714 46.61408905761692 C27.057444846098512 36.80600197990724, 36.17849014048174 25.023861332923712, 59.26679857643248 -1.7335081011731113 M16.80862372497397 48.65440994857255 C31.20292975037576 32.19430033471516, 44.2846061498109 16.019842559055274, 58.617292332555365 -0.04940629328823931 M20.599249222071585 48.07713478692598 C34.0878192752177 34.89149902040151, 44.96024944611817 21.277558367844264, 64.17923289993186 1.1429779960332986 M21.494120066741225 48.38767783512152 C33.179629930568545 35.973034995726394, 44.53475575176962 22.033730438926487, 63.16123932776381 -0.42474412801427874 M26.367808423500662 48.957603428077704 C40.31184233591563 34.04336733222189, 49.7620550022621 20.753550795661976, 67.44008092698469 1.6774463022466577 M27.90895481829733 47.63522665811033 C40.10512410786204 32.596223814106295, 52.03850374733173 20.245392976397696, 69.24676580563947 0.16322384703567394 M33.17569929723317 48.79732380948638 C50.562656655119916 29.78899419450411, 64.86685666180449 12.188047909604407, 73.75776198510322 1.219059199990177 M32.41444131814564 48.11341527525013 C47.30096285361856 31.33712240547697, 61.05641842967397 15.643105699854829, 74.17875715814772 -0.9229427688182952 M38.02821617078139 47.39858331367521 C50.94289554205665 30.752770597675443, 63.7259389869165 17.5285994687215, 78.03091241083769 -1.397385732321851 M37.29202745825155 46.833240785861 C49.47826614863735 34.48786216370863, 62.590370980391434 20.01075367916999, 78.52751109879193 -0.08211949286501863 M43.62087038069554 46.549304519058495 C60.42568534052638 27.91943790917191, 76.96176599387142 8.118965652811347, 85.90935778170035 -2.2016323621662224 M42.33857345211842 48.79426517265412 C59.08908792954267 28.140356019403356, 76.3690647474148 9.671109253198019, 85.22095989453749 0.14395639921558256 M46.9003625044879 45.67286855815943 C58.00697753505062 34.51654046827936, 71.40475807850936 20.232921047458856, 89.85814068424145 1.6372106388713519 M47.958574066711634 48.60318865994956 C60.448748771805846 33.51066629855301, 73.49902109193256 19.26936912969367, 89.13994813388774 -0.23538748486532768 M55.1286101287087 47.55329175939233 C65.41559860465807 36.5403407325557, 75.26568859929753 23.249143544426577, 91.75031585900174 1.724621893982409 M52.75943639053456 47.16777635545851 C64.09518625119989 35.924218384879524, 75.47497447154204 23.739164370968936, 94.24227787183659 1.2229434448806629 M58.44372008087019 45.98504900528037 C72.62267900730646 33.55785903411552, 83.92275290870583 18.449338862626927, 93.55521408455044 9.147005642026777 M58.643702065552574 47.315431608501015 C72.03218578768917 32.14466482746406, 86.08928549114806 16.729437418745597, 93.78222251390636 9.070899081610257 M65.92401619752263 47.49825037423788 C74.90247694136438 38.32360155114965, 82.17129433269076 28.365082525450966, 93.17970955436182 14.347967194636567 M64.40432505526906 48.487122651788276 C69.29006179691278 42.225009279162805, 75.5442421215834 34.57284177065232, 92.68304419302446 13.814310078752442 M70.14901155617827 47.008464498788044 C75.5092636803241 38.71431984856697, 83.11004640674092 30.56216324853719, 91.93983444195766 22.13645663955777 M70.81689387664937 48.35595595964037 C75.66267428305103 39.99159173850634, 82.70077761013201 33.11376705297112, 94.53985833466578 19.889781553350083 M75.26343624338735 49.54189520734515 C79.95542125295567 42.91562238633669, 84.40337964410323 33.05574423860962, 95.18539695888818 27.864849680204674 M74.23490936819691 47.52110288976844 C79.43632353286743 42.47205528499899, 85.04804543313162 38.03190763072825, 92.77550171483368 25.811523925614342 M81.53820958666212 45.88520488243242 C82.4295452070688 46.06047662854103, 84.23569125983953 42.27935887565569, 94.20489455766565 31.833480574100484 M79.68200692187703 47.1263730414926 C84.09892788988778 42.580918073945156, 87.85281426388437 38.85631795447487, 94.07669566299356 31.5446358573653 M85.49000086601019 46.941404732931794 C86.76388552663974 46.640877234813665, 88.98178669543118 43.726784107719936, 92.75212847153712 38.941875351179704 M86.09766066319436 47.68747460996771 C87.44846160463017 45.06724816064994, 90.02310910120285 42.58297708591429, 93.1719977497222 38.45180262267248 M0.12469737147903004 47.10839777126726 C0.12469737147903004 47.10839777126726, 0.12469737147903004 47.10839777126726, 0.12469737147903004 47.10839777126726 M0.12469737147903004 47.10839777126726 C0.12469737147903004 47.10839777126726, 0.12469737147903004 47.10839777126726, 0.12469737147903004 47.10839777126726 M5.588799314475004 45.93254458807697 C4.172679741009272 45.973594945136114, 2.136077059163542 43.39854176381721, -0.22091986404270758 41.21878159515895 M5.475103608420436 46.52711762801101 C3.9989243759083988 44.99847191900773, 2.102939926948991 43.71824212975717, -0.027719253092118257 41.60547279104926 M13.578356925721701 45.89716563124963 C8.676893060003625 41.73272418085858, 4.073647925092284 37.914308756147776, -0.5424226788723154 36.62627874453469 M11.468625296975908 47.04171444301315 C8.57508283540284 44.22518603795363, 4.844936204873924 40.258396643913066, -0.5335788061761542 36.328857660935356 M20.307866677642394 45.29156914883579 C10.26255499536939 41.627595668541126, 5.191987955560894 38.01827349580619, -1.3543552378809771 32.4296825311097 M18.70302028674685 47.7514342299598 C11.67034960586573 40.67072907285938, 4.15112219166792 34.585994402725284, -0.06083252510640236 30.064550872607775 M25.227579443524593 47.50574750678439 C14.728845253353683 39.03013309684468, 6.1000676531744595 34.36788392121335, 0.8262461335560758 24.508354958463613 M23.21293255295139 46.485692647675165 C17.143203254109277 42.145380194528954, 10.022338266924123 34.76411822101112, 0.6622970285987932 26.52110956547797 M32.42258780342351 46.58345674125767 C25.616212796224726 41.32966377134683, 18.463124165275147 36.76519549202783, -1.7406427606544455 20.414502216079946 M29.99135502041142 46.54578796455926 C17.92299218300966 35.363257976788404, 6.731952026406365 25.126519836995783, -0.5524123085266908 19.486656874926503 M34.607898866424854 48.49303533724337 C24.800583066434882 35.908278276195105, 13.827445603130435 29.24960930869168, 0.19640163446424985 15.754370779908466 M35.98257336266577 47.40564338239669 C23.35295168884993 35.800465869372424, 10.447001872996893 24.998310910015242, 0.6712493954470613 15.130641181200016 M40.83181118750541 47.79385477069127 C25.618984713256616 33.96424444384, 7.1842906061189495 17.21095107121102, -2.0030823220021325 10.664267884936912 M42.78936001164435 46.63314478143411 C25.762938377117937 32.64011295389695, 10.689225912630398 19.852781061745755, -1.0759478109411198 10.374251311083121 M50.505447705973666 48.73140630557959 C34.20899596229927 35.00794041704037, 19.36360892866854 21.58615030948998, 0.4787351749232025 2.746533757115043 M49.233757096108775 46.953977517446624 C31.758100384189575 32.22609795742517, 15.30577180497955 17.913818979678375, -0.10724712076131393 4.795138769822455 M52.979384486138095 46.89297808088658 C33.89362875258249 29.239141272768773, 9.768841541624234 9.984955228595702, -0.052491685451266534 0.1646284104211037 M54.464955182320644 46.87605350870935 C33.53423859674483 29.352691043573646, 13.079240482380122 10.361629138060529, 0.9208779697480824 -0.3087454618068631 M61.120279457975485 48.863332197562016 C46.0579968680079 33.083840131332494, 32.10882225304606 22.60454816812547, 6.5657306331878855 1.2033399947479024 M62.06717201470987 46.31393832296894 C41.93295101250179 31.75781382516426, 24.08059435877236 14.902029584914935, 6.908988623853619 0.6098074203848496 M67.34040535557156 47.319791515593614 C48.15605665908835 32.66084979172464, 32.97578718090402 15.434084134305628, 12.04278592836696 -1.101249957850377 M67.6204354543153 46.65268797450998 C52.746373983619215 33.59623323542438, 35.81457675991557 20.198966699157886, 12.535981578534724 -0.05402070975134787 M72.94782635890309 47.96821188593116 C56.40581766296022 29.07538300107488, 34.56024795131233 14.324022940117345, 20.079316505062753 -0.9046137214239671 M72.58201012056682 47.65257115607914 C60.03485727535389 36.58805389641623, 47.810507149662214 24.600455957422213, 18.234707390721315 -0.03117209696881318 M80.17593103227857 48.63806894755288 C59.47198253969688 29.285592264183553, 38.954487284984104 11.712313279888185, 26.359079472360968 0.2928371890148611 M79.84718032972607 47.51290603595152 C61.8115041011261 31.114552864760896, 41.84309304762638 15.9227161723161, 24.715076733952223 -1.363348539482942 M85.76006106500648 46.938135214437025 C61.40288991664853 28.50860977625471, 43.59480942731961 11.116851125526168, 29.899123385238404 -1.4182757505841206 M85.85712883555465 46.496487344902235 C71.6685159687913 34.98444604950786, 60.291410101181064 24.278341819240698, 29.845487040157373 -0.498289157047088 M92.51414001206359 45.91215716253336 C78.26843039614462 34.146683752351336, 64.90725763869551 24.89197842166912, 39.07932118300353 0.7387887237573274 M91.70681556998244 47.55401346317794 C70.7921187704727 28.927969077914092, 49.85836737938974 10.594185365795823, 37.213605438098355 0.7740664061138638 M89.32252959075346 41.885469794905546 C74.76725520009568 26.80114574721393, 57.70246855820344 11.678523919332527, 43.21899892996483 -2.1174312489825553 M91.66808393976613 42.13945098563916 C75.173773506324 26.065895806870266, 57.196521641461224 12.284451762967727, 43.23424749403679 -0.05399493172497216 M92.60323624783504 37.14638556942742 C83.79755030834441 27.806083454752454, 74.96105305983014 21.92839629872225, 50.153564556099106 1.1290764321460003 M92.18411739361781 35.86017364945661 C78.35306397804179 24.122797062682743, 65.13580556743892 12.388189706006568, 49.25725595240258 -0.5835326028169519 M89.46970459239405 32.63980547108673 C77.13843781868991 19.31846464167682, 63.741130651388985 7.87046898639527, 54.26404079549204 0.6868846271307341 M91.56248285507631 31.13932340641492 C82.80641713190222 21.94827976501575, 73.11310588467933 14.328958254095038, 55.12828367423456 -1.4451155928774604 M91.11867067940729 26.151663475833224 C84.10741529327859 21.868866128973725, 78.19608500189324 13.780347947172528, 61.827241828120464 0.793099186921399 M90.89423400607156 26.3690048867607 C81.48245977686975 16.538953805444955, 69.42180192851585 6.564027543250955, 61.070220278962665 -1.3941002091598698 M90.10498536796042 20.747954318654635 C84.22387892494626 16.696994518704006, 83.28979442318033 10.301453850552798, 67.04530621829281 -1.1915542495037599 M91.85998464514235 20.318063167278567 C85.43477770903502 14.580950420601297, 77.46606963814784 9.137939794219387, 67.24397508284846 0.75320671661094 M91.6917909630303 13.710705725500738 C83.60821293242283 8.997972431765422, 77.56522580038875 3.6468649207890778, 73.62232565531758 0.8729468318335094 M91.61133532921865 16.03680600321517 C87.6514615151861 11.168658629989507, 82.72586298714585 7.008935156331208, 73.85635583965359 -0.25602508478990416 M91.11028679338835 9.122892632830855 C87.16488957253675 5.961371244855618, 85.13679499996041 3.1343500480044684, 78.69184770790471 -0.3988841817407618 M90.69898841199085 9.338724194077741 C87.22256125458446 5.183135910071925, 82.65183759692708 2.460154427716301, 80.137078048257 0.3148749632601874 M92.04921039862525 5.174112812501803 C89.42782919799771 2.920321973691019, 87.47800021752825 1.4471186437969252, 85.26934198915052 -0.8131777072716772 M91.39271901061726 4.478322278407828 C89.13559571028188 2.8884325242577753, 86.91861545663967 0.613820703466003, 85.45408453411447 -0.7057897521574319" stroke="#868e96" stroke-width="0.5" fill="none"></path><path d="M-0.43965628556907177 1.3514392953366041 C21.64551737541333 -0.36655706149525946, 45.74262531679124 0.5779544116836041, 92.61736276932061 -0.2817621249705553 M-0.28994125220924616 0.24581460747867823 C22.742035839054733 0.22332634174264965, 46.512232191488145 1.8890954121295362, 91.80079236533493 -0.951732917688787 M92.48779991455376 1.5896754246205091 C90.14780245966278 19.85699194641784, 89.42982010788285 36.462441326491536, 92.7976590115577 45.79814690165222 M91.7851790478453 -0.6221814593300223 C92.1268502591271 16.499504710081965, 91.45919815880247 35.53533062711358, 91.78322982694954 46.28697668109089 M92.78545150347054 48.529524026438594 C66.52678647777066 47.63247805980034, 43.68105670902878 47.66111505177803, -0.7277160566300154 47.41823041252792 M90.58992028143257 46.0419050315395 C61.67667117817327 47.10107805057429, 32.40953928530216 46.297996031483635, 0.07960829045623541 47.77178861293942 M1.615224750712514 47.51394164375961 C0.6208249069098384 38.976211335789415, 0.9037390089873225 30.084597284533082, -1.2792580407112837 0.9351168256253004 M-0.3907627174630761 46.49286533985287 C-0.2475533770490438 34.41896680695936, 0.20009946952573954 23.26244288496673, -0.41203147266060114 0.828783200122416" stroke="#000000" stroke-width="1" fill="none"></path></g><g transform="translate(75 341.9666666666667) rotate(0 43 20.5)"><text x="43" y="15.5" font-family="Helvetica, Segoe UI Emoji" font-size="20px" fill="#000000" text-anchor="middle" style="white-space: pre;" direction="ltr">Digital</text><text x="43" y="36" font-family="Helvetica, Segoe UI Emoji" font-size="20px" fill="#000000" text-anchor="middle" style="white-space: pre;" direction="ltr">Signature</text></g><g transform="translate(92.5 302.9666666666667) rotate(0 24.5 10.5)"><text x="0" y="16" font-family="Helvetica, Segoe UI Emoji" font-size="20px" fill="#000000" text-anchor="start" style="white-space: pre;" direction="ltr">&lt;1KB</text></g><g><g transform="translate(202.5 203.82361313488445) rotate(0 114.53813400380314 -2.3557258553487372)"><path d="M-1.0053551483899354 0.9016320694237947 C37.51958367737631 -0.11705051361462226, 191.79275572610396 -4.792050962097484, 230.0816231559962 -5.6130837801212525 M0.6676946693658827 0.3293849605321886 C39.22270508984725 -0.6133491290255461, 191.84283361335596 -3.522355422101456, 229.70142984926702 -4.584192905213878" stroke="#000000" stroke-width="1" fill="none"></path></g><g transform="translate(202.5 203.82361313488445) rotate(0 114.53813400380314 -2.3557258553487372)"><path d="M203.2562353738881 8.123285163481679 C205.99076082546333 3.800243961925208, 214.53527955231374 0.49571319850666473, 228.38508695714177 -5.771938683103964 M201.77517041632154 5.636718468096997 C207.1010213366913 4.146744724117699, 214.66419740283078 2.094244900687091, 228.91194056604058 -4.021383528236494" stroke="#000000" stroke-width="1" fill="none"></path></g><g transform="translate(202.5 203.82361313488445) rotate(0 114.53813400380314 -2.3557258553487372)"><path d="M202.78535244782844 -12.39252024736643 C205.70454737318994 -12.382798221300337, 214.34842201293944 -11.358510795213007, 228.38508695714177 -5.771938683103964 M201.30428749026188 -14.879086942751112 C206.76742301691215 -11.93576481823154, 214.43239350553102 -9.553203508796056, 228.91194056604058 -4.021383528236494" stroke="#000000" stroke-width="1" fill="none"></path></g></g><g transform="translate(442 176.25) rotate(0 57.5 25)"><path d="M1.31995820812881 -0.29733541421592236 C25.987879083957527 -1.8415811106096953, 52.92850313056261 -0.9893711253535002, 115.62538403086364 -0.08744618110358715 M0.15555282030254602 0.6901888241991401 C28.195736621972177 -0.9642699225340039, 55.48746251501144 -0.9035446806345135, 115.5736068347469 0.5755200674757361 M116.86139982752502 -0.36892553977668285 C114.7496795929037 18.8970113908872, 114.24715813761577 37.32972879335284, 113.25038087181747 50.13506350107491 M115.968793974258 0.6539314081892371 C115.35278978338465 13.485653305426242, 116.10264050355181 27.655417461879555, 115.06060077343136 49.25993430521339 M116.96791827492416 51.3830488640815 C78.32997808838263 47.88104887525551, 40.33522447105497 48.340234415931626, -1.6760615725070238 48.8318335134536 M115.67584253940731 49.59521973039955 C84.59732058318332 49.87720428653993, 52.742325581610196 49.03046836205758, -0.5389140387997031 50.08043309953064 M-1.2694830317050219 50.78457656688988 C0.3338403687812388 30.235407245345414, 1.9977198229171336 13.429800622165196, 1.1382319908589125 -0.40356924943625927 M-0.13940866198390722 50.60447737481445 C0.43329040007665753 37.10664984956384, -1.2584882895462215 23.98562190774828, -0.1635057171806693 -0.5844740280881524" stroke="#000000" stroke-width="1" fill="none"></path></g><g transform="translate(463 190.75) rotate(0 36.5 10.5)"><text x="36.5" y="16" font-family="Helvetica, Segoe UI Emoji" font-size="20px" fill="#000000" text-anchor="middle" style="white-space: pre;" direction="ltr">Hashing</text></g><g transform="translate(607 183.25) rotate(0 26 16.5)"><path d="M0 0 C0 0, 0 0, 0 0 M0 0 C0 0, 0 0, 0 0 M-0.7287023082049449 7.191018926401727 C1.6997882080876845 4.975879755423759, 1.9844254279643536 4.181877925097002, 5.706362860234923 0.7809808391926112 M-0.14245840941088983 6.57025761422991 C1.7127588727010705 4.343650161439351, 3.958046977025261 1.3732648773433735, 4.825447952704972 0.5374794609693112 M0.26621932919133506 13.253417988538324 C4.415952735450654 5.979655809870391, 8.72374083240735 3.39970478769427, 12.087178218317163 -0.9216127146885018 M-0.45552927096378015 12.126739900976002 C3.5505077908213964 8.337968448082062, 7.212426937482478 5.107916853658526, 10.042918493551147 0.61721310495285 M0.21832568472714442 18.95944434488254 C3.1651597469580155 13.417010775801465, 6.614908524742075 11.140795211075998, 13.737654989122825 1.3819452847284275 M-0.09328630757986289 19.136963693332547 C3.736668506705379 15.194547818624349, 7.134298222897284 11.769570107500197, 15.228549652270454 0.3582300838944512 M1.4019395468942086 22.98422531755185 C6.694480149095982 17.57272865060253, 16.99206007273719 5.422486535831769, 20.420166421959067 -0.3494238188326797 M1.2493474718368809 23.212170225284158 C5.56711104351493 18.302473031528486, 10.36762430208878 11.48589341536073, 20.99298120224651 -0.007164563594802331 M-1.5446133622388025 29.108886845175377 C7.71977368864883 21.330501157191257, 18.080006465039776 9.840135905751104, 24.99271372021398 1.2205646833416797 M0.36201723111321726 30.074258540522507 C10.095215174281872 18.364754458973017, 18.92472342889017 7.656278630820932, 25.760023194972785 0.016220765562055206 M-0.23812475874111527 33.66011062639328 C11.530477829357011 23.74261916936687, 20.551946914963253 11.363897935422216, 33.60255898483733 1.8205897753372131 M2.650117533476795 34.00379827714088 C12.146897584232597 21.551755077551654, 23.07397769605712 10.74312141650547, 31.16299119819591 -0.5560391925961436 M8.577851487327546 32.408741065068504 C17.07666003059878 19.8657424081842, 30.372304330819198 8.853752671487491, 36.48952507581686 -1.299878112869287 M7.051460475664765 33.98821709095534 C12.750268120607185 28.021203113239615, 19.585697744267925 19.895572331555993, 37.30569122620051 -0.14363294363948143 M12.815968091002382 34.674671492291694 C17.376770439390604 27.14804559269189, 23.863322563533572 20.688737781331675, 42.92196784410231 -2.095753747192113 M12.787994427009203 34.35793687750966 C21.22167106593276 24.195383072771236, 30.700714161705115 12.55741760048372, 41.6671419717332 0.2045611234708744 M19.197705903233157 34.299862142148555 C31.362472349334197 19.38125484884458, 41.5636123131997 9.69583899995716, 47.63580389968145 -0.37616044765447043 M17.487175580256746 33.29064174784267 C26.50684777459687 23.64291651402926, 36.40101399537974 14.444727198769357, 46.50935257407862 0.6919013781648431 M24.412106534007602 34.77206469461588 C34.002269479239196 21.63092669663379, 43.81075172470736 11.318859038418623, 53.11442381451351 2.2251028500521137 M23.309450574692004 34.46625257138429 C29.208255025538946 25.780812462058407, 36.809125990004816 17.95552339602048, 53.12598582199288 0.3347658867040231 M29.395685555284974 33.25435521400215 C37.366883077963394 23.96680907075373, 43.71705899396426 16.534910056678314, 54.0595428036337 5.863866977018297 M27.196919699071106 34.62770991439613 C36.673680204102844 26.038446741401035, 45.113304417201164 14.476555647014443, 53.28195883480806 7.108107794632197 M33.051755414024534 34.16176288961585 C36.68104348019114 30.447566413886793, 42.558931827867326 23.210044492509645, 52.855940333953804 13.949191346438703 M33.56140980465019 33.688852780639785 C39.786048172821886 27.897950655382814, 44.83113067470527 21.833440077771723, 52.646932671232825 12.940304142097112 M39.96974834521402 36.73789877643377 C42.74688381174953 31.110415995864365, 48.61244051127939 23.810289370874937, 51.4498976024331 18.040636397621796 M37.97254721821387 35.84229735204518 C42.411889065457025 31.889952109236496, 44.6985278308383 26.47150458621798, 51.64249980752332 19.14167830786036 M44.539503976428435 33.57122958578208 C44.858999375268795 32.15084385665384, 48.79515193423187 31.41175162834104, 52.47228357738321 23.834073520635865 M44.345343367062064 34.24445486162828 C46.106539993847505 32.00356823553576, 47.907186865478494 29.657140972762967, 52.51241236829635 25.19093968928573 M48.96880301242697 35.0043507100494 C50.09835660157515 33.35903798913898, 50.57219935196545 32.866701543154065, 52.41977395663011 30.922308434779545 M49.3275368496869 34.94540908429226 C49.847753517319994 34.17598209222323, 50.86952185669051 33.2981497895872, 52.70997800176005 30.86177090210912 M0.26418763066507367 33.22965480363224 C0.26418763066507367 33.22965480363224, 0.26418763066507367 33.22965480363224, 0.26418763066507367 33.22965480363224 M0.26418763066507367 33.22965480363224 C0.26418763066507367 33.22965480363224, 0.26418763066507367 33.22965480363224, 0.26418763066507367 33.22965480363224 M6.193676785401063 32.75989952279953 C3.716930337358894 31.510733228596134, 2.3895588367386447 30.159668531307577, -0.031051939396555928 27.120328052479778 M5.867792807913379 33.21442221483914 C3.344213584707893 30.719874572763484, 1.1259184551476928 28.73963717780523, -0.21079516266136944 27.53519783667103 M12.933501960408039 33.29009083847746 C9.824599503065928 30.669437351195327, 7.746743178769217 28.53849587288949, -0.5440331869411008 21.272399619029375 M11.834506885033198 33.29880741949424 C8.661927605804795 30.310436224528864, 4.276507477372335 26.5584941359957, 0.8356691091669061 22.481935048656077 M17.370741650527847 34.04642907004573 C13.40631321735112 26.514316296837542, 6.636616958899518 20.655474482948193, -0.6310038400232987 18.1119643820441 M17.25912612962587 32.25361961066493 C13.294208949458504 28.050979756789207, 6.967327944561225 23.7210389601574, -0.7984653666034536 16.576614831387126 M23.70472360413862 34.518480369376505 C18.431274979274246 26.843930968911454, 13.755747740401887 23.94734112591759, -1.6204060019495872 10.950077827502565 M25.08335053466601 32.219043856973315 C17.40917892183057 26.354940691374626, 7.842883257312938 18.219495518850934, 0.18728684153976172 12.091325901862756 M31.223777502939825 31.598397955938715 C20.913978228429862 24.32906624119642, 12.55365090963127 18.414618035801944, -0.4404931621894672 4.7227255819832195 M29.94939260480625 33.76498015009566 C19.741944016076772 24.16360888034431, 9.20155498646092 15.084565371264908, 0.08334659745092843 6.991763183521222 M35.90091593467743 32.50689282027311 C27.272269578349324 24.5361909953232, 17.630435918905928 14.345294306738658, -0.7779521173286461 -0.48862615200167503 M35.64932620708943 32.01915242002583 C24.30986144335578 23.325714616181266, 14.065779994258854 13.051085954546604, 0.9859555713412143 1.0994136308279077 M42.502577102765734 34.12230616489197 C30.569258156970946 21.696881365248828, 17.396475211451634 10.549054260606017, 2.642617630824399 -1.7566170759303588 M42.92783051172673 33.52961012122924 C30.185665048965888 22.396883474276684, 19.425839914867012 12.82739448543537, 1.831372415699017 -1.3743963932423013 M46.993157764727954 33.7006962013455 C38.1727890272843 21.932633646279914, 23.368061489578192 11.605858458557236, 8.765042196129505 -1.3712566793095537 M48.85547293053824 33.51606502970922 C34.489197022096775 20.615322762031248, 21.707215541492914 8.30804753536875, 9.070961086181049 -2.360515001243002 M54.75077071353283 30.124692324164982 C41.72669629590728 19.695407545655705, 28.75663617841907 8.765082597656878, 15.32313918499602 -0.7122506455415607 M53.013216598289574 30.649995416950162 C42.56990879313442 21.443119217060783, 31.706197903816467 12.639074158197278, 14.761506718493532 -3.27304118712337 M54.21706813581248 25.967522878938606 C43.73164275834165 17.3165008573381, 36.178260370328246 12.55409854038544, 19.622409300838235 -1.8153202721141142 M52.110993730909726 25.649923817993393 C42.689988741294776 17.043860538687152, 31.04666808905503 6.720961662872689, 21.315657232847634 -3.0443942464180154 M53.67893321631783 21.92669574212168 C46.454866276226625 12.776551209696763, 39.99220334103748 6.234600498354725, 24.41631180117936 -4.588469847476983 M52.73814722994649 21.246347611247344 C42.510391280045305 12.505441270919954, 32.816218265461174 2.816955921793191, 26.34694879106344 -2.810331153123581 M54.84295021257209 16.391081625264444 C46.29498664776301 8.935640442070795, 41.375330502813966 3.7281409679818527, 33.63144113943369 -4.251014419117896 M51.906650757219964 16.28007232271538 C47.881817558873045 11.38515043109689, 44.16857110274214 8.587801489220697, 32.363732438352116 -1.8177243277746715 M53.096746481277115 11.860640074675736 C50.61342051775209 5.609798293416242, 46.159825063204565 4.761147478264711, 38.77883263915523 -0.6867628063717508 M53.27197804723128 9.763560248110277 C48.020173390172396 5.964930670119279, 44.14445169159192 2.898523695056185, 38.180709920644084 -2.168508058058994 M52.567233147803506 5.792391759283209 C50.2996587730461 3.169658137217142, 46.38799013231896 0.13611423433289582, 43.543272155943995 -2.6675914380177055 M54.15061754710581 5.740730480789507 C50.4170955246986 3.4819306939641512, 48.1002289410105 0.9543201069517778, 44.60906444103617 -2.208197753637949" stroke="#868e96" stroke-width="0.5" fill="none"></path><path d="M-0.6777796167880297 -1.099881974980235 C18.550955733656885 -0.17036478202790023, 38.532924040034416 -0.01013897340744735, 50.885391948744655 0.7547578532248735 M0.10473291669040918 -0.43737843725830317 C17.28792095091194 -0.7355513839423656, 36.53853852767497 0.21662187889218332, 52.92917712125927 0.3088203063234687 M51.59526943974197 -0.7488742154091597 C51.39987895599566 4.852479163277894, 50.557511843359094 13.764106666110456, 51.65026038698852 34.71914032287896 M51.92300470266491 -0.6399976620450616 C52.992557434337215 10.331282915640625, 52.380302784936504 21.114269082620744, 52.288846955634654 33.931395440362394 M53.15171807818115 31.58335188217461 C40.554335438460114 32.40213012751192, 25.47520040310919 32.19142621811479, -0.5644720811396837 33.368171306326985 M52.85160611663014 32.87885585334152 C36.65836460273713 31.82163418866694, 20.276021869666874 32.869947359338404, 0.5861474433913827 32.923239945434034 M0.29546034149825573 31.166144462302327 C2.168804495865479 20.03043510345742, 1.347696691090241 8.074750845320523, -0.6912395376712084 1.1762770731002092 M0.7273596683517098 33.378551005385816 C-0.9184141628164798 23.512941446062175, -0.11750085872597993 12.382560425251718, 0.8541901567950845 0.6130586555227637" stroke="#000000" stroke-width="1" fill="none"></path></g><g transform="translate(609.5 189.25) rotate(0 23.5 10.5)"><text x="23.5" y="16" font-family="Helvetica, Segoe UI Emoji" font-size="20px" fill="#000000" text-anchor="middle" style="white-space: pre;" direction="ltr">Hash</text></g><g transform="translate(615 224.75) rotate(0 20 8.5)"><text x="0" y="13" font-family="Helvetica, Segoe UI Emoji" font-size="16px" fill="#000000" text-anchor="start" style="white-space: pre;" direction="ltr">&lt;1KB</text></g><g><g transform="translate(563 199.32921982913615) rotate(0 20.77375831563957 -0.66420493608166)"><path d="M-0.24168856255710125 -0.1486031938344241 C7.055294468874732 -0.27824703433837505, 36.2797431298842 -1.3071477924151225, 43.375230418518186 -1.437792228011847 M-1.827713787239045 -1.2722238159365953 C5.379664046882341 -1.1443470290611288, 35.450489404120795 0.366255882004847, 42.62418092461303 0.07208747616180755" stroke="#000000" stroke-width="1" fill="none"></path></g><g transform="translate(563 199.32921982913615) rotate(0 20.77375831563957 -0.66420493608166)"><path d="M22.0760358778512 7.812285254866003 C27.677568538105206 4.2198494364412, 33.92195214708427 4.357460167991642, 42.93528656521812 1.4524651245600877 M21.947054672216428 7.760508058749258 C29.23310128869232 6.048114600748016, 35.26915621999726 1.9749843757414425, 43.55488083837554 -0.11237529372653388" stroke="#000000" stroke-width="1" fill="none"></path></g><g transform="translate(563 199.32921982913615) rotate(0 20.77375831563957 -0.66420493608166)"><path d="M22.252130234519303 -6.9011575094540945 C27.725886993620037 -6.578538745104022, 33.923409953877716 -2.5255187641792247, 42.93528656521812 1.4524651245600877 M22.12314902888453 -6.95293470557084 C29.290169624771856 -4.098420211115183, 35.2715519615177 -3.6034194292992625, 43.55488083837554 -0.11237529372653388" stroke="#000000" stroke-width="1" fill="none"></path></g></g><g><g transform="translate(202.5 170) rotate(0 80.74574155684559 -45.34029303006828)"><path d="M-0.8456233073025942 0.11733319647610196 C14.813648048167426 -2.361733576779564, 77.18960558883845 -0.2486211787909287, 94.79072709791362 -14.212256611511112 C112.39184860698879 -28.175892044231297, 93.607078583166 -71.17637866052489, 104.76110574714839 -83.664479399845 C115.91513291113078 -96.15258013916512, 152.35901113661626 -88.37342439604302, 161.71489008180797 -89.14086104743183 M0.9112857270240786 -0.8666708207130432 C16.3211532553037 -3.217879901727041, 76.57302965402603 0.7644294905662559, 93.73281336069107 -12.78626608133316 C110.8925970673561 -26.336961653232578, 92.43593912363052 -69.52922989765804, 103.86998796701431 -82.17084425210953 C115.3040368103981 -94.81245860656102, 153.08694348255793 -87.66115344603855, 162.3371064209938 -88.63595220804214" stroke="#000000" stroke-width="1" fill="none"></path></g><g transform="translate(202.5 170) rotate(0 80.74574155684559 -45.34029303006828)"><path d="M133.9662196435516 -79.82185952840624 C143.9242602246095 -83.05644831710428, 155.39513872870765 -84.85333137384947, 160.43567134194075 -88.80865317754447 M134.16173076392312 -80.30456807473925 C142.5901596536609 -81.36144146476369, 149.95385814106845 -85.59114510526936, 162.41161346469073 -88.10644591305405" stroke="#000000" stroke-width="1" fill="none"></path></g><g transform="translate(202.5 170) rotate(0 80.74574155684559 -45.34029303006828)"><path d="M134.75971123504095 -100.32772145811003 C144.53763262154857 -95.98910795310908, 155.71524331429467 -90.20719709128932, 160.43567134194075 -88.80865317754447 M134.95522235541247 -100.81043000444305 C143.01085038306536 -96.17383739425645, 150.154295396219 -94.71162522742377, 162.41161346469073 -88.10644591305405" stroke="#000000" stroke-width="1" fill="none"></path></g></g><g><g transform="translate(393.35813890765826 433) rotate(0 -0.2876182677977681 -23.176028122501464)"><path d="M0.9453341592103242 1.025199241563678 C0.7468607039871016 -6.627500685925285, -1.1568441725660366 -37.72776817170282, -1.5205706948058606 -45.511266057565805 M-0.01750413654372096 0.51782489804551 C0.21170407424963514 -7.533174743174265, 1.2317013619888326 -39.92626967362439, 0.8724933397194445 -47.377255486566575" stroke="#000000" stroke-width="1" fill="none"></path></g><g transform="translate(393.35813890765826 433) rotate(0 -0.2876182677977681 -23.176028122501464)"><path d="M10.46611325865162 -26.778591555855655 C7.350251685650848 -32.13338720877141, 4.927220784389266 -38.09326949276999, -0.5979576855728328 -47.51869737008587 M9.02968828523082 -26.448483551233494 C5.593846971759342 -33.36582854885166, 3.71975075503324 -40.37833078722159, 0.8852581503039301 -47.207083762865516" stroke="#000000" stroke-width="1" fill="none"></path></g><g transform="translate(393.35813890765826 433) rotate(0 -0.2876182677977681 -23.176028122501464)"><path d="M-5.269908167540022 -26.766257475793523 C-4.0973914141996834 -32.2483794312826, -2.232002368434326 -38.21162302965246, -0.5979576855728328 -47.51869737008587 M-6.706333140960821 -26.436149471171362 C-5.060394675531807 -33.27687997159303, -1.852668157082082 -40.29336540284124, 0.8852581503039301 -47.207083762865516" stroke="#000000" stroke-width="1" fill="none"></path></g></g><g transform="translate(361.5 444.5) rotate(0 38 16.5)"><text x="0" y="12.5" font-family="Helvetica, Segoe UI Emoji" font-size="16px" fill="#000000" text-anchor="start" style="white-space: pre;" direction="ltr">Public Key</text><text x="0" y="29" font-family="Helvetica, Segoe UI Emoji" font-size="16px" fill="#000000" text-anchor="start" style="white-space: pre;" direction="ltr">of Signer</text></g><g transform="translate(560.5 340.75) rotate(0 26 16.5)"><path d="M0 0 C0 0, 0 0, 0 0 M0 0 C0 0, 0 0, 0 0 M-0.4840199246676523 7.054354655047051 C1.6691716308231903 5.206730391824137, 2.787835618370918 3.457465207128788, 5.106433885129637 0.009423531949264041 M-0.401574617964204 6.771754537199728 C1.3742433339036668 4.64233614105272, 3.206480990735619 2.892814779078038, 5.237203097301072 0.3700642593053403 M1.716129445387014 11.46463687014538 C2.470713902914265 8.189335006416906, 5.86691750873382 4.671982027590269, 11.577699601602685 1.23607986076621 M-0.6515319212247054 11.682809155851185 C3.4523374881417688 8.626163904574902, 7.623866041089656 3.115722963427315, 9.89600718240155 0.26131260274795487 M0.32386327809186 17.36461365306812 C5.092027078872823 11.722250095391711, 12.64445302351437 5.086186318137482, 17.616796021818594 -0.6012654577451748 M-0.7546857614582656 18.723925528955334 C4.5230128526729505 13.25811054851973, 7.702047253512669 9.102539971712972, 16.435551725796834 -0.44467872409848397 M0.5317672250977914 22.896079882695435 C5.184724749296944 17.51194991687146, 8.627412798575769 13.215276113636744, 20.794483769962454 0.3232816526829758 M0.11115758979685708 23.64837427129513 C5.736823605345849 17.75511082291328, 10.79005442584238 11.82777777165431, 21.109331763626898 0.3507838290348211 M-1.8331835874776026 31.53554434305822 C10.259530296399184 20.44177534928003, 19.471297135240057 5.954628259142144, 25.355066270243736 0.340507169627843 M-0.6483183036978026 30.167657677781037 C6.943394264416289 21.730932620760555, 16.087470195589376 12.486677102462675, 26.1257185820978 0.4982526771736122 M1.6258909992964519 35.564766857796634 C11.865146951872742 20.367816874202873, 22.167988719012506 10.049216250176787, 30.146977498612202 1.4466682021751343 M1.943570183785404 34.256681324006344 C10.24449113241537 25.463029070112583, 18.616193254128298 15.256202844770588, 32.84556681145618 -0.948611506143278 M7.3666089903602305 32.52216995577361 C20.35449420600786 20.252440181358565, 31.286021881423796 7.21557544121595, 37.298712190055596 -1.028686694698358 M8.302174211483628 35.19095880328711 C18.25800899930825 23.785223933985186, 26.392625729824474 10.912473629347723, 36.00647152848666 1.2223387110140678 M11.690294975748934 33.30772509307981 C20.248008478618644 24.94914940062329, 29.51135448559716 13.18098236528144, 41.15479807052367 -1.147894161906926 M12.033231211228944 35.182747948667114 C18.990000202831435 27.62730160139467, 24.92124808417728 19.361976464963735, 41.62749048843585 0.1878108771844822 M18.894601681412325 35.15597062880093 C26.950186476311337 22.67676813364095, 37.15354699128112 12.14410609303171, 48.71482362500417 0.9850006055262241 M17.054236438267992 34.885318808685184 C28.4782798850701 21.84651543457789, 38.59186678378928 12.245424851190577, 47.4169218930884 -0.029500700702115523 M22.432242592338138 32.75973636791376 C30.772618487323875 26.462797497744706, 36.9607462198027 16.01396280575898, 51.91335130045635 1.2537767969095661 M22.72192559438538 34.047928190271236 C31.9586782025024 24.603023596394337, 41.43009962396454 14.956584392802057, 52.02096759370041 -0.00013201888412694984 M29.190905155485627 36.29967649972679 C38.31982232422236 23.9581354648557, 44.23261943132792 14.681570780621282, 54.090768186915405 5.144343368333757 M27.080938030837235 34.076602597186884 C35.8952103005384 25.474786425906842, 43.8459745319187 16.367081280837116, 53.46333377210397 6.2577060056822305 M35.212573692814054 35.0208983385485 C40.283772869585015 27.74084305206302, 43.233826262913055 20.919809766015366, 51.45802562629313 11.20833785799342 M34.5518896613797 35.142016970693724 C39.36801944387835 27.091257096078014, 45.05255189150185 20.73290553320252, 53.57872054950774 13.272976350644704 M39.41285231431116 34.80959106435567 C41.9127426767322 27.652888326764742, 46.80316794268028 25.498811395581747, 50.97507669054879 17.960398830197022 M38.61944587529738 34.28737343022168 C44.37694369506118 27.95398458999638, 48.739582655887446 23.28485159062849, 51.86000946466787 18.550338332264886 M45.29074053140871 34.310975038782146 C48.44887788992253 31.89316766620401, 49.928150252080705 27.487143571847184, 53.12337469703023 23.8535100022309 M44.13380983402535 34.80928164665626 C45.63938031789801 32.4564109108749, 48.1940269324953 30.469665486936716, 53.17286393695947 24.648610626764274 M49.46878398364412 34.585812333360444 C50.165516847941234 33.82417778523711, 51.92182450618141 31.59360204926398, 52.52483791658628 31.464719479019543 M49.02779043317775 34.88613777104219 C50.74701933442164 33.48074504402388, 51.84641279186158 31.825658384118583, 52.51279949639897 30.85813861740825 M0.26418763066507367 33.22965480363224 C0.26418763066507367 33.22965480363224, 0.26418763066507367 33.22965480363224, 0.26418763066507367 33.22965480363224 M0.26418763066507367 33.22965480363224 C0.26418763066507367 33.22965480363224, 0.26418763066507367 33.22965480363224, 0.26418763066507367 33.22965480363224 M5.323698524407105 33.239263083476104 C3.222489461789115 30.94001525086231, 1.256901739729844 29.137061887867567, -0.6007196840330918 27.888626702267683 M5.78446395287569 32.44726069054333 C4.775565808329696 31.60321260428055, 3.783238823657619 30.867189424661564, -0.26758860204964463 27.659085125241432 M11.450184537541219 32.07477163414701 C10.318118837375406 29.556856835754665, 4.233980517725035 27.57717447500749, 1.078104407281921 22.676210358546587 M11.548282066803523 32.94060665483817 C7.512378324125213 29.849744649678172, 4.451130013363223 25.97483515554754, 0.522363755048559 22.119186401919933 M17.648612007564438 31.126433583309435 C9.842733222919678 26.89193976255028, 5.862032680554915 23.033572113725533, 0.22027464384434658 18.175659157148623 M18.82332787203653 31.835927515623652 C14.222691022392663 28.793286429544164, 10.733891668671653 25.75950419160567, 0.5545480594619914 17.887704436480128 M22.56450123351408 34.844427952098215 C16.570853561145963 24.48097275858662, 8.126399957202576 18.608597535470942, 0.7524159847256753 13.440196629096345 M23.89976575516505 33.39815256607022 C15.27711990592026 24.41310032437971, 7.467938224947176 17.93406060644216, 0.6942776617092106 11.045206301328317 M28.9415244163729 32.95965628389968 C19.65315351620844 22.812022900935172, 6.986820364632749 15.256492124026451, 0.6654812140121624 7.211839210847508 M30.51329107878429 33.70821754419013 C19.739179226796566 23.441826935421883, 9.139429674674663 14.121253711163007, -0.5250638503849938 6.4110356957187165 M35.76636601888687 33.647907694254584 C26.095165962036305 23.247567096088027, 20.054271396653157 15.769785304908869, -0.026044589881899283 2.839631229914371 M36.5272667724371 33.088182317477234 C28.740375005937096 26.296352665659267, 20.520408108286798 20.33292104761024, -0.7796957441094541 1.3447655116167108 M44.00663611947029 32.5551015106752 C30.998461948330625 23.13973412482438, 21.458546251396818 12.142041788183434, 2.841910946235013 -1.6689888901813048 M42.66391106883466 33.87418227789695 C27.448918852190808 18.4192338398764, 11.986509845509449 5.1413260492229895, 2.0004296955242276 -2.8104419505028146 M49.01540335064638 33.51737406971174 C34.369797055751995 20.539516748632206, 20.34227870468943 8.343171408792436, 8.289345811222736 -3.711452513946242 M48.877580442297045 32.66776513895261 C33.419111315172614 20.18823763807207, 19.09676937642935 7.73048437800464, 9.306715486672763 -2.2598488656934568 M52.746952380383874 31.80993289089548 C44.38249387622666 24.419847574779375, 31.169493758926954 14.498500490298998, 13.313749486490618 -3.962387199782741 M53.53927709008988 32.115995109628614 C40.35222167492675 20.926434799923598, 29.194042563995335 11.132422625533334, 13.142235827542375 -3.0982182904043913 M51.40660727031489 26.211084444814613 C41.93646836956299 15.865578205162262, 30.641160211196233 8.309203079855521, 19.67179455045295 -1.9399361201785368 M53.05522229064216 26.50673066246628 C40.49422577487822 15.684066903530912, 28.82675769198491 5.585669046802725, 19.77217770084423 -2.344883582670228 M54.23242308019036 19.435914732924445 C45.40330107936974 14.942616389429292, 36.44754340919933 5.653531262664217, 25.755612135632944 -3.2220254385833975 M53.61729800800168 20.733555113374038 C43.8919132857226 11.959203668020288, 33.87041257060039 4.138896037445672, 25.568866330898416 -1.62876577898761 M51.06965594253349 15.703372591775217 C47.210471643690454 12.92112854739641, 41.890669798899246 8.07178103590374, 32.31796857044489 -2.8853920774850526 M52.746266966488534 15.394109925855258 C47.75686164484457 11.34891103145775, 44.1663204768821 8.325223441138217, 31.705691825416096 -2.096151362391142 M54.55533715865768 9.291227911775765 C50.58048767699022 5.397299626632757, 46.3185108325734 2.9428881699287253, 38.878334132728426 -0.8501665349760674 M52.55060876731022 9.84704917887209 C47.174015286764615 5.611119159022833, 41.93545815826033 1.6366609145284046, 38.549248239218514 -2.1553321518180537 M53.163105371180734 5.140486401445532 C51.422074977023165 3.1004594502338705, 48.772625194767386 1.9211343804718164, 45.2203352515136 -3.55490519734464 M53.79276732332613 5.952578411936129 C52.061681306860265 3.128774193728934, 49.437507670976174 1.6431024985405625, 44.51149463565249 -2.0002734293638857" stroke="#868e96" stroke-width="0.5" fill="none"></path><path d="M-1.9109737891703844 -0.6157770436257124 C12.058466777205467 0.6427769275382161, 22.732495279982686 1.0603631945326923, 51.574910102412105 0.48555353470146656 M0.03513892088085413 0.19084983970969915 C11.31476392056793 0.13526996329426766, 20.838973003812136 0.5868300135433674, 52.48985599074513 -0.16147074196487665 M51.11799377016723 0.6772797424346209 C52.679124817466366 9.181297916639597, 50.95363430700265 18.76005554702133, 52.26775514893234 33.80879411287606 M51.01520060095936 0.7482089092954993 C52.52091216524131 11.257597081828862, 51.410872901277614 24.598313646391034, 51.62499369774014 33.07078361418098 M52.14196979813278 34.0241256672889 C31.831717025488615 32.64548845704645, 11.29966058768332 32.543585435710845, -0.1843449492007494 34.484957130625844 M52.086213246919215 32.599642037414014 C35.77009166758508 34.22345218040049, 18.193976535089313 34.23312723614276, 0.3199849585071206 32.99393209721893 M1.1660202126950026 33.96168700046837 C1.6589303489867597 27.420644656103104, 2.0466180916968733 18.577998994477092, 1.6748476009815931 -1.4314530175179243 M-0.6874615689739585 32.54260405804962 C-0.727506815912202 25.158372949715705, 0.03259208845905959 18.745790057629346, 0.9917304078117013 -0.18148452136665583" stroke="#000000" stroke-width="1" fill="none"></path></g><g transform="translate(563 346.75) rotate(0 23.5 10.5)"><text x="23.5" y="16" font-family="Helvetica, Segoe UI Emoji" font-size="20px" fill="#000000" text-anchor="middle" style="white-space: pre;" direction="ltr">Hash</text></g><g transform="translate(568.5 382.25) rotate(0 20 8.5)"><text x="0" y="13" font-family="Helvetica, Segoe UI Emoji" font-size="16px" fill="#000000" text-anchor="start" style="white-space: pre;" direction="ltr">&lt;1KB</text></g><g transform="translate(590.5 141.5) rotate(0 75.5 8.5)"><text x="0" y="13" font-family="Helvetica, Segoe UI Emoji" font-size="16px" fill="#000000" text-anchor="start" style="white-space: pre;" direction="ltr">Hash from Document</text></g><g transform="translate(534 422.5) rotate(0 98 8.5)"><text x="0" y="13" font-family="Helvetica, Segoe UI Emoji" font-size="16px" fill="#000000" text-anchor="start" style="white-space: pre;" direction="ltr">Hash from Digital Signature</text></g><g><g transform="translate(459.5 356) rotate(0 50.15600633732976 0.5746694603934941)"><path d="M-0.5069698143750428 0.8600903023034332 C16.272675839190683 1.0687669067333139, 83.72394338759284 1.3379291602720818, 100.81898248903454 1.503728185966611 M1.427732303738594 0.26603376567363757 C18.021170636614166 0.09113333563009918, 83.03789479712646 -0.30358124236265815, 99.77590283215046 -0.3543892651796341" stroke="#000000" stroke-width="1" fill="none"></path></g><g transform="translate(459.5 356) rotate(0 50.15600633732976 0.5746694603934941)"><path d="M73.06859781754808 9.740837639480466 C81.22600165834628 8.69219450233845, 90.58440763198028 4.558082266420681, 97.93788530699909 0.701654152944684 M71.16173563593672 9.596469077564413 C80.39048843559982 6.921808762603138, 89.3611869248542 4.139742862252105, 99.12275059077889 -0.666232512332499" stroke="#000000" stroke-width="1" fill="none"></path></g><g transform="translate(459.5 356) rotate(0 50.15600633732976 0.5746694603934941)"><path d="M72.96927861783843 -10.780130614537386 C81.20068347203139 -5.430756640429191, 90.5900531047458 -3.16727136373209, 97.93788530699909 0.701654152944684 M71.06241643622707 -10.92449917645344 C80.5079293065674 -7.163597104152033, 89.50977348381858 -3.5104553457561742, 99.12275059077889 -0.666232512332499" stroke="#000000" stroke-width="1" fill="none"></path></g></g><g><g transform="translate(671.5 201) rotate(0 57.63458509953692 28.913663857676895)"><path d="M0.4239830005913974 -1.1165784526616334 C17.168821409220495 -0.8884221840649842, 81.94360347477098 -10.083335996543369, 100.84151157028973 0.6050094556063412 C119.73941966580847 11.29335490775605, 111.3214441884309 52.79908641489843, 113.81143157370389 63.01349426023662 M-0.8125646534375848 0.9116139143519102 C15.815292630909633 0.8539199721626936, 80.85287643007314 -11.248510606506217, 100.33525968106464 -1.1999353289790453 C119.81764293205615 8.848639948548128, 113.3978466716595 50.51335434236253, 116.08173485251143 61.20306557951495" stroke="#000000" stroke-width="1" fill="none"></path></g><g transform="translate(671.5 201) rotate(0 57.63458509953692 28.913663857676895)"><path d="M102.41654256515235 35.0255160343378 C109.01795195637384 40.73045132847398, 113.60643276755046 53.143900398057184, 115.90082906523719 60.69980806460604 M104.00776100408316 32.73078166344307 C107.04578723997645 41.30911154562567, 109.36265163169574 47.79644323122676, 115.79121540544554 61.538836261946706" stroke="#000000" stroke-width="1" fill="none"></path></g><g transform="translate(671.5 201) rotate(0 57.63458509953692 28.913663857676895)"><path d="M122.90633386471691 33.89041476743316 C122.71757470247148 40.04350845074013, 120.52311309199513 52.83272154952177, 115.90082906523719 60.69980806460604 M124.49755230364772 31.595680396538427 C122.14130942487417 40.57662680831177, 119.07294663936325 47.362291361342955, 115.79121540544554 61.538836261946706" stroke="#000000" stroke-width="1" fill="none"></path></g></g><g><g transform="translate(625.5 363) rotate(0 90.41611456296296 -26.008724715069235)"><path d="M1.1649627875536679 -0.48128199689090245 C28.943798708046476 -1.0925638885547717, 137.4249205858757 6.241600806390245, 166.03672807924448 -2.698886789008975 C194.64853557261327 -11.639374384408196, 171.87919193021952 -45.82633637301624, 172.83580774776638 -54.12420756928623 M0.31742952167987815 -1.779558990597725 C27.997133011619248 -2.332396127184232, 136.40938502450786 7.0745180179675415, 165.10796485722065 -1.5283771020174028 C193.80654468993345 -10.131272222002348, 171.37591197788717 -44.52291540920734, 172.50890851795674 -53.39692971050739" stroke="#000000" stroke-width="1" fill="none"></path></g><g transform="translate(625.5 363) rotate(0 90.41611456296296 -26.008724715069235)"><path d="M188.41661957309162 -28.420239342431984 C183.72586089809352 -33.0797462836269, 178.89006080668142 -40.998913534222574, 173.3653852402419 -54.409068283960224 M188.35502468731767 -27.666970537099502 C184.72015655439884 -33.76078939572888, 181.28211384169367 -41.27672280347777, 172.48716210696847 -53.11793452534825" stroke="#000000" stroke-width="1" fill="none"></path></g><g transform="translate(625.5 363) rotate(0 90.41611456296296 -26.008724715069235)"><path d="M168.4918980026867 -23.508470544159827 C168.6824137524655 -29.574496383622254, 168.7675426192821 -38.70675287263634, 173.3653852402419 -54.409068283960224 M168.43030311691274 -22.755201738827346 C169.80661113648006 -30.198773945818417, 171.40844790131936 -38.95711983483503, 172.48716210696847 -53.11793452534825" stroke="#000000" stroke-width="1" fill="none"></path></g></g><g transform="translate(744.5 262) rotate(0 57.5 23)"><path d="M0.05531942658126354 -1.6759594958275557 C40.5073163076304 -1.6547638967167586, 81.8200290547684 -1.134703417075798, 115.16316300444305 0.041387470439076424 M-0.25506316032260656 -0.15381193254143 C44.27807128941641 0.08498691781423995, 90.6779211703688 0.5447886215057225, 114.89822606835514 -0.7294544288888574 M114.9479764085263 0.7692159730941057 C113.61971574792638 16.87932612616569, 112.99212944278493 30.785000930726532, 114.2703566532582 45.386009426787496 M115.92843823228031 0.6419104030355811 C114.76838632868603 9.521654952317476, 114.80431073354558 18.96899498347193, 115.13041921053082 45.46571153309196 M113.07868385128677 46.14818546362221 C88.90425486350432 45.57213612417691, 61.37508764024824 44.95039286236279, 0.5186158996075392 44.10808995552361 M115.24250240717083 45.83369654323906 C83.10694098146632 45.73287558206357, 51.04054860025643 46.15765264281072, 0.9718433478847146 45.85024574305862 M0.7767264228314161 47.361156495288014 C0.7733808562718332 37.04275799449533, -1.1226189925707877 25.057643871754408, -1.4366027135401964 1.75041470117867 M0.870631561614573 46.25611069705337 C0.58431198021397 37.11472054459155, 0.49171732684597375 25.661714448221026, 0.5210397401824594 -0.8907016525045037" stroke="#000000" stroke-width="1" fill="none"></path></g><g transform="translate(772.5 276.5) rotate(0 29.5 8.5)"><text x="29.5" y="13" font-family="Helvetica, Segoe UI Emoji" font-size="16px" fill="#000000" text-anchor="middle" style="white-space: pre;" direction="ltr">Equal??</text></g><g><g transform="translate(870.5 284) rotate(0 49.794865379035485 -39.09619621746242)"><path d="M1.1662120174616575 -0.1797051083296537 C17.230329182868203 -13.146680435662466, 80.95407483490806 -65.28697748693327, 97.05471581928433 -78.01268732659518 M0.31933459728956226 -1.3196542355418206 C16.694091985722384 -14.15242386152347, 83.17634525428215 -64.12156387935082, 99.27039616078139 -77.00692292183638" stroke="#000000" stroke-width="1" fill="none"></path></g><g transform="translate(870.5 284) rotate(0 49.794865379035485 -39.09619621746242)"><path d="M82.93571192147344 -53.22745345931071 C87.29782304856694 -61.21321442788973, 95.46822885141366 -68.49098215949533, 99.65558020852507 -75.78775428675115 M84.11042778594553 -52.51795952699649 C87.20299595110184 -57.4722602925512, 91.37907585879424 -62.66298923446705, 99.98985362414271 -76.07570900741965" stroke="#000000" stroke-width="1" fill="none"></path></g><g transform="translate(870.5 284) rotate(0 49.794865379035485 -39.09619621746242)"><path d="M70.38938712090818 -69.46659556671776 C79.18738068856231 -71.79584173364277, 91.82220047709052 -73.29516404061607, 99.65558020852507 -75.78775428675115 M71.56410298538027 -68.75710163440354 C77.42494160219162 -69.97625697107696, 84.41715966233292 -71.52196090537879, 99.98985362414271 -76.07570900741965" stroke="#000000" stroke-width="1" fill="none"></path></g></g><g><g transform="translate(870.5 299) rotate(0 54.738887434080254 17.788866918189456)"><path d="M-0.907263744994998 0.6717653464525937 C17.403284985696274 6.6695445449401936, 92.08534841823081 29.75349641951422, 110.38503861315549 35.5988956283778 M0.8172840595431627 -0.02116179199889312 C18.957849585035195 5.657319233895588, 91.24153746884937 28.155158827981598, 109.63913842143491 33.79074108449742" stroke="#000000" stroke-width="1" fill="none"></path></g><g transform="translate(870.5 299) rotate(0 54.738887434080254 17.788866918189456)"><path d="M80.79508339240287 35.9085626536277 C90.97028874775656 33.13782933507063, 101.5042819374397 35.4398692990834, 110.33169084081426 31.98857694527134 M79.06344448122267 35.96668107428074 C88.69797656654683 35.403505707212894, 97.35909318874616 35.31877701618127, 109.23205693570897 33.56034360768273" stroke="#000000" stroke-width="1" fill="none"></path></g><g transform="translate(870.5 299) rotate(0 54.738887434080254 17.788866918189456)"><path d="M86.85643636111293 16.302951146343634 C94.88633969256297 20.22050372096389, 103.33838632045726 29.2566566264384, 110.33169084081426 31.98857694527134 M85.12479744993273 16.36106956699668 C93.04485822282335 21.395931209906646, 99.96793176074262 26.932950281993442, 109.23205693570897 33.56034360768273" stroke="#000000" stroke-width="1" fill="none"></path></g></g><g transform="translate(887.5 228.5) rotate(0 13 8.5)"><text x="0" y="13" font-family="Helvetica, Segoe UI Emoji" font-size="16px" fill="#000000" text-anchor="start" style="white-space: pre;" direction="ltr">Yes</text></g><g transform="translate(898.5 324) rotate(0 10 8.5)"><text x="10" y="13" font-family="Helvetica, Segoe UI Emoji" font-size="16px" fill="#000000" text-anchor="middle" style="white-space: pre;" direction="ltr">No</text></g><g transform="translate(991.5 201.5) rotate(0 82.5 8.5)"><text x="0" y="13" font-family="Helvetica, Segoe UI Emoji" font-size="16px" fill="#000000" text-anchor="start" style="white-space: pre;" direction="ltr">Valid Digital Signature!!</text></g><g transform="translate(995.5 325.5) rotate(0 88.5 8.5)"><text x="0" y="13" font-family="Helvetica, Segoe UI Emoji" font-size="16px" fill="#000000" text-anchor="start" style="white-space: pre;" direction="ltr">Invalid Digital Signature!!</text></g><g transform="translate(468.5 333.5) rotate(0 30 8.5)"><text x="0" y="13" font-family="Helvetica, Segoe UI Emoji" font-size="16px" fill="#000000" text-anchor="start" style="white-space: pre;" direction="ltr">Success</text></g><g><g transform="translate(461.5 369) rotate(0 52.135375568680466 117.7497146178037)"><path d="M-0.22440706975758073 -1.1536642681807279 C17.496580619737504 38.27642868248125, 88.6886225771159 197.06708662795523, 106.07211064808071 236.6530935037881 M-1.8013595107197762 0.8550580456852912 C15.87762542694807 39.9303175436457, 87.63903056114911 195.98088389585416, 105.68692327469587 234.87339284449817" stroke="#000000" stroke-width="1" fill="none"></path></g><g transform="translate(461.5 369) rotate(0 52.135375568680466 117.7497146178037)"><path d="M82.63497912154773 215.36333900032014 C91.55095719461731 218.01548408967935, 96.95827155251706 227.325780646488, 104.75789356969297 233.68050264932216 M83.76486418691704 214.04532944218636 C92.45022940173976 222.00724594008258, 101.73151475094471 230.143842271101, 106.67677649382502 234.07813342746348" stroke="#000000" stroke-width="1" fill="none"></path></g><g transform="translate(461.5 369) rotate(0 52.135375568680466 117.7497146178037)"><path d="M101.26765255258147 206.76429933310794 C104.9931315078587 211.7794313374844, 105.20474892946683 223.48755900636368, 104.75789356969297 233.68050264932216 M102.39753761795077 205.44628977497416 C103.6300288363358 216.84801645274842, 105.46067762628874 228.42310589942895, 106.67677649382502 234.07813342746348" stroke="#000000" stroke-width="1" fill="none"></path></g></g><g transform="translate(530.5 491.5) rotate(0 24.5 8.5)"><text x="24.5" y="13" font-family="Helvetica, Segoe UI Emoji" font-size="16px" fill="#000000" text-anchor="middle" style="white-space: pre;" direction="ltr">Failure</text></g><g transform="translate(571 611.5) rotate(0 88.5 8.5)"><text x="0" y="13" font-family="Helvetica, Segoe UI Emoji" font-size="16px" fill="#000000" text-anchor="start" style="white-space: pre;" direction="ltr">Invalid Digital Signature!!</text></g></svg>