<svg version="1.1" xmlns="http://www.w3.org/2000/svg" viewBox="0 0 960 432.9333333333334" width="1920" height="865.8666666666668">
  <!-- svg-source:excalidraw -->
  
  <defs>
    <style>
      @font-face {
        font-family: "Virgil";
        src: url("https://excalidraw.com/FG_Virgil.woff2");
      }
      @font-face {
        font-family: "Cascadia";
        src: url("https://excalidraw.com/Cascadia.woff2");
      }
    </style>
  </defs>
  <rect x="0" y="0" width="960" height="432.9333333333334" fill="#ffffff"></rect><g transform="translate(10 99.93333333333338) rotate(0 84 35)"><path d="M1.0803204495459795 0.14842003397643566 C62.76190962009132 -3.5399728539586066, 124.11473482884468 -3.4522385719418525, 166.37936297245324 -1.7699567098170519 M-0.032234192825853825 0.023278103210031986 C36.78246758859605 -1.169978150166571, 74.50085493978114 -0.8909144783392546, 168.9330626418814 -0.13321374263614416 M167.06593170948327 -0.41045153327286243 C167.71523767514154 18.75464754458517, 167.00082206530496 35.674749597907066, 169.41383478231728 69.21877723746002 M167.49107298161834 -0.416104300878942 C168.9071497841738 26.75339321047068, 167.94294502576813 52.21160322334618, 168.7420439114794 69.20165102276951 M168.408188553527 69.66966730169952 C101.04878253899514 68.14235988751054, 36.98817603923379 68.49708101645112, -1.3451332729309797 71.07178234867752 M168.722455679439 69.65810220036656 C117.80298859011381 70.33780882310123, 68.01932376977055 72.1640126163885, -0.40071985218673944 70.85201509390026 M-1.8364514987915754 70.64970183186233 C1.848386895377189 49.87658989895135, -0.9503373387269676 34.31490183994174, 0.8014944512397051 0.9386557918041945 M0.16835310962051153 70.57295449171215 C-1.339487302582711 41.823967987671494, -0.40945645002648234 15.855210098437958, -0.6382035026326776 -0.7212755819782615" stroke="#000000" stroke-width="1" fill="none"></path></g><g transform="translate(48.5 124.43333333333338) rotate(0 45.5 10.5)"><text x="45.5" y="16" font-family="Helvetica, Segoe UI Emoji" font-size="20px" fill="#000000" text-anchor="middle" style="white-space: pre;" direction="ltr">Document</text></g><g transform="translate(10 257.9333333333334) rotate(0 84 35)"><path d="M0.10570678301155567 -1.4278772491961718 C46.03458542041481 0.15409033268690098, 93.81780556477607 3.104724394977093, 169.6800636369735 -1.6481796521693468 M0.8439466943964362 0.15088521037250757 C55.82807501237839 -1.674320868290961, 113.33136741574853 -1.7635967350378634, 168.99983343388885 0.9596872488036752 M166.17827788181603 -0.34836685843765736 C167.3532247404568 16.002381852827966, 165.64578239722178 30.495340570807457, 167.18772575445473 68.70989328436553 M168.80338820721954 0.3521506944671273 C168.71410266598687 26.224224127829075, 168.0915040477179 50.1718752970919, 167.63386505749077 70.30019013676792 M168.41950628347695 71.98780971579254 C111.13084669075906 73.15082542553544, 52.91784208156167 73.59012602224946, -0.7391652744263411 69.75303816609085 M167.3656806340441 70.76988594327122 C125.95971852671354 70.26460818719119, 84.75816220398991 71.55694509815424, -0.43751046154648066 70.93251068983227 M1.5577245075255632 70.91970276646316 C-1.0262191656045616 55.42973697651178, -0.1802748206071556 38.44465209171176, 1.7703011948615313 -1.791022839024663 M0.3263256838545203 70.06708534155041 C0.9069454547949135 43.61460738815367, 0.039422291237860896 17.026098283939056, 0.18179452326148748 -0.5965676447376609" stroke="#000000" stroke-width="1" fill="none"></path></g><g transform="translate(48.5 282.4333333333334) rotate(0 45.5 10.5)"><text x="45.5" y="16" font-family="Helvetica, Segoe UI Emoji" font-size="20px" fill="#000000" text-anchor="middle" style="white-space: pre;" direction="ltr">Document</text></g><g transform="translate(71 59.93333333333338) rotate(0 20 10.5)"><text x="0" y="16" font-family="Helvetica, Segoe UI Emoji" font-size="20px" fill="#000000" text-anchor="start" style="white-space: pre;" direction="ltr">2GB</text></g><g transform="translate(80 217.4333333333334) rotate(0 20 10.5)"><text x="0" y="16" font-family="Helvetica, Segoe UI Emoji" font-size="20px" fill="#000000" text-anchor="start" style="white-space: pre;" direction="ltr">2GB</text></g><g><g transform="translate(182 290.9333333333334) rotate(0 46.496477882936574 0.3208988514076907)"><path d="M-0.48364298455417154 -1.1305074144154788 C15.223418985679746 -1.0754755863298973, 77.9018918979913 0.15714127135773498, 93.47659875042737 0.498281879350543 M1.4633057192154229 0.8903722476772966 C17.121053935009986 1.0911635337087018, 77.65926627548411 1.5557172270429633, 92.77876763077452 1.7723051172308626" stroke="#000000" stroke-width="1" fill="none"></path></g><g transform="translate(182 290.9333333333334) rotate(0 46.496477882936574 0.3208988514076907)"><path d="M62.59677399658686 12.528247095576996 C70.31433803441226 9.436174275862513, 77.6946309747841 8.25293740310632, 92.07952590504661 0.6749625050090255 M64.35268334728754 12.028514767929488 C71.066913994439 9.659310489653587, 75.43748938839144 6.699687735403788, 93.11791576383635 0.7918361446447673" stroke="#000000" stroke-width="1" fill="none"></path></g><g transform="translate(182 290.9333333333334) rotate(0 46.496477882936574 0.3208988514076907)"><path d="M62.81400502397965 -7.991811702257317 C70.50900585428168 -6.238218104994099, 77.83799195901553 -2.5749130419190394, 92.07952590504661 0.6749625050090255 M64.56991437468032 -8.491544029904825 C71.0441206340725 -6.577745856394576, 75.3693515987454 -5.254046996149677, 93.11791576383635 0.7918361446447673" stroke="#000000" stroke-width="1" fill="none"></path></g></g><g transform="translate(278 264.9333333333334) rotate(0 63 25)"><path d="M-0.3615494053810835 -0.35134715028107166 C39.5619313498959 -0.6189606363512575, 79.60379169806839 1.038349909093231, 126.76068571396172 -0.9399013537913561 M-0.7738875756040215 -0.32716198172420263 C24.901012356951835 -0.18494517141953115, 49.690596394427125 -2.053554152790457, 125.39239230658859 0.16903133783489466 M125.28029278106987 -0.9871649760752916 C126.30303579056635 12.280488484539092, 126.76727389777079 25.076704490929842, 126.73056325502694 51.01888340525329 M126.91352215316147 0.6278552571311593 C125.24882137635723 10.419791704043746, 126.33600631216541 23.22596555482596, 125.62920904066414 49.549601898528636 M127.60971316881478 48.46437185816467 C79.39509263206273 52.28442531162873, 28.762352664768684 50.18406450087205, 0.8434022981673479 49.87233483605087 M125.66404890920967 49.304896459914744 C79.56532917246221 49.97540631057694, 30.957941489852956 49.60571967722848, -0.002162129618227482 49.631841198541224 M1.0698880273848772 50.56496989540756 C-0.3930241079069674 31.739550176076587, -0.6798426718451083 12.688176400959485, 0.0599572379142046 -1.8041686434298754 M-0.927977473475039 49.599377886392176 C0.029765694867819548 36.8127747438848, 0.3113571400754154 25.074893868528306, -0.9943054327741265 -0.11754543986171484" stroke="#000000" stroke-width="1" fill="none"></path></g><g transform="translate(294 279.4333333333334) rotate(0 47 10.5)"><text x="47" y="16" font-family="Helvetica, Segoe UI Emoji" font-size="20px" fill="#000000" text-anchor="middle" style="white-space: pre;" direction="ltr">Encryption</text></g><g transform="translate(304 162.9333333333334) rotate(0 31 20.5)"><text x="0" y="15.5" font-family="Helvetica, Segoe UI Emoji" font-size="20px" fill="#000000" text-anchor="start" style="white-space: pre;" direction="ltr">Private</text><text x="0" y="36" font-family="Helvetica, Segoe UI Emoji" font-size="20px" fill="#000000" text-anchor="start" style="white-space: pre;" direction="ltr">Key</text></g><g><g transform="translate(338 214.9333333333334) rotate(0 1.5182039155531584 22.687597190421087)"><path d="M0.9634202230721713 0.457587916776538 C1.4290947624792658 7.966612969959776, 3.011321845526497 37.38347207618257, 3.0263307202607397 44.81019770614803 M0.010077110845595705 -0.3477823722548783 C0.3872094946292541 7.282848582050454, 2.0436469454752904 38.028371704400826, 2.617108884770423 45.72297675309703" stroke="#000000" stroke-width="1" fill="none"></path></g><g transform="translate(338 214.9333333333334) rotate(0 1.5182039155531584 22.687597190421087)"><path d="M-5.829734281097324 26.334113279677155 C-5.677163839319006 29.71032432431549, -2.38980925127908 37.79883856595069, 3.8334533921815455 43.88869399538264 M-6.6236130478054 25.01216551414055 C-3.101906869834806 32.67448830508272, -0.5954547404907311 39.676926048912335, 3.5732720219902694 46.6737734922953" stroke="#000000" stroke-width="1" fill="none"></path></g><g transform="translate(338 214.9333333333334) rotate(0 1.5182039155531584 22.687597190421087)"><path d="M9.887319332804376 25.350692722833443 C5.018540126225407 29.16715035809792, 3.2865442993619807 37.56972679620307, 3.8334533921815455 43.88869399538264 M9.0934405660963 24.028744957296837 C6.841679657284441 32.190860423944095, 3.5823288069635346 39.554066115520484, 3.5732720219902694 46.6737734922953" stroke="#000000" stroke-width="1" fill="none"></path></g></g><g transform="translate(485 254.9333333333334) rotate(0 69.5 35.5)"><path d="M0 0 C0 0, 0 0, 0 0 M0 0 C0 0, 0 0, 0 0 M-0.7344220280321199 6.294423148830526 C1.0255687346037226 3.7201205178044563, 3.457472130936452 2.256915291645937, 5.344507056804842 0.8394934657809558 M-0.09990439523475947 6.29507591021537 C0.8271106401963023 4.790383189767721, 2.5790983316909664 3.4628241886277653, 5.001922898697203 0.7595974519697252 M0.8801961683760959 12.129422276138841 C2.6297409260309914 10.363807800106853, 6.707846672437466 5.82119561725061, 10.845892777991427 0.988897321660795 M-0.5445376156736533 11.604932410686791 C2.882386590264174 9.3830497772578, 5.183743590988714 7.180986116547956, 9.85328124831332 0.23774822979120214 M0.051811619610500514 17.159007099364572 C4.640611661964953 11.605755539631513, 9.933752411437695 3.467958081537974, 16.992881098299698 -1.5985386383789582 M0.15745676676274556 18.755905285385126 C4.709747915338485 13.57075001097818, 7.6562408359651695 9.056276873937186, 16.486851251221672 -0.1652869417401952 M1.6292640065959851 24.1632195820055 C4.384341833254819 17.934145111564213, 11.914654743603844 11.932366286788318, 19.921010993698502 0.9188986154436627 M0.7002269096858065 24.613514630771338 C5.028187053358423 19.59923693768013, 10.042602944487715 12.852612379956756, 20.801743795441354 0.7719715446397224 M1.73310861275991 32.02634200802838 C7.688115603503418 19.744239631661163, 16.456524227779646 10.585491311961107, 25.073103909056993 1.7353703243669845 M-0.6891783475364228 29.812481543746046 C7.425467203207725 22.869677439875193, 13.769042012165368 13.992200316452394, 25.944562257875116 -0.09867387600124111 M-1.9827317633759733 35.87568384017919 C10.573683165865267 24.691546617128296, 19.835873861771347 9.897545369978737, 30.026719796887434 0.4871482459142147 M-0.7252138919290658 37.520856453852105 C6.909647796926446 29.13613170675304, 14.304659868531184 21.35579247778374, 31.39499671798835 0.5824067081569968 M1.2001188017100972 41.055351416203905 C12.183592870485958 26.051813088000358, 25.87233399906893 12.463759487202175, 38.61213561874007 -0.7663606665003542 M-0.3576861730172354 42.251416353132356 C9.97217565602108 30.632434297695163, 20.173358568005035 19.57241049205913, 37.36689957678442 0.4446580923256036 M0.40881226956835803 47.07787668951683 C15.969236352249641 29.34445867959501, 29.456796987682537 13.236576883017015, 43.47331757712715 0.10720909464648543 M-0.8961802897975701 49.782043536797985 C10.752529335255671 35.50082345452275, 22.284690768210517 22.564881921037735, 42.9005077887287 0.005913313324661829 M1.0841898427110692 54.02875016764115 C14.864546478346181 38.62151343966593, 27.290037622837982 24.916563800663866, 48.13194888359892 1.0383582327690277 M-0.573896787804685 54.52900854166906 C14.640948432714032 38.19310589356974, 29.293357189288013 19.373811551735123, 48.45772062982458 0.3663202913653407 M-0.9551902673115293 62.29159755399118 C19.691029775266156 39.89921388453598, 34.22858900520449 18.74542608118273, 53.54840199066764 1.4055460053904731 M0.04762610896478492 61.24089678795676 C16.463275039456786 41.5935055037707, 33.86793842471033 20.138714567237095, 54.01432192953742 -0.1730848117322843 M-1.6081396369776897 66.95271268631289 C19.772332788935042 44.00486319568833, 41.65384310606225 18.447034486659525, 56.18576635988356 1.7603668659251248 M-0.4853242990142874 66.37189151770393 C21.157462417356584 43.258773728611054, 42.65401197436801 17.80547447375652, 57.6552578388706 -0.4164509507570351 M1.5095423112248625 72.99797669712949 C21.19310415583558 48.01133314625684, 41.05337432742291 24.832503751144245, 62.57082069375892 1.4773738218961832 M0.012996755223497303 71.24744295523065 C21.985142972902587 46.87431182861053, 43.284281924696074 22.317877684378267, 63.66685906228949 0.34546116111116376 M7.689686366779924 73.49093885329586 C26.925750907684396 49.21589054573923, 50.323809148930884 23.576423800378848, 67.35806070384398 -1.5207449232820593 M5.523659563115061 71.2110991466887 C23.916288597357106 50.31997824339359, 43.767335701127465 28.72391920396735, 69.13211862579747 0.029205694083479727 M9.947309067294658 71.33566983956293 C27.330096694650642 54.980338967498575, 43.88968076820133 33.60022359149532, 75.89067134265098 -1.1133426120863916 M11.169865476720691 71.35610924362585 C35.534827256538925 44.440807702204836, 59.91304856812687 17.747100520392614, 74.02291410885992 0.3772250599799989 M15.422470365281356 73.6059414134539 C40.524643316740395 44.628367276398535, 64.5956800884287 17.00950602030614, 78.26455457173017 0.7433627088974788 M17.150054575505806 71.82335315786221 C36.21594286934649 50.17317757951399, 54.42979084202756 29.169836728448836, 79.79528541248021 0.6517765540118887 M23.507947222290234 71.7986605283831 C48.26434039057733 44.06986054831399, 68.95947531247607 16.256438836021886, 83.88930159359381 -0.3338884528072441 M21.396829260473744 72.02352568460896 C40.02931543301027 51.622686751629715, 57.26459880902928 30.63475753698851, 85.48165699112371 0.2535057129992282 M28.410205840833562 71.48369269187367 C47.04117184127402 52.59484685827928, 61.9436497060199 34.39482181183362, 91.55222061979214 0.5697796062137286 M27.669176486089903 71.25570986068612 C52.39534071456012 43.94409688367344, 75.85961506297102 15.352594048074543, 90.2861156207938 0.41537295715318123 M33.21342943246159 72.02903860733997 C54.845453041250096 45.03222235954914, 78.60834670646241 21.010486021568582, 95.97930910283745 -0.6827988565163778 M32.14774552835765 72.40130360630494 C48.290286698615894 55.48916485300461, 60.994071212971235 38.3218472568379, 95.67663263095588 -1.1787730517061519 M36.440490449686564 72.25065753230517 C54.194098076669235 53.336971051867955, 65.97658715271528 37.070649465888636, 101.89928150427991 -1.5556543875832958 M37.52707021674237 72.54259308328544 C51.72599458700323 55.90489292402229, 63.29703753088778 41.96102115710126, 99.98034167261326 -0.7002687683676285 M42.11697835405873 70.13764392018356 C65.5476874088661 47.110537525233696, 86.77348486771137 22.638333931969363, 106.60454152663183 0.8101410205362001 M43.61084670224743 72.6566793368388 C65.4043096603981 45.595843900881505, 89.61990261061217 20.0225477840118, 106.47576095023138 0.4429375939888516 M50.33217184809034 72.50205077849837 C69.11717206538881 51.589539830641996, 86.83026529522638 28.962628954849173, 110.01520988144345 1.3216505712563986 M49.4041556893382 72.23405165378513 C73.64166548296443 45.18581341704535, 96.18380785891006 16.64773116758439, 111.98807098981358 -0.6997872944255477 M55.30306664333164 70.70406631066388 C77.2076297231002 45.34335804913748, 101.38336117091185 15.792289220360274, 116.58403749223652 1.3386056023232769 M53.70874020401805 72.97251420433557 C76.51581230386526 46.03552857093514, 98.58505922707145 19.378223432501848, 116.32527784183475 0.7515210584320258 M59.9353476922949 70.3018372742033 C78.84354562277626 50.91443554023544, 99.4192132663576 26.067427103825906, 120.64072840753278 0.6250343264828047 M59.21522782575238 71.39575940031021 C79.54038741022481 49.31644776345087, 98.61632274115556 24.47441432394264, 122.15378599426975 -0.5721962928955833 M65.88741695653033 70.77664562253092 C88.88575331780203 44.61674134727875, 111.51789212668281 18.656972532635336, 125.73626271388247 -0.6991094278507006 M65.09840845554453 72.54729453692023 C82.42899143968884 52.27697539800811, 101.5533797240983 30.926320123522757, 127.87397128562196 0.6313570093028176 M72.13136563855024 71.18273186316993 C92.18555031531653 44.21471038064397, 116.47929832031596 15.118120012285573, 132.54780973879787 -1.7534132781540706 M71.10945654785992 72.60901515098568 C87.12101058256889 51.5169826466782, 102.56594543084466 32.63853234702268, 132.05634410785677 0.7091155643472717 M77.01700194990482 73.87247169953467 C95.26624759950265 48.43137661488636, 113.65879976899578 28.136546771855187, 138.94275581882923 0.8281703539870335 M76.17120887870189 72.59513166271778 C94.83041904598642 50.61644813550403, 115.0891502967655 27.18397487838555, 137.03682717447757 -0.2534211450510071 M80.83282334310636 70.14619938914831 C105.09892818278128 46.332696314553964, 126.01716386382702 18.896072197148285, 142.57149944451726 2.8112763417641133 M80.47038677753582 70.97074273393656 C95.900941514834 53.03722815074991, 110.35463041458095 36.23621289971029, 142.04080066547817 1.4505133460963577 M83.87004427970507 71.97738438542514 C99.8920632997466 56.958651017617456, 114.41039308837713 39.60016569664242, 140.21177417342167 6.312755593814202 M86.05287389536508 71.34576190985321 C109.08868370251294 47.07652356082362, 131.19439171932277 20.855993968193552, 142.05867514037143 8.069331225723275 M92.98356846221326 69.66245469588839 C103.76866217067403 54.75533833147718, 117.56429127511717 42.88574204754754, 140.9856798910358 14.695788832215023 M90.91593843665508 71.09349097728781 C107.60858743037633 53.429798987330905, 122.46157530239562 36.50267668923941, 141.5941727991038 13.256954182704341 M95.65601660218113 71.54597352395234 C109.41134624159949 55.490514780224096, 121.34156804294744 43.24819204661556, 141.11159252088135 19.804482394712515 M95.60351092740916 71.04454660645155 C105.04909538267827 61.56315048212211, 114.94393447654718 49.72443961742364, 140.9474871921501 20.276159209082373 M101.90263962313043 70.42517220736296 C114.48176137480866 56.30576868723571, 131.71602226788394 39.34283819324987, 141.18484111148013 25.38723949405265 M100.64234741810219 72.86014328938724 C110.62144921262204 61.722433890931335, 119.72263117917885 51.762813857136365, 142.0272103074853 25.390699859400215 M105.61564157358295 71.50157895886625 C114.68795597508839 62.36649688779386, 127.33021633970019 51.32641633185418, 141.52203074938234 33.04838895864976 M106.41760239670909 70.95247208063776 C115.0581948410966 63.50034203408944, 123.27488963246986 53.283440789084494, 141.22590548361268 32.785684991369074 M111.9085025400889 70.33264760687649 C121.72804402411207 63.33388198767632, 127.53613995856387 55.60862452474976, 142.06595576210023 38.65271817102702 M112.04840170173318 71.40507933791429 C120.33807706857571 62.34641024013682, 130.85812780495323 50.120344214740385, 141.85627061249764 38.940861704309 M117.02089185016054 73.23629053391687 C122.60236701446962 65.64192785051357, 127.15586535054652 58.274646661518425, 142.44962748618406 46.050649709598716 M117.82400572513986 72.34614966053687 C122.29245576420942 65.75794447561941, 128.08116604938715 60.11620191406112, 141.74641590764355 45.32454198093116 M124.38269584034813 71.01605531840173 C129.00936619123 63.766525965562124, 133.8201958027779 59.111942211909536, 141.9011874701556 51.48277428711086 M122.79908718043251 72.64243253121671 C129.67207595222914 64.50482294590556, 135.55326576924602 57.86553483618488, 141.67602710702533 50.76688562577843 M129.17499008816395 70.61094809285423 C133.4211877130613 67.88285196646034, 135.69995695543267 62.37036187179333, 142.5882303875366 57.53147949130941 M127.88595333457653 71.51781567427388 C133.08456448078596 65.51367330651205, 137.9758464071697 61.28584200894436, 142.25193838611784 56.380279005893655 M133.9752266399577 72.56889416871066 C135.8008388680982 69.24990031985486, 137.38512693896254 66.63296584967193, 142.2651458409436 64.29746918759334 M133.40868059750792 71.62487907574916 C135.62180643244994 70.70148211097195, 137.1425297620869 68.17792848926938, 141.5580928335719 63.34175034712093 M0.3168338301445317 71.27541944663616 C0.3168338301445317 71.27541944663616, 0.3168338301445317 71.27541944663616, 0.3168338301445317 71.27541944663616 M0.3168338301445317 71.27541944663616 C0.3168338301445317 71.27541944663616, 0.3168338301445317 71.27541944663616, 0.3168338301445317 71.27541944663616 M5.986171683556155 71.44219793725875 C3.6611192204885783 70.2761320521177, 3.21129366961293 67.6153746486906, 0.014478933261099836 65.70215168018058 M5.885248561463074 70.98217138212291 C3.785495581082607 69.62335394006165, 2.0647324177485 67.86588497434549, -0.12180479931705868 65.55009639989748 M11.940685053851315 69.78626400873645 C8.193955506747074 68.54265460582192, 2.4083189115718184 63.85794391260165, -0.7715221630473859 60.11310356245121 M12.582617062266776 70.88624223143442 C9.315027169742958 68.71663897019519, 7.479466786561188 66.5505577787826, -0.026339055045438764 61.2469099244543 M19.85360580526878 69.14311213941433 C9.641443865892384 64.60502508060787, 5.099930873768358 57.5581835487934, -0.81113538135018 55.74340256215335 M17.238626207528906 71.46294963789292 C11.793687938397587 65.84653114297393, 7.935872842170685 61.98005291297768, -0.09127393633302106 54.17521498543472 M25.77967991528977 71.49564551634366 C17.911178564902446 64.57912795121678, 8.907471901557502 58.16463562288707, 1.044579668065392 49.234424690435 M24.801341849732587 70.13888300561929 C15.821145054162832 62.88699443587924, 5.993939786439384 55.40389702767006, -0.00932060638270471 50.414276806356675 M31.3675753906672 69.62730601424468 C22.81018916568283 63.870737927609085, 11.543753860925303 56.49446325528742, -2.139553946604117 46.120670672416566 M30.43126387468773 70.93411816930515 C25.053256493914034 66.35129723516, 19.059534255044387 61.0727560608143, -1.001253530544325 45.020054294638214 M37.997165170709565 69.31483489709562 C26.499418784902385 62.133739590275894, 13.066887384482214 52.11326147103266, -0.5769564203819044 38.535730734047824 M37.21605941115595 70.5587154847256 C21.471686301777197 59.25568600064846, 7.939043331555457 47.33046865620561, -0.614690901887954 39.05457395552599 M42.25190406039363 70.64494739084626 C25.798185406927868 58.06830531449033, 10.738041720639856 41.48465639395423, 1.252066855817727 33.5182558603165 M43.33467276606714 70.97313895712728 C28.633063935499123 60.28483354086629, 16.024713972304454 48.13074745927893, -0.9951907968747697 34.1441027408046 M49.94836166880513 69.10941948048429 C34.18462456177234 59.081196676078726, 15.903156231290076 45.35097585242073, -0.04949806302842141 29.94793002717237 M48.618108362960164 70.45209303829478 C30.78094623983362 55.89144004354873, 14.669802057780224 42.123353750423405, -0.004824533574845802 28.383870280720693 M55.486399050920845 72.54106014195953 C37.63302700649629 54.952277432427195, 17.913471173756683 41.34777278737387, -1.5205503178346458 22.984497969603154 M55.43085738376492 71.48924485847478 C43.1247805672356 60.763292535985016, 33.32867595881193 51.02693914295734, 0.5838966865506467 22.745846652058873 M59.87870164604925 70.2087981392502 C42.403148992594154 54.93578750369012, 24.680226143416924 38.37189620677203, 1.5083023963758446 17.003737413558632 M61.231680707243015 71.86106102344237 C39.703462263939905 53.446222461785055, 18.97960833342232 33.88806648244709, -0.030551579568376397 18.983464610065788 M66.32740801849884 70.47335911133453 C42.27500448288957 49.750214833278754, 22.51271608436233 29.97146402944695, 0.6895671886887591 14.036486844026527 M67.68148764965606 71.25123470147267 C40.01169300874672 48.58212438698296, 14.20930233864749 25.214740736360696, 0.12736634160691906 12.039397356526038 M73.80073859824638 72.44294265916231 C49.862804353975555 53.52174175760898, 29.289461977017808 31.550937434664363, 2.0090426140808915 6.704617736956612 M72.75121470543395 70.87511271031234 C47.475323664814695 49.11215829748223, 21.301705303924578 26.124248217994165, 0.6916728820064519 7.950280771686272 M77.06252861937762 69.06830914272126 C48.36346198198724 46.449318399338345, 22.551284653359154 18.73426766426833, -0.9393579683620531 2.660062327336619 M78.28260848561555 71.54353231424597 C58.03426233732635 51.12516577758977, 37.937002011541786 32.63251276848299, -1.2390494098309475 2.254491182331095 M84.02240476186931 70.07875191296115 C60.71935224438458 50.87166733173967, 36.53983078561303 26.35680261339963, 1.9059894067822638 -1.167096100902673 M85.86965235963076 70.5675434560202 C54.89739715500408 42.48193106281755, 22.50184851804343 16.551765935271654, 1.289187933470184 -2.7910143483118377 M91.76531809002994 73.07718410886021 C72.72281220779409 54.115133262928445, 50.475749169236074 38.346207204528255, 7.103952249713409 -1.4735364178209918 M92.41934939374117 71.82224555391015 C64.18763519334883 47.11091964939138, 36.82726687506843 22.932795969038494, 7.646562236562538 -1.1468612235053794 M96.128172793168 71.1958157443967 C77.21488211240445 50.30780014684996, 55.81876296649824 33.844916442806756, 12.230755393403225 -2.799730908383138 M98.25960109170842 71.37121458869095 C73.71676619760984 48.87189880113499, 48.956389033804186 28.60156559859439, 13.670803459371083 -2.2395385739174554 M103.27645492626029 70.75183079552036 C72.7038245843061 44.002308281693104, 39.08229042116358 18.219141376632457, 21.53196301782851 -3.377323721639346 M104.2470861354624 72.09093019060921 C71.50413979158759 41.56939880842208, 37.65829623246282 14.024944513278108, 19.85042622132574 -0.8400277068014255 M107.73376534839247 72.34247399721897 C85.1707575715744 50.292728874128606, 62.43501782430119 30.730525481414517, 25.42375410707497 -3.970398247601885 M110.32804332354192 70.7346124364496 C77.93560432033966 43.7431038381622, 46.765801257435214 15.681602248312913, 26.357255258465344 -2.9363194828726833 M115.7319963645414 71.78102307544225 C94.83699139969556 51.14994546339223, 74.00442259318238 35.18682624411628, 33.8430990911194 -0.939504885320984 M116.41969821287697 71.83694408145868 C86.69937145194507 45.97577040452323, 58.59551472283792 21.33290489186927, 32.92785206521981 -0.8286920843845831 M123.2408646640155 73.19187554416845 C95.7023554253252 50.36217407771029, 70.11953641749294 27.560584694237882, 40.277292784270266 -3.146574245818403 M122.97104605722907 70.77790735641162 C101.96280352776199 53.975442612439195, 81.26797920564508 36.30193689183236, 38.42429783285073 -1.0658742180620102 M127.54454006112329 70.66622579237585 C100.10074687002361 45.49718075159838, 74.42089084032183 24.524684855931056, 43.34058312583606 -0.2992400651158995 M128.07073054785988 70.40721105458354 C109.41318875804612 56.05664110246408, 91.74175148098041 40.046689124174605, 44.94207219011973 -2.8206180281298465 M132.81827423584156 71.91774217101417 C104.88888405749228 43.691784578750756, 70.22639090217814 16.532943513910148, 50.35079992079358 -1.295162117263711 M133.55492255419932 70.66871761872105 C112.77062064913187 51.569568676784456, 89.715076053227 33.22156063863877, 50.91793194395672 -1.2652720093414551 M137.4032240920332 68.72159476108065 C114.56769822585237 46.9489131491455, 88.7060456740829 25.58856811674007, 55.35888777822851 -1.126939417274098 M139.81339348206342 70.00822090911826 C116.95521221391846 49.775537270390984, 94.4997787637396 30.951372230908817, 55.69069401790051 -2.507944209912221 M140.1377900783384 65.22619148958202 C108.2032746790028 39.44958475333392, 77.9644444513238 14.016501933465193, 62.49908275311766 0.0538620108026997 M138.65210359454545 65.65393231957879 C111.98143932420216 41.585762209067454, 84.67497000621964 18.151660024285086, 62.38266209388105 -1.6877799995955094 M137.97192157062508 60.857327448430084 C118.64054163356074 41.74065040024939, 94.56683722277953 20.727089515426933, 68.01844528476951 -1.9682040690550693 M140.43875739446648 59.489380096311294 C114.24568073856955 38.06136942842699, 89.72747881999518 15.23763159444816, 68.46040955065993 -1.9111252726161965 M140.4495540082017 52.852681401603064 C115.6553002962556 35.64726441145484, 95.49849622887874 17.548837338657357, 75.85348893749253 -1.8167870178691743 M139.11649076058808 54.55665584509089 C127.58232338844262 42.44158798497297, 114.39162564266604 31.058918188330672, 74.84265820449875 -1.6270993606991766 M138.56820469604497 50.50990607505073 C118.12853963104784 33.38000254607432, 97.86505905213804 13.81929238086456, 79.20680914126352 -0.8680622346898303 M140.59471674984013 50.27325482116421 C119.44438828210448 31.108243285460233, 97.47758297324665 11.956393268163566, 80.00815704982743 -1.0031679460977898 M138.80850574324072 44.281714953760805 C124.8227446140606 33.90674787060226, 115.53876689504906 21.780978177619613, 88.57661613016818 -0.15564435952932598 M139.30990853576154 43.49591272631586 C129.10860123415813 34.59574904058242, 117.93215916565718 25.183271740357995, 87.5564651976848 -1.8613062645274496 M138.48438070476564 38.71185451368308 C124.92870879957968 23.943512041139982, 109.19779354169376 11.48390605695015, 93.10691158418331 -1.4346150414378727 M139.10702605028214 38.4253279407925 C126.48044208912654 26.248544888294695, 111.80381765001339 13.870750819812635, 92.08937851750079 -2.7732768732414925 M139.01786793970552 32.874131989805264 C128.4581580007449 25.91125061495204, 119.3137042119551 14.985236193602677, 100.61702156761737 -0.08643614143725387 M139.04558934194085 33.01393929137872 C125.07869390571592 19.84807779462843, 110.9816909446068 8.886672761926395, 98.77171257553698 -0.996792853964827 M141.2892972530371 29.308387608077147 C133.31576881279634 21.487422745445393, 123.50331894908815 14.941192366781385, 103.17822526977888 -1.4632726455492033 M140.28110521766752 28.87064828332118 C129.45966394167618 19.37445649189287, 119.3977091015217 9.769765981629128, 105.43918137555501 -2.8510907259223117 M138.91211325384612 22.459522353486456 C130.67099410408898 14.35821479191972, 118.0844310773555 3.5977434214464736, 112.6903837456446 -3.232315577823968 M139.87114060100103 21.668596868404485 C129.01360958404203 14.331529431979073, 118.44747528124127 5.074695752231207, 111.70627609948477 -1.0925033588673188 M141.58305199710932 15.613470201982949 C131.36590703125933 12.372929657493163, 125.65466404775673 2.224365054028384, 118.91147285430023 -2.280695203273808 M139.65674917387125 17.049889676875267 C130.8082363708772 11.259041524990149, 123.10953537443825 3.4639741974947444, 117.52704804586509 -1.8506231760152332 M140.3569643419125 13.33622588855436 C135.49645463248225 9.388587856770787, 133.51998377769607 5.525137342422743, 124.80775990072259 -1.7795087959489564 M140.06854473481707 11.033371785518135 C134.1475394728679 7.77667827025282, 127.11941451012966 2.077469903734846, 124.0765352716259 -2.723579922119413 M139.24717569059857 6.598110105095319 C136.27173711766147 5.348421088679831, 135.0164024587877 1.002466564288441, 129.04437068822705 -1.9110166144755576 M139.254413601497 7.579307081874346 C135.90996721602005 3.3956215072018407, 132.69475819568888 0.19794478365329937, 130.16770650982767 -1.6675721304223785 M139.3002478934795 1.0463750634374518 C138.2541389167572 0.3639223911974442, 136.5299588859759 -0.831493630715242, 135.4719254248808 -2.2570671429822657 M139.40143921975684 1.152885796458875 C138.4039958099766 0.545326287798551, 137.00635550250257 -0.6027619681760357, 135.6773722560643 -2.133079083865738" stroke="#868e96" stroke-width="0.5" fill="none"></path><path d="M-1.651593653485179 -0.0772473830729723 C41.588908220175654 -0.990717361839488, 83.16904212813824 -0.17875708189792916, 139.50904211588204 -0.028024258092045784 M-0.5958249280229211 0.9348994055762887 C36.95441816309467 -0.7991345219966024, 72.77971523217857 0.727023304188624, 138.09371983911842 0.950354085303843 M138.40522083826363 1.4150838237255812 C138.06942056714558 24.94144904660061, 136.76343887149358 49.047585311345756, 138.02725377865136 71.56714927963912 M138.06779920961708 -0.2643525740131736 C138.42194761862046 24.95394822964445, 138.26956289042718 49.55394859537483, 138.15169116761535 70.28435196075588 M139.21412769146264 71.15779459290206 C84.94917667796835 69.78227940571495, 30.913139925338328 70.31276461851783, 0.8720817286521196 71.25712376646698 M138.58406063821167 71.19106711540371 C98.93247631741687 69.89245005904696, 61.43845329880713 69.4675180262234, 0.6807995429262519 71.8747365931049 M-0.9281811993569136 70.76532584242523 C0.5762124432716518 46.147842707019294, 0.6230559124145656 23.117332761920984, 0.9202959854155779 -0.39248800463974476 M0.8549063792452216 70.18583254609257 C-0.9149365293700248 56.493518241029236, -0.5410666036326438 40.6177789863199, -0.03517207596451044 0.20872111711651087" stroke="#000000" stroke-width="1" fill="none"></path></g><g transform="translate(511.5 269.9333333333334) rotate(0 43 20.5)"><text x="43" y="15.5" font-family="Helvetica, Segoe UI Emoji" font-size="20px" fill="#000000" text-anchor="middle" style="white-space: pre;" direction="ltr">Digital</text><text x="43" y="36" font-family="Helvetica, Segoe UI Emoji" font-size="20px" fill="#000000" text-anchor="middle" style="white-space: pre;" direction="ltr">Signature</text></g><g><g transform="translate(413 284.9333333333334) rotate(0 32.86497035559262 0.4529870115414383)"><path d="M-0.9403544951230287 -0.6518340837210417 C9.96549126220246 -0.8046155583113432, 53.19817131670813 -0.6390378486365079, 64.3169447015971 -0.562309206649661 M0.7668206655979155 1.620349076986313 C12.162714156707128 1.5917250764369966, 55.89609238902728 0.7790440690517427, 66.67029520630837 0.6799037110805513" stroke="#000000" stroke-width="1" fill="none"></path></g><g transform="translate(413 284.9333333333334) rotate(0 32.86497035559262 0.4529870115414383)"><path d="M37.54318795220918 10.205351042175359 C43.460355502597515 10.645125704924421, 49.87788537781188 7.696801676630212, 66.89132597617805 2.056196090653539 M38.58099173901594 12.031943991394407 C46.1109399094573 7.756884502983546, 51.90362205267075 5.432048603383725, 66.10276068601758 1.2210747542604805" stroke="#000000" stroke-width="1" fill="none"></path></g><g transform="translate(413 284.9333333333334) rotate(0 32.86497035559262 0.4529870115414383)"><path d="M37.24886421470056 -10.31374679187618 C43.28750079450515 -5.627854342371114, 49.76590344478693 -4.332366989322549, 66.89132597617805 2.056196090653539 M38.28666800150732 -8.487153842657133 C46.031074924327946 -7.624663916823373, 51.897477134160155 -4.810025603138659, 66.10276068601758 1.2210747542604805" stroke="#000000" stroke-width="1" fill="none"></path></g></g><g transform="translate(542 217.9333333333334) rotate(0 26 10.5)"><text x="0" y="16" font-family="Helvetica, Segoe UI Emoji" font-size="20px" fill="#000000" text-anchor="start" style="white-space: pre;" direction="ltr">~2GB</text></g><g transform="translate(762 121.93333333333338) rotate(0 84 35)"><path d="M-1.6738833207637072 -0.021776584908366203 C66.07526687569917 2.6279507258534434, 128.66901965700092 -0.09492397516965867, 166.27873259596527 0.7011398393660784 M-0.12393270339816809 -0.35552573297172785 C56.875306457467374 -1.0136763816699383, 112.1750989401713 -1.0499607985839245, 167.7740846136585 0.8383859088644385 M167.12812119536102 1.5382212717086077 C167.28875821577384 18.213266336359087, 167.29155826317145 36.457801833748825, 168.3572854977101 68.52825996465981 M168.6186888674274 0.730319588445127 C167.17175364205613 26.320095382630825, 167.09011670658364 54.35222251806408, 167.83517332468182 69.6515557160601 M168.62471914105117 69.81765768118203 C111.62163339294493 69.32298980340362, 59.09144612811505 69.06280354842544, 0.705321965739131 68.59660819359124 M168.53313298616558 70.86237519886345 C109.9706764595583 69.72002941954881, 53.239351868070656 70.47928676594049, 0.8358152965083718 69.6401777556166 M-0.05792981572449207 69.66986516304314 C0.25355396745726466 54.157477538101375, -1.1321767163462937 41.40855007246137, 0.2751735430210829 -1.0979048293083906 M0.5294643500819802 69.7736428072676 C0.20998552320525044 51.693901812657714, 1.0520756232552229 34.59917573351412, 0.8511142889037728 0.13783967401832342" stroke="#000000" stroke-width="1" fill="none"></path></g><g transform="translate(800.5 146.4333333333334) rotate(0 45.5 10.5)"><text x="45.5" y="16" font-family="Helvetica, Segoe UI Emoji" font-size="20px" fill="#000000" text-anchor="middle" style="white-space: pre;" direction="ltr">Document</text></g><g transform="translate(823 81.93333333333338) rotate(0 20 10.5)"><text x="0" y="16" font-family="Helvetica, Segoe UI Emoji" font-size="20px" fill="#000000" text-anchor="start" style="white-space: pre;" direction="ltr">2GB</text></g><g transform="translate(777.5 246.9333333333334) rotate(0 69.5 35.5)"><path d="M0 0 C0 0, 0 0, 0 0 M0 0 C0 0, 0 0, 0 0 M-0.13781353231983962 6.783119676311605 C2.1871579743633234 4.641771446322997, 2.9406410005920676 1.8195145632037144, 5.706885511013216 0.40985655820344113 M-0.24131739248054807 6.548285858755104 C1.329916811135731 4.8805389766049885, 2.471094218333184 3.108666878615339, 4.711767988609618 0.29193261413250593 M-0.8886748528946558 12.556354515671313 C4.451827344853608 8.16342883150735, 9.35345069280013 2.1798795537397133, 10.178385892462861 0.5640259723260779 M0.3217712164949258 11.598570020168602 C5.080540317128826 7.529983821971958, 7.944332230611272 3.006378946216418, 10.125475395423305 0.12142337589410734 M-1.29706783690958 17.39876141855555 C4.453481516253852 12.834475039108897, 7.721827723708552 8.810446127310296, 16.63533083489485 -0.9073034537094635 M0.8406407348299147 18.72922785570907 C6.9264125371258825 11.761428270485393, 12.651819806738553 4.94242414353503, 15.386681413746851 -0.4635116889211339 M0.26600695608176395 22.38213421003437 C6.54685959741773 18.207054051893415, 13.128134649008523 10.596401060064299, 23.191050909737015 1.015685710513548 M-0.22545867485932902 24.84466305253571 C5.257149821923371 18.61436184161242, 9.89134862119024 14.482328495401045, 22.194572081135476 -0.013849714382036638 M1.4124808041890482 31.00139448395764 C7.502514339175816 21.422396852994186, 13.144169242305976 16.107735884261665, 27.430084590476365 -0.45015688110023966 M-0.493447840162613 29.9198029849196 C11.181241034557718 18.273268419993734, 21.511149072688177 6.46455617441865, 25.515752436269434 0.8224273961049295 M1.1048702559340242 37.51275795307134 C11.23597760196674 23.629116805646134, 26.47037472460431 7.513751302132128, 30.613585579625166 1.0853467789723812 M0.5741714768949393 36.15199495740359 C5.742489157534395 28.77231211685814, 12.839339910898895 21.048286490435917, 31.89436568361411 -0.37825357064015286 M-1.2548550151615459 41.01423720512145 C15.446420445503609 25.30520280922847, 25.063505336681274 12.316241720068863, 35.63042458873366 1.060509894145703 M0.5920459517882151 42.77081283703052 C11.475233898436361 29.42595946260252, 23.206383191232362 16.250855607842897, 35.92121734917288 -0.08215094440611637 M-0.48094929754742566 49.39727044352226 C8.56314682912834 37.050465570081805, 18.07109788317376 27.39656124767951, 41.5581615703141 1.6116042219429332 M0.1275436105205756 47.95843579401158 C8.2244105270857 39.39495331270786, 16.613953330040864 28.5141797200649, 42.32599751241111 -0.17963481337287845 M0.3010223612886449 53.75125442579697 C9.506545263524073 43.77850166781429, 22.060067044991836 28.068151642099966, 45.72707348591673 -0.7019632842216339 M0.13691703255740606 54.22293124016683 C17.84648945746152 35.67995695155864, 34.29455787251105 15.884074125249505, 46.57255857433218 -0.2912603823292699 M-0.2817880771030943 60.088721105359895 C15.244962549730289 39.772801245594266, 31.825696153846692 19.9025695206781, 54.28112653805381 -1.2478271168247979 M0.5605811189020713 60.09218147070746 C15.187965822774359 42.67104141859906, 31.440928503489147 25.424663027036893, 52.95113748940146 -1.1491946144552152 M0.05540156079910474 67.749870569957 C19.617065223446836 41.927019158372815, 42.20826085908138 15.623042402140165, 56.24200393827559 0.40451342754774444 M-0.24072370497055573 67.48716660267631 C19.532435494581378 43.812516564141525, 41.09768176950466 20.492670223348867, 57.173633533622336 1.0967104104604637 M1.2553856025075163 72.59949020211148 C20.449007910898576 51.112391379925164, 39.39110776981061 27.361561192433868, 62.070078139094306 -1.8664823935808066 M1.0457004529049243 72.88763373539346 C23.85663809270459 44.9018906358627, 48.33782614889975 17.052189201843305, 64.46583053646017 -0.5025091457621578 M7.543588587505937 73.20503551867824 C23.985141345988687 51.59277798417415, 43.8594459823359 29.662011692820194, 69.72843860206022 -1.0092201267961585 M6.840377008965433 72.47892779001069 C25.013502752099328 50.060880842028176, 42.711912799219334 30.978891131133295, 68.16267464891835 -0.0010022379119121183 M12.24362080340153 72.5994834544082 C28.8223669772216 54.74983348062173, 41.61290290338385 35.9452580401725, 75.24386402968558 0.8508532354248999 M12.018460440271259 71.88359479307577 C28.415892375092064 53.26082748386658, 45.23207070896895 34.38299409217817, 73.80049657546225 0.06047042083128673 M18.179135952706588 72.61051201682457 C41.80730875583477 46.16672246129309, 63.29039901810427 17.970232230242956, 78.77085013352064 0.13642589649666093 M17.84284395128782 71.45931153140882 C30.311431857922347 55.272065891917826, 44.65691625657226 40.71214246437967, 79.71228934209523 0.34846300067860625 M23.801504746971325 74.11393440934165 C36.93861316286798 51.89694008103228, 56.27450995604292 34.83983439481865, 83.15258186607764 1.4681446139423286 M22.623083068018452 72.52106967522099 C44.65632371260571 45.14344527777984, 69.21897886630533 17.384591880426655, 85.11993052828268 -0.6445820865498746 M25.750787138708013 70.68352238948262 C47.691565193738484 49.201170619240855, 66.61430140185468 25.56904141088547, 91.98496118890682 1.389791341176192 M27.807617869928556 71.95974913633233 C48.321574991339986 48.25405506875598, 69.37983625321651 23.532330018265682, 90.72946003502796 -0.9064075456429919 M32.9197600894669 72.31618291066181 C56.87979299673085 44.75742260672618, 79.67048030326868 16.42326242288712, 96.17757930452049 -1.9818934142785238 M32.5790507580215 71.93604470995407 C58.470324908215865 43.507717065136966, 82.93516054725494 14.126004548402179, 94.82330231679649 -0.2863678397806453 M37.01488980176023 71.0817814804024 C59.86004533623 46.19760309517027, 82.59891932171232 20.172093945998014, 100.01774442446882 -1.2320339490075511 M37.94636868676267 72.49903943290626 C56.39070127783084 52.42353129170165, 72.71505525314454 32.29996663531292, 99.85554414959157 -0.8015025487516922 M42.62035948713826 72.84831880211868 C60.94456667047236 52.34323886421127, 79.59544508530408 30.16451199688428, 107.7314540012641 -1.9977960054876647 M43.34022093215542 71.28013122540005 C59.73611461952089 52.43254933365815, 76.49596042206696 33.44834517065462, 106.54415686287862 -0.01796301073603246 M49.75904159811323 70.93175413333388 C68.79942306978413 52.54965000819709, 84.69079111813951 30.968620533602497, 109.54742249645658 0.7567898696954245 M48.70514132366513 72.11160624925556 C65.75173962143573 53.78769310112514, 81.25958352578078 34.42047800930014, 110.46627410766102 0.642914319477498 M51.95652559623539 73.82118192746228 C73.42754820047556 45.88675163504724, 96.18198595095802 22.59295745895345, 115.601994583568 1.1453612642876934 M53.09482601229518 72.72056554968393 C76.25157904753226 45.483324412310694, 99.48975718792386 20.358601365809747, 115.49435505941364 1.277890808931751 M58.802090184017004 70.82865519202709 C83.54251819010659 46.913092842320225, 105.38988096191044 21.46576063236575, 121.28346806112012 -1.6891473589648882 M58.764355702510954 71.34749841350525 C81.00913816356112 47.24872213112738, 100.23049317691638 24.33685724259687, 121.67175733111134 -0.5777956128304282 M66.0127310730083 71.8143621304426 C86.9086802115404 48.410473564300446, 109.1852262019447 22.053466441818543, 126.57641676566317 -1.6228759216480029 M63.7654734203158 72.4402090109307 C86.41825449304679 47.67429681975692, 107.34860522480238 24.57754080868387, 126.08830988625749 0.9699482869021523 M69.99413321572156 72.836449500232 C96.55643071496416 43.34283825333762, 121.0446661882527 14.15320537756233, 131.96660377470943 -1.1465057912384822 M70.03880674517514 71.27238975378033 C87.35907041847389 52.15026804411514, 104.45256350879414 32.245890792855, 133.3164762418175 0.5473539824495361 M73.90469857370701 71.87619925480963 C90.70420899465756 50.03391643881081, 109.30121352365165 32.69993766057516, 138.50500917480915 -1.6400831393219875 M76.0091455780923 71.63754793726535 C91.44128593737756 52.830292390374694, 107.38866929327429 33.85986990039608, 137.00663223629473 0.206717831522937 M82.2165183494769 70.48785190169866 C100.70478438332916 51.05314271750029, 119.34947872349818 27.136810262525856, 142.40062520650304 2.540933157292983 M80.67766437353268 72.46757909820582 C102.3770286874119 47.270282305950886, 123.06704131174482 21.715837871192193, 141.01111117468304 1.3091031741107315 M86.77940075458147 73.52378314431338 C101.14634670941602 57.005903221859896, 113.70215351124293 41.4817697346824, 142.3647791773508 6.017300257243463 M86.21719990749963 71.5266936568129 C103.48871766772012 52.4421191878764, 120.91047339272941 33.92493261003508, 142.25977674149524 7.444719073146828 M93.38184324153302 70.78432724017702 C112.07139939831717 48.38050059596432, 131.03621353461463 24.697027834359197, 140.8281647228458 15.281105132607173 M92.06447350945858 72.02999027490668 C110.94689174550189 48.87557123026261, 129.0744294104964 25.756346017823837, 140.5083042616778 13.296784092505824 M95.81506027188175 72.74295364270387 C111.5116238110263 52.16716900997962, 126.988872424027 34.134989308663776, 142.6927515165097 19.930360371130057 M95.51536883041285 72.33738249769834 C106.1766961528072 60.46016178908485, 116.27437577406619 48.480852928072736, 140.62134041070556 20.844872099230535 M101.77789651914941 72.95079993963988 C118.28264333210892 53.77536548101218, 131.95069622950388 37.48054719466535, 140.61246235686434 28.092375435558083 M101.16109504583733 71.32688169223071 C109.37682989545353 62.11844137706141, 118.89028068692977 52.24322061748387, 142.38443030155344 26.757033522863807 M106.22114978185779 71.98830059373105 C118.17822598032069 59.37851005540143, 127.40187286843165 49.35302460491111, 142.3374960804599 32.37538540430558 M106.76375976870692 72.31497578804667 C116.88777553321583 60.58315849574819, 126.9257789782574 47.632796279553986, 141.37959039772477 33.310174096116846 M110.6918938965571 71.41681568339169 C118.16138558413267 64.14615331564663, 123.22460723020123 58.83517846313211, 142.61924076480867 38.27308390989573 M112.13194196252496 71.97700801785737 C120.51191725544386 64.74211201673518, 127.17678223375195 55.044912807229124, 141.42147171618493 38.7633377933097 M119.2383919407596 70.18316384114496 C127.02723190241888 62.521372269750245, 132.96962782946116 56.063536134130764, 143.27430149646085 45.88979978074282 M117.55685514425683 72.72045985598288 C122.27339561798674 66.2355840954595, 126.95790724361137 59.91087973797437, 142.15263759543728 44.05163347215354 M122.47412400101555 70.3447988954052 C129.6782259641097 65.5359530899312, 132.86976997147815 61.596439600954675, 141.08941357393826 50.34502997959285 M123.40762515240593 71.3788776601344 C128.72302396594847 65.23364859985585, 135.6007430174763 57.358024970742946, 141.47972689845676 51.15951781219124 M130.13875940483723 72.7196332286956 C132.1556061914689 67.2552403537051, 134.6775364893316 66.37527999140154, 143.16576542076263 55.7250683441918 M129.22351237893764 72.830446029632 C132.22988483346802 67.33935354839375, 135.40944149047237 63.15346001816696, 142.44902692571821 56.041174055465646 M134.43609702512768 71.24325670895571 C135.62811201069536 69.53041259735078, 138.74100382088224 66.23721209776231, 140.64586257010774 63.074702669000494 M133.32430005427597 72.49167672560955 C136.16786713924932 69.09812131516827, 138.34184543970846 66.07986219453177, 141.16109746795223 62.778456520540885 M0.3168338301445317 71.27541944663616 C0.3168338301445317 71.27541944663616, 0.3168338301445317 71.27541944663616, 0.3168338301445317 71.27541944663616 M0.3168338301445317 71.27541944663616 C0.3168338301445317 71.27541944663616, 0.3168338301445317 71.27541944663616, 0.3168338301445317 71.27541944663616 M5.899055203682498 71.04259795595077 C3.7707341439620436 68.84525622141985, 2.2865488490658863 66.97426151762659, -0.44114493186646403 65.882558107564 M6.125908012947754 71.05455399911968 C4.500228537643107 69.53354904257843, 2.6864122857876938 67.88478704796204, -0.34790483879917555 65.87509055864228 M11.727996893908688 71.91609541819079 C8.290250136263248 67.43005379920483, 3.928880217764138 66.09821385288414, 0.17984912525217434 60.556561070538365 M11.993441885646291 70.8112915840803 C9.594093916043493 68.02554781890241, 5.136551297838397 65.35534530853599, 0.3387109270254839 60.17459446997127 M17.956058441033857 72.63429315538265 C12.974533491355764 67.08371838783027, 5.465664413233901 58.3572960934583, 1.02507808815513 55.60378905297519 M17.839637781797247 70.89265114498444 C12.231543172311083 64.78258039547093, 6.7516130945232575 59.44725307075914, 0.2672773870808278 55.80614749533386 M23.475420972685704 70.61222707552487 C16.561876333191726 62.22839099155014, 5.62424451182607 56.72068555444254, -0.9698881673609385 48.85754082603223 M23.917385238576124 70.66930587196374 C16.638205878466234 63.63260395997815, 7.563330973369645 57.299846067487266, -0.5534010426124105 49.107539562227494 M32.06517420563149 71.41970315570128 C18.29738788518086 60.55185865735231, 10.080984226836247 52.51652345795675, 0.05620999897541168 45.842087741851685 M31.05434347263771 71.60939081287128 C23.919393902539234 64.05033183804971, 16.182473602319078 57.996116224443824, 0.3741167931136644 43.52094758944946 M34.66378482917972 71.71236890989012 C23.83499597712682 59.49253153698606, 9.081218996294723 47.98761631188907, 1.8235461421409838 41.194926276383335 M35.46513273774363 71.57726319848216 C25.557002709058764 60.774289125962774, 15.535221970783756 52.21188259735354, 0.44166582618898076 38.45019495724642 M44.78830139830714 73.08084581404114 C24.305871242378004 57.55284636711144, 8.250417453947115 42.68893196284861, -0.8395913787785254 35.0836136646149 M43.768150465823766 71.37518390904302 C26.915356575202054 57.30610727064214, 9.954472778591175 43.172348300509356, -0.24435889484763962 33.550845492402956 M48.5638872720995 71.14581610314207 C38.623697989757204 59.533413562486615, 26.94850709106175 51.02581589198746, -0.6466227588063145 30.14174013249616 M47.54635420541698 69.80715427133845 C32.3778735101682 58.17456704421573, 16.774021055273707 43.70599733673272, 0.018424436933729638 28.63492570016573 M56.07399725553358 72.4939950031427 C33.93803616811685 52.48217605185452, 11.724136792772377 32.040323606798246, -0.5778533888566795 23.907956665014837 M54.228688263453186 71.58363829061513 C42.024472196664256 60.33456430106945, 30.68835748906991 51.589591987616515, 0.3344577450719175 24.07870253231934 M59.38991053791784 71.77321752802126 C40.22661239163769 53.22980028291933, 18.41851757708575 36.75781469359557, 1.4697027860471703 17.761947238120705 M61.65086664369397 70.38539944764815 C41.88833161650085 54.010998550147164, 21.53841323653384 36.113327715157034, 0.09166971149683967 18.727405619110435 M68.1473594335608 69.34811556675598 C47.786666984572854 53.04828493981947, 25.81449341017347 34.315421459709505, -2.042853375009056 13.36345658680149 M67.16325178740097 71.48792778571263 C40.8495318431345 49.02679371114857, 14.848593514760914 26.739616258572262, -1.2324508652526696 12.303005037323615 M75.1231581224392 70.95579497029665 C46.304041476015165 45.48756962254862, 16.630190425390367 22.413137437983032, -0.9461295670485641 5.588262437006966 M73.73873331400405 71.38586699755523 C44.84262355002289 47.37208490991041, 18.32817558711035 23.02551085341822, 0.8105715717533086 7.308933542205528 M80.26473558863879 70.80092234863099 C54.68252397234285 50.33454721008599, 29.550759833073926 28.403065147420342, -2.087618680985649 2.9672032737248637 M79.5335109595421 69.85685122246053 C50.2974970764974 46.30322979238153, 21.733879020547874 19.69615701207912, -0.5537273039463956 1.437864335540781 M84.04031226213634 70.49169730270877 C56.16443589684975 42.082243711816645, 22.128309295769384 16.10244627189042, 3.527896998602027 -2.0657313691140375 M85.768521218445 70.8662272781752 C62.32577267001587 50.1640271062234, 37.53390669000869 30.659101121053872, 1.0680941000236812 -1.211448644442972 M91.46843295724032 70.13493922150822 C61.46831144531707 44.67514723044903, 33.32664102940017 19.91933231196689, 6.767878731914031 -0.07831411156946588 M92.29022028197436 70.63089145797433 C61.213414310018734 45.00342275306829, 30.72055910890301 17.86727265272247, 7.7981662333162305 -1.0703339260085838 M97.69459561325925 71.9917643690076 C74.15144241980454 52.160879384797994, 54.63932858236269 32.52027365729458, 14.892145101922207 -2.8571109886062214 M97.6784627788918 71.24371661763305 C63.67610494861508 42.036371565768775, 32.03623149437044 13.99651931799869, 13.53867218085622 -2.34848376482398 M103.56788003516989 70.13326297115665 C78.01283057932343 50.09153133439043, 55.22461478254382 29.56719861928947, 21.20485403860335 -1.254859899274539 M104.35438051612722 71.297979262398 C81.1374436964237 50.90560726064651, 57.7659376335565 31.951564014342665, 20.155079687073574 -0.9125825931425204 M109.67048083205793 71.53558601294316 C90.77337887590838 52.96714840000044, 68.10443386024892 36.03054165412857, 24.55577827604317 -2.0317379835866873 M109.14116541721944 70.95119634405381 C91.34392052007557 55.16057740403499, 72.81450312915612 37.83815244102877, 26.508666613007122 -2.1588243966795986 M115.66788405890023 69.01591747031682 C93.42358536842428 50.75834559084906, 67.80284406642556 29.59166949399807, 30.69048199421846 -0.9193893905928956 M116.14549616409843 71.82984749284708 C91.66974752187895 48.385105966708366, 65.77746712348015 27.005266995039534, 32.33794757808678 -2.1081904826885687 M122.33840015500519 70.32756110725592 C101.72506197358476 55.33504892600787, 83.79743023519015 37.1852613994647, 40.279853757437685 -3.525838481314924 M121.31832113552574 72.09321181455294 C99.68159660211207 52.39336152613443, 79.38550870278557 33.744370205810505, 37.81945689857415 -1.3426126828943161 M127.14979268468133 71.81561756273871 C106.69758256736336 48.35790528045711, 81.2970905896559 31.770529609582255, 42.49673525500934 -1.6798127417745299 M127.56273714776299 71.05779497744655 C99.94740944138881 47.01470674632084, 72.55201123836923 23.601742895005934, 43.675627328230846 -1.3805462665217227 M133.83590707790546 70.07266143771491 C103.47254022772731 47.943069264488756, 76.04537779617476 21.10964515226248, 50.592550041910215 0.22493430397804914 M134.84186819524012 70.82175629927448 C109.53579482203804 49.75738810814096, 84.7703591737669 28.80349091369363, 50.282668798986776 -2.0525428533241517 M139.67149398854048 68.37776906318179 C117.22719711093552 50.50324110261623, 95.01794601312912 30.36362509851265, 55.926836477226004 -1.6752901090694472 M138.98493880877317 69.67268651533088 C106.06361007365366 40.77900885566767, 72.94673271755812 11.450661690290367, 56.23135135938077 -2.437413616516988 M137.80354761522653 65.00825461614605 C118.4586786065387 49.01363099291617, 101.78207589324154 31.66117824036884, 63.31742436593352 -1.7781457549672588 M138.5498623764554 64.36809389441933 C115.48818063792802 42.96116685948805, 91.46222265580668 22.456444643232786, 63.20843181634275 -0.9575070508535966 M138.86561108383157 60.1438194385195 C123.38848837417504 47.44650207982288, 106.9785742804046 30.326280937547292, 69.06996789734123 0.07982738026286285 M139.96879652610787 60.00830355774852 C112.44234465303423 37.461615029504216, 84.81278158164787 13.611128474758232, 68.55743667363433 -2.314872175558854 M141.46021358366403 54.40104854428037 C124.75946081879003 41.09224193265371, 109.5689781522556 30.204911468899205, 76.5545743857576 -3.7211138144008515 M138.56183026149216 54.53970398609354 C125.61696444323648 42.36643574904137, 111.76293338213594 29.61121612073994, 74.38654087251709 -2.8668314473576544 M141.01846616970067 51.08150090937843 C127.48441129192008 39.19026667813079, 110.92192411219082 26.676457739250882, 81.78243301115945 -0.928238488008617 M138.92782976453816 49.97158730970104 C120.02916588674034 33.312717373250536, 102.37512357049154 15.421456165050905, 81.67644653242097 -1.001553673503338 M139.82959470102728 45.26679626880139 C127.39068979277664 33.40102826403562, 114.5594022975944 23.212209675294446, 85.43534775763247 -0.321255030572722 M139.50522133378476 43.43998610535562 C122.68124751752639 29.530092146642335, 107.2222418833725 15.589185115769347, 85.84116588938478 -3.074217214711318 M138.39111648262056 40.75458734849906 C127.62957318563127 26.84484811584948, 113.34161244198845 16.65685246434369, 94.21591405515346 -0.776338841143378 M139.4534180261618 39.11239562830394 C126.01694559170929 27.214311625469495, 111.5317421904758 14.895032352160882, 92.60944793783847 -2.5022877532349312 M140.6836636235663 34.49758763345913 C126.91677364014222 20.20978837975667, 111.65484283254575 8.244881588439029, 100.87705171803088 -0.1710455307423686 M138.45889301520822 32.59555158033059 C125.55456110243324 20.15544018820455, 110.4539871572029 9.043342900271057, 99.5855613690436 -1.701681495799086 M141.52115967884123 29.539543599631408 C130.15903277424994 19.414527896324092, 119.66987074191437 10.159133314942956, 105.79863368557325 -3.7286338353914275 M139.61660623285383 28.840152341682234 C128.16401567487128 18.77312914278139, 117.0184300929653 7.287806724682646, 104.35717331176183 -2.462338086628641 M139.8256430075311 23.454262482003607 C129.23264712549184 13.448351897467667, 124.35296802141562 8.709984572676248, 112.56411476275733 -2.3623885291408016 M139.23607772763754 22.54863673914347 C129.24387583420943 12.418633046046585, 118.38628263475013 4.4134961096106835, 111.60322807292303 -1.3237935204769684 M137.97744341461268 17.28158450652549 C134.16347146611784 12.94984349187713, 126.94482971597981 5.513924894928309, 117.99006455866882 -3.580533627002751 M139.7228143064892 18.07990627796093 C133.12289809421273 10.223312497341393, 124.07714815267114 4.426915015923466, 117.65473007606604 -2.511343345559453 M139.0900055091717 11.966410658184792 C136.6188104729141 8.336499865667871, 133.20482189625343 4.368598049036923, 123.47634412828454 -2.5502601530275086 M139.3843828929477 11.857102909919227 C135.40704023990958 7.5494870637201466, 129.3706832833965 2.6686239882261216, 123.3761705031208 -2.031320431629453 M138.83317298001776 5.873267658052855 C135.61149737825312 3.5305374128698856, 133.3259492750155 2.595563861283593, 129.33836720707737 -1.2050551903632387 M139.45182466481046 6.508744287069775 C136.79254612203107 4.228455825067101, 133.14342919683992 1.911924417281544, 130.43730356633574 -0.9480574296520011 M139.57351787462537 1.0616349551858801 C138.09448734414687 0.2544839450868252, 136.9237077909271 -0.7062593793192247, 135.8752603703211 -1.875915794629833 M139.28434716169428 1.502151058943426 C138.60765442231113 0.5030607779105079, 137.7229375792477 0.11865954788194921, 135.62425314798344 -1.7455452552495954" stroke="#868e96" stroke-width="0.5" fill="none"></path><path d="M1.5244864542037249 0.48563086800277233 C45.5036008306779 0.39336591931991305, 87.73775251489133 -1.4294584992248562, 137.94830200262368 1.4859686475247145 M0.2583814552053809 0.331224218942225 C50.51273598531262 -1.2297272955533116, 100.56979341916741 -0.1283341025467961, 138.94368618633598 -0.3240993758663535 M139.3085005003959 -0.3723453897982836 C137.8416638600733 15.859085959661751, 140.70458551525138 32.9833987025544, 139.51927474327385 72.91113257221878 M139.00582402851433 -0.8683195849880576 C137.94705249835738 21.901222026441246, 139.37278323342093 43.644931461662054, 139.2517967512831 71.48098118696362 M140.24145749397576 69.39469170384109 C103.20726081421599 72.17755198431202, 72.99707116875797 68.99683648300358, 1.5910581070929766 72.96588748507202 M138.3225176623091 70.25007732305676 C102.26665748907253 72.80297567008995, 63.868663793802256 71.31375263690018, -0.9847637424245477 71.46938942465931 M0.30364307947456837 72.15508931688964 C1.2342491395864634 51.12834579525515, -1.1806192748155446 30.446998315490774, 1.0990158636122942 -1.4052475709468126 M0.17486250307410955 71.7878858903423 C-0.29599368629045775 52.00398081718012, -0.31971630510874083 34.09396280609071, 0.3947407891973853 0.5326353469863534" stroke="#000000" stroke-width="1" fill="none"></path></g><g transform="translate(804 261.9333333333334) rotate(0 43 20.5)"><text x="43" y="15.5" font-family="Helvetica, Segoe UI Emoji" font-size="20px" fill="#000000" text-anchor="middle" style="white-space: pre;" direction="ltr">Digital</text><text x="43" y="36" font-family="Helvetica, Segoe UI Emoji" font-size="20px" fill="#000000" text-anchor="middle" style="white-space: pre;" direction="ltr">Signature</text></g><g transform="translate(817.5 209.9333333333334) rotate(0 26 10.5)"><text x="0" y="16" font-family="Helvetica, Segoe UI Emoji" font-size="20px" fill="#000000" text-anchor="start" style="white-space: pre;" direction="ltr">~2GB</text></g><g transform="translate(743 53.93333333333338) rotate(0 103.5 165.5)"><path d="M-0.9943665243630423 1.4581328715796247 C65.52798261237422 2.2316470002312223, 131.6665518972545 -0.3832527270736651, 207.9439315783974 1.5093520216473832 M0.2822473713766224 -0.4806994790568359 C51.41582736661333 -0.4625140945691386, 101.50169943012473 -1.8187961431859054, 207.52802321188827 -0.8553805420702226 M206.01125103952953 -0.6446068698795274 C204.35795218049108 106.25678659559178, 204.0978457678577 212.3133886792317, 206.62542203849466 331.84746977544324 M206.48669609217168 0.6736316198933698 C206.46450913834087 96.66625945414, 207.25434300586704 194.0745644921075, 207.27397401733322 331.1464642920398 M207.44495881958485 330.3584281800533 C139.97358481282012 331.0510904416185, 73.07841344433514 330.13637319032375, -0.6018699240932955 329.3093996925265 M207.21280581139075 330.97411204271873 C144.6300229401099 330.988663501287, 83.11419366781666 330.24397822679896, 0.7770831281734354 330.177020859904 M-1.3083179333799169 330.93776421803386 C2.246717279110727 200.7358462173965, 1.2804705112008663 71.56584719576759, -0.0567867033692643 -1.0256943377572492 M-0.2760449246793963 330.40575440086116 C-0.9944487665945098 253.82740073237505, -2.186283074237709 175.91647310984615, -0.31494104846348536 0.40450241909674184" stroke="#000000" stroke-width="1" fill="none"></path></g><g transform="translate(756 10) rotate(0 93 10)"><text x="0" y="15" font-family="Helvetica, Segoe UI Emoji" font-size="19.33333333333333px" fill="#000000" text-anchor="start" style="white-space: pre;" direction="ltr">Share this with others</text></g><g><g transform="translate(188 127.93333333333338) rotate(0 269.800012632208 -0.4230971921235209)"><path d="M-0.19335472695529465 0.17397514097392563 C89.9705380945156 -0.12230630405247206, 450.9889961549392 -0.799938266351819, 541.3540299523622 -1.0201695252209901 M-1.7540046879462898 -0.780291855353862 C88.25041057598467 -1.027753310818225, 450.0071002673296 -0.07632906796410668, 540.5918502137251 -0.018333274740725658" stroke="#000000" stroke-width="1" fill="none"></path></g><g transform="translate(188 127.93333333333338) rotate(0 269.800012632208 -0.4230971921235209)"><path d="M512.6737163218495 10.784626111766926 C519.9527639058929 8.522097344923898, 529.0744517422769 4.240421422946279, 542.1996348742582 1.3550153171084822 M512.1853069488716 10.77578309495621 C521.5332065717465 6.36045780034654, 532.394958068425 2.658913692383182, 540.0130007481389 0.3391134116239847" stroke="#000000" stroke-width="1" fill="none"></path></g><g transform="translate(188 127.93333333333338) rotate(0 269.800012632208 -0.4230971921235209)"><path d="M512.7084246383854 -9.736553135990807 C520.1055308257224 -5.208896757123154, 529.2157340474264 -2.7003316082478683, 542.1996348742582 1.3550153171084822 M512.2200152654075 -9.745396152801522 C521.6257013326408 -7.0709402668602985, 532.4754613191465 -3.6825429928722713, 540.0130007481389 0.3391134116239847" stroke="#000000" stroke-width="1" fill="none"></path></g></g><g><g transform="translate(637 288.9333333333334) rotate(0 47.6850049305707 -0.9269964206963834)"><path d="M-0.8717770468443632 0.05017177574336529 C15.34102489836514 -0.12046434966226419, 80.28486302979292 -1.4433555333564678, 96.24178690798581 -1.9041646171361208 M0.8714012742228805 -0.9690919873304665 C17.037902951855212 -0.849944330373158, 79.37079725148156 -0.18254040014619596, 95.42067957105115 -0.31642578991129966" stroke="#000000" stroke-width="1" fill="none"></path></g><g transform="translate(637 288.9333333333334) rotate(0 47.6850049305707 -0.9269964206963834)"><path d="M67.28866570589155 10.278609428713773 C73.47057644768762 6.0183583066371815, 78.15074636419462 4.307030346878838, 94.59520230064169 1.070254274811596 M66.27113263920903 8.939947596910153 C75.85199472735678 7.254697399774562, 84.86139687792176 3.0138639463489456, 95.26024949638173 -0.4365601575188336" stroke="#000000" stroke-width="1" fill="none"></path></g><g transform="translate(637 288.9333333333334) rotate(0 47.6850049305707 -0.9269964206963834)"><path d="M67.33854197046062 -10.242538559253964 C73.3592438568596 -10.116798987987167, 78.02875282473993 -7.4417739128801745, 94.59520230064169 1.070254274811596 M66.32100890377811 -11.581200391057584 C75.97365940561413 -6.6652257923489735, 84.96701784758416 -4.305017223135856, 95.26024949638173 -0.4365601575188336" stroke="#000000" stroke-width="1" fill="none"></path></g></g><g transform="translate(827 401.9333333333334) rotate(0 26 10.5)"><text x="0" y="16" font-family="Helvetica, Segoe UI Emoji" font-size="20px" fill="#000000" text-anchor="start" style="white-space: pre;" direction="ltr">~4GB</text></g></svg>