<svg version="1.1" xmlns="http://www.w3.org/2000/svg" viewBox="0 0 1057 444.9333333333334" width="2114" height="889.8666666666668">
  <!-- svg-source:excalidraw -->
  
  <defs>
    <style>
      @font-face {
        font-family: "Virgil";
        src: url("https://excalidraw.com/FG_Virgil.woff2");
      }
      @font-face {
        font-family: "Cascadia";
        src: url("https://excalidraw.com/Cascadia.woff2");
      }
    </style>
  </defs>
  <rect x="0" y="0" width="1057" height="444.9333333333334" fill="#ffffff"></rect><g transform="translate(10 110.93333333333338) rotate(0 84 35)"><path d="M1.0803204495459795 0.14842003397643566 C62.76190962009132 -3.5399728539586066, 124.11473482884468 -3.4522385719418525, 166.37936297245324 -1.7699567098170519 M-0.032234192825853825 0.023278103210031986 C36.78246758859605 -1.169978150166571, 74.50085493978114 -0.8909144783392546, 168.9330626418814 -0.13321374263614416 M167.06593170948327 -0.41045153327286243 C167.71523767514154 18.75464754458517, 167.00082206530496 35.674749597907066, 169.41383478231728 69.21877723746002 M167.49107298161834 -0.416104300878942 C168.9071497841738 26.75339321047068, 167.94294502576813 52.21160322334618, 168.7420439114794 69.20165102276951 M168.408188553527 69.66966730169952 C101.04878253899514 68.14235988751054, 36.98817603923379 68.49708101645112, -1.3451332729309797 71.07178234867752 M168.722455679439 69.65810220036656 C117.80298859011381 70.33780882310123, 68.01932376977055 72.1640126163885, -0.40071985218673944 70.85201509390026 M-1.8364514987915754 70.64970183186233 C1.848386895377189 49.87658989895135, -0.9503373387269676 34.31490183994174, 0.8014944512397051 0.9386557918041945 M0.16835310962051153 70.57295449171215 C-1.339487302582711 41.823967987671494, -0.40945645002648234 15.855210098437958, -0.6382035026326776 -0.7212755819782615" stroke="#000000" stroke-width="1" fill="none"></path></g><g transform="translate(48.5 135.4333333333334) rotate(0 45.5 10.5)"><text x="45.5" y="16" font-family="Helvetica, Segoe UI Emoji" font-size="20px" fill="#000000" text-anchor="middle" style="white-space: pre;" direction="ltr">Document</text></g><g transform="translate(11 287.9333333333334) rotate(0 84 35)"><path d="M0.10570678301155567 -1.4278772491961718 C46.03458542041481 0.15409033268690098, 93.81780556477607 3.104724394977093, 169.6800636369735 -1.6481796521693468 M0.8439466943964362 0.15088521037250757 C55.82807501237839 -1.674320868290961, 113.33136741574853 -1.7635967350378634, 168.99983343388885 0.9596872488036752 M166.17827788181603 -0.34836685843765736 C167.3532247404568 16.002381852827966, 165.64578239722178 30.495340570807457, 167.18772575445473 68.70989328436553 M168.80338820721954 0.3521506944671273 C168.71410266598687 26.224224127829075, 168.0915040477179 50.1718752970919, 167.63386505749077 70.30019013676792 M168.41950628347695 71.98780971579254 C111.13084669075906 73.15082542553544, 52.91784208156167 73.59012602224946, -0.7391652744263411 69.75303816609085 M167.3656806340441 70.76988594327122 C125.95971852671354 70.26460818719119, 84.75816220398991 71.55694509815424, -0.43751046154648066 70.93251068983227 M1.5577245075255632 70.91970276646316 C-1.0262191656045616 55.42973697651178, -0.1802748206071556 38.44465209171176, 1.7703011948615313 -1.791022839024663 M0.3263256838545203 70.06708534155041 C0.9069454547949135 43.61460738815367, 0.039422291237860896 17.026098283939056, 0.18179452326148748 -0.5965676447376609" stroke="#000000" stroke-width="1" fill="none"></path></g><g transform="translate(49.5 312.4333333333334) rotate(0 45.5 10.5)"><text x="45.5" y="16" font-family="Helvetica, Segoe UI Emoji" font-size="20px" fill="#000000" text-anchor="middle" style="white-space: pre;" direction="ltr">Document</text></g><g transform="translate(71 70.93333333333338) rotate(0 20 10.5)"><text x="0" y="16" font-family="Helvetica, Segoe UI Emoji" font-size="20px" fill="#000000" text-anchor="start" style="white-space: pre;" direction="ltr">2GB</text></g><g transform="translate(81 247.4333333333334) rotate(0 20 10.5)"><text x="0" y="16" font-family="Helvetica, Segoe UI Emoji" font-size="20px" fill="#000000" text-anchor="start" style="white-space: pre;" direction="ltr">2GB</text></g><g transform="translate(494 295.9333333333334) rotate(0 63 25)"><path d="M-0.3615494053810835 -0.35134715028107166 C39.5619313498959 -0.6189606363512575, 79.60379169806839 1.038349909093231, 126.76068571396172 -0.9399013537913561 M-0.7738875756040215 -0.32716198172420263 C24.901012356951835 -0.18494517141953115, 49.690596394427125 -2.053554152790457, 125.39239230658859 0.16903133783489466 M125.28029278106987 -0.9871649760752916 C126.30303579056635 12.280488484539092, 126.76727389777079 25.076704490929842, 126.73056325502694 51.01888340525329 M126.91352215316147 0.6278552571311593 C125.24882137635723 10.419791704043746, 126.33600631216541 23.22596555482596, 125.62920904066414 49.549601898528636 M127.60971316881478 48.46437185816467 C79.39509263206273 52.28442531162873, 28.762352664768684 50.18406450087205, 0.8434022981673479 49.87233483605087 M125.66404890920967 49.304896459914744 C79.56532917246221 49.97540631057694, 30.957941489852956 49.60571967722848, -0.002162129618227482 49.631841198541224 M1.0698880273848772 50.56496989540756 C-0.3930241079069674 31.739550176076587, -0.6798426718451083 12.688176400959485, 0.0599572379142046 -1.8041686434298754 M-0.927977473475039 49.599377886392176 C0.029765694867819548 36.8127747438848, 0.3113571400754154 25.074893868528306, -0.9943054327741265 -0.11754543986171484" stroke="#000000" stroke-width="1" fill="none"></path></g><g transform="translate(510 310.4333333333334) rotate(0 47 10.5)"><text x="47" y="16" font-family="Helvetica, Segoe UI Emoji" font-size="20px" fill="#000000" text-anchor="middle" style="white-space: pre;" direction="ltr">Encryption</text></g><g transform="translate(520 193.9333333333334) rotate(0 31 20.5)"><text x="0" y="15.5" font-family="Helvetica, Segoe UI Emoji" font-size="20px" fill="#000000" text-anchor="start" style="white-space: pre;" direction="ltr">Private</text><text x="0" y="36" font-family="Helvetica, Segoe UI Emoji" font-size="20px" fill="#000000" text-anchor="start" style="white-space: pre;" direction="ltr">Key</text></g><g><g transform="translate(554 245.9333333333334) rotate(0 1.5182039155531584 22.687597190421087)"><path d="M0.9634202230721713 0.457587916776538 C1.4290947624792658 7.966612969959776, 3.011321845526497 37.38347207618257, 3.0263307202607397 44.81019770614803 M0.010077110845595705 -0.3477823722548783 C0.3872094946292541 7.282848582050454, 2.0436469454752904 38.028371704400826, 2.617108884770423 45.72297675309703" stroke="#000000" stroke-width="1" fill="none"></path></g><g transform="translate(554 245.9333333333334) rotate(0 1.5182039155531584 22.687597190421087)"><path d="M-5.829734281097324 26.334113279677155 C-5.677163839319006 29.71032432431549, -2.38980925127908 37.79883856595069, 3.8334533921815455 43.88869399538264 M-6.6236130478054 25.01216551414055 C-3.101906869834806 32.67448830508272, -0.5954547404907311 39.676926048912335, 3.5732720219902694 46.6737734922953" stroke="#000000" stroke-width="1" fill="none"></path></g><g transform="translate(554 245.9333333333334) rotate(0 1.5182039155531584 22.687597190421087)"><path d="M9.887319332804376 25.350692722833443 C5.018540126225407 29.16715035809792, 3.2865442993619807 37.56972679620307, 3.8334533921815455 43.88869399538264 M9.0934405660963 24.028744957296837 C6.841679657284441 32.190860423944095, 3.5823288069635346 39.554066115520484, 3.5732720219902694 46.6737734922953" stroke="#000000" stroke-width="1" fill="none"></path></g></g><g transform="translate(682 294.9333333333334) rotate(0 45.5 23.5)"><path d="M0 0 C0 0, 0 0, 0 0 M0 0 C0 0, 0 0, 0 0 M-0.7344220280321199 6.294423148830526 C1.0255687346037226 3.7201205178044563, 3.457472130936452 2.256915291645937, 5.344507056804842 0.8394934657809558 M-0.09990439523475947 6.29507591021537 C0.8271106401963023 4.790383189767721, 2.5790983316909664 3.4628241886277653, 5.001922898697203 0.7595974519697252 M0.8801961683760959 12.129422276138841 C2.6297409260309914 10.363807800106853, 6.707846672437466 5.82119561725061, 10.845892777991427 0.988897321660795 M-0.5445376156736533 11.604932410686791 C2.882386590264174 9.3830497772578, 5.183743590988714 7.180986116547956, 9.85328124831332 0.23774822979120214 M0.051811619610500514 17.159007099364572 C4.640611661964953 11.605755539631513, 9.933752411437695 3.467958081537974, 16.992881098299698 -1.5985386383789582 M0.15745676676274556 18.755905285385126 C4.709747915338485 13.57075001097818, 7.6562408359651695 9.056276873937186, 16.486851251221672 -0.1652869417401952 M1.6292640065959851 24.1632195820055 C4.384341833254819 17.934145111564213, 11.914654743603844 11.932366286788318, 19.921010993698502 0.9188986154436627 M0.7002269096858065 24.613514630771338 C5.028187053358423 19.59923693768013, 10.042602944487715 12.852612379956756, 20.801743795441354 0.7719715446397224 M1.73310861275991 32.02634200802838 C7.688115603503418 19.744239631661163, 16.456524227779646 10.585491311961107, 25.073103909056993 1.7353703243669845 M-0.6891783475364228 29.812481543746046 C7.425467203207725 22.869677439875193, 13.769042012165368 13.992200316452394, 25.944562257875116 -0.09867387600124111 M-1.9827317633759733 35.87568384017919 C10.573683165865267 24.691546617128296, 19.835873861771347 9.897545369978737, 30.026719796887434 0.4871482459142147 M-0.7252138919290658 37.520856453852105 C6.909647796926446 29.13613170675304, 14.304659868531184 21.35579247778374, 31.39499671798835 0.5824067081569968 M1.2001188017100972 41.055351416203905 C12.183592870485958 26.051813088000358, 25.87233399906893 12.463759487202175, 38.61213561874007 -0.7663606665003542 M-0.3576861730172354 42.251416353132356 C9.97217565602108 30.632434297695163, 20.173358568005035 19.57241049205913, 37.36689957678442 0.4446580923256036 M1.7209303275493717 45.56845752907128 C16.801142116299967 28.3986088253227, 29.810117422138337 12.841276472069708, 43.47331757712715 0.10720909464648543 M0.4159377681834435 48.27262437635244 C11.709191780098932 34.41330347625723, 22.881183826543015 21.891689426262364, 42.9005077887287 0.005913313324661829 M6.988721103625636 47.23636394563621 C19.101566955341923 33.79137610588813, 29.849443307865062 22.016301523053457, 48.13194888359892 1.0383582327690277 M5.330634473109882 47.736622319664114 C18.65241525305626 33.55330159265151, 31.46059489163077 16.855550163840547, 48.45772062982458 0.3663202913653407 M10.197813225527096 49.46153469020406 C27.075882913463666 31.342159941140615, 37.929206922821834 14.426599940313718, 53.54840199066764 1.4055460053904731 M11.20062960180341 48.41083392416964 C24.02674937886335 32.97732616172603, 37.744880675209686 15.763405272477755, 54.01432192953742 -0.1730848117322843 M15.449395116775506 47.33026360052082 C30.683168406218677 31.327277799399333, 46.55589002254999 12.681769777432692, 56.18576635988356 1.7603668659251248 M16.572210454738908 46.74944243191186 C32.00877277234638 30.774307855201183, 47.172304103129534 12.606312690154489, 57.6552578388706 -0.4164509507570351 M22.503431238921102 48.84727013000078 C35.276438958294506 31.90259550031262, 48.30813217791957 16.579145297014954, 62.57082069375892 1.4773738218961832 M21.006885682919737 47.096736388101945 C35.799713103455815 31.10701660949946, 49.84411487064027 14.896202925132926, 63.66685906228949 0.34546116111116376 M28.683575294476157 49.34023228616715 C40.77792690795996 33.32560207477768, 57.13204003559328 15.789267250316698, 67.35806070384398 -1.5207449232820593 M26.517548490811294 47.06039257955999 C38.73418575164173 33.539761005084905, 52.309924937342764 19.162617940189467, 69.13211862579747 0.029205694083479727 M30.941197994990894 47.184963272434224 C42.87299717654278 37.131995315092865, 53.88080134667923 22.13847214382187, 75.89067134265098 -1.1133426120863916 M32.16375440441693 47.20540267649715 C48.552975391647664 29.301427193097386, 65.01836769870323 11.710388509841273, 74.02291410885992 0.3772250599799989 M36.41635929297759 49.455234846325205 C53.507665684233764 29.400876825389858, 69.7473109454594 10.791000947512515, 78.26455457173017 0.7433627088974788 M38.14394350320204 47.672646590733514 C50.88014916303769 33.076342239767605, 62.98723417681404 19.09802856701393, 79.79528541248021 0.6517765540118887 M44.50183614998647 47.64795396125439 C61.08034337729907 29.048039323592814, 73.66685070699502 10.562526619291361, 83.88930159359381 -0.3338884528072441 M42.39071818816998 47.87281911748025 C55.07897879841896 34.1401541505075, 66.36263620104089 19.998787427258307, 85.48165699112371 0.2535057129992282 M49.4040947685298 47.33298612474497 C62.094238250409845 34.99989316664755, 71.17376121306773 23.498411476236605, 91.55222061979214 0.5697796062137286 M48.66306541378614 47.105003293557424 C65.32178375448962 29.37107597833739, 80.50645736665291 10.304164254121538, 90.2861156207938 0.41537295715318123 M54.20731836015783 47.87833204021127 C67.52519770772707 30.326958130927046, 83.19563345497316 15.614529718540346, 94.01113201586591 1.581329884151934 M53.14163445605389 48.250597039176235 C63.944641764224855 37.46079615959874, 71.46394877857252 26.257537687389025, 93.70845554398434 1.08535568896216 M57.4343793773828 48.09995096517646 C68.44381293909126 37.014910034600454, 73.61004768947264 28.35971839900511, 94.68263218538434 6.7461509948672 M58.520959144438606 48.39188651615673 C67.10234785896014 38.77883250046382, 72.80103422270176 31.590334219275647, 92.76369235371769 7.6015366140828675 M63.11086728175496 45.98693735305486 C75.00966801817792 36.388001850104494, 84.35502463935464 25.582682060352404, 93.48336094682169 15.904332624991639 M64.60473562994366 48.505972769710105 C74.05486012295108 35.614367580653386, 85.79045177030784 24.397670684667766, 93.35458037042123 15.53712919844429 M71.32606077578657 48.35134421136968 C78.25541761456745 40.98069841544474, 84.20216104153313 31.8894246211869, 92.30161609869975 21.69880923727124 M70.39804461703443 48.083345086656436 C79.60618151026428 38.12452335019474, 87.3411139205319 26.620187644337836, 94.27447720706988 19.677371371589295 M76.29695557102788 46.55335974353518 C81.66704907345985 40.960987325667894, 89.0357321015693 30.74421601754989, 93.62197147756875 27.753440910120293 M74.70262913171429 48.821807637206874 C81.63824450312218 40.109286277667366, 87.56682649002822 32.01969215349365, 93.36321182716698 27.166356366229042 M80.92923661999113 46.1511307070746 C84.37004759025284 44.48280168376919, 89.26918845832152 37.66957438486366, 92.43019016094095 33.077546276062 M80.20911675344861 47.24505283318152 C85.08118478789879 43.60796194518446, 88.44123726463187 36.844983632731584, 93.94324774767793 31.880315656683614 M86.35810364301443 47.13055350469464 C88.82821503586665 44.33809481373589, 90.98586917765846 41.901314850669166, 92.74475479285289 38.2070315844904 M85.88469854242295 48.192942853328226 C87.53597766065403 45.84411623570488, 90.29889218014276 43.05540874982894, 94.02737993589658 39.005311446782514 M0.12469737147903004 47.10839777126726 C0.12469737147903004 47.10839777126726, 0.12469737147903004 47.10839777126726, 0.12469737147903004 47.10839777126726 M0.12469737147903004 47.10839777126726 C0.12469737147903004 47.10839777126726, 0.12469737147903004 47.10839777126726, 0.12469737147903004 47.10839777126726 M6.49077210900778 47.46130947970143 C3.90824311411212 44.79013276103158, 1.438059983999521 44.1075153286438, 0.2931539131560842 41.67408075802364 M6.152454880526607 46.95037346497467 C3.73121425932716 45.41035824224884, 2.042669682913652 43.44607596571747, -0.46921754458458065 41.24144415840842 M12.149753991838034 45.80494413276025 C8.420532025408601 44.413359226484275, 2.0926527382639324 39.67636066471003, 1.179397055701049 36.986686335400776 M11.859804739381609 46.46457880859085 C9.613409811872371 43.731141605094486, 6.334372055512419 41.36740831276509, 0.754838032469781 35.89807593886657 M16.593793079257537 47.244901513394964 C13.375858562097834 44.34935595385147, 9.03334823242308 39.05773305528881, -1.6972339967882952 29.329111315956958 M18.77662269491755 46.613279037823034 C11.595380000623855 40.7487093834187, 3.9354871889547667 33.571732880934434, 0.14966697016146568 31.08568694786603 M25.707317261765713 44.92997182385821 C17.08476681141455 39.292347474936996, 11.349736133637082 37.01878188226834, -0.30176407981901576 26.32734512941927 M23.63968723620754 46.36100810525764 C18.06679861348125 39.764935771914956, 10.932119838948793 33.641049325671176, 0.3067288282489855 24.88851047990859 M29.790534010946857 46.71484010068989 C21.298002636247553 37.497807197708475, 10.90662133431341 32.470541764132236, -0.30899683084106044 19.395180237987752 M29.738028336174892 46.2134131831891 C23.31953388428017 42.00237397764708, 17.13480713379561 35.361093978010175, -0.4731021595722993 19.86685705235761 M36.69321606088668 44.83932920387774 C22.140375618426766 35.9418772893964, 12.171043369234642 24.168956712176254, -0.2702430698776386 14.347847492612171 M35.43292385585844 47.274300285902015 C27.469574246307786 38.819458139654316, 18.73620289709085 32.26238526519527, 0.572126126127527 14.351307857959736 M41.16092759156196 46.571794984371536 C29.289824075082166 38.70151386512863, 21.002078143990037 28.16330007758686, -0.06619881284304441 9.968138503280265 M41.962888414688095 46.02268810614305 C32.89395285144204 38.77338001988415, 23.40195272704179 28.98110384972917, -0.3623240786127049 9.70543453599958 M48.86455716728119 45.304213081149506 C38.218089055194206 36.564883755156146, 23.528953315359747 26.574955903444394, 0.4432313702395172 4.942377870941795 M49.00445632892547 46.3766448121873 C32.39564056861496 34.55873794262207, 18.08099203310911 19.58876927958431, 0.2335462206369252 5.230521404223777 M53.97694647735285 48.20785600818989 C41.675664854606865 35.814378243529134, 28.318777354260153 23.83684470757148, 1.4484672936785248 0.9555099845750039 M54.780060352332164 47.31771513480989 C41.859120037965745 36.171296297135484, 30.33361630461014 26.07275997670563, 0.7452557151380208 0.22940225590744662 M62.749519076753714 45.88897024144248 C42.179843963797104 29.619812926772703, 21.573092492446527 15.839638240728746, 7.559268118787403 0.251307369072701 M61.16591041683809 47.515347454257466 C42.111744619065114 29.492670691138166, 22.198884803243807 13.592629377901439, 7.334107755657132 -0.46458129225972744 M67.54181332456952 45.483863015894975 C48.522808356449445 32.23301172638895, 27.638417510082554 15.684223640432613, 13.494783268092455 0.2623359314890701 M66.25277657098209 46.39073059731462 C46.68167566673824 28.632882172308534, 26.956900727494926 12.67650701894513, 13.158491266673686 -0.8888645539266866 M74.17165902577702 47.59487455749717 C59.1928293532012 33.67324468800331, 43.62368819267563 20.63554780035011, 20.527920671570474 1.6671077727738783 M73.22741562169406 46.02151606922802 C62.825766384045735 38.022221635198804, 51.00092008694155 26.97463945199597, 19.3494989926176 0.07424303865321136 M79.94471036968473 47.38546488022729 C67.11003683484599 37.43139197298402, 57.75149458801984 25.4011006371342, 22.477203063307165 -1.763304247085145 M78.93335407273564 48.20565485077276 C61.84795248340873 31.509362903524213, 42.23402526786334 15.863399502574886, 24.53403379452771 -0.4870775002354293 M85.23107467060112 48.23589087306358 C69.62720738666374 36.93063758031343, 58.99415787092539 22.013143609438742, 31.05694462327933 -0.22929427713822825 M84.97876686536841 47.08582448522397 C67.76857388779801 33.01629071571992, 51.50782934085433 18.226960211776465, 30.716235291833932 -0.6094324778459619 M91.04194110850295 45.398883386955816 C72.70113938823691 32.08165932096799, 51.95558180309172 14.478654329585694, 35.90678391579543 -0.8076366784071318 M91.84435611902228 46.77385616532828 C79.53740134665122 36.63948344422133, 69.1073638282945 26.859724037273413, 36.838262800797864 0.6096212740967282 M93.0214370256938 39.84626179996765 C71.71425851901796 25.648268928778432, 56.29078042258511 9.141879450409327, 42.16831263016396 0.2041910630863839 M90.40645742795392 42.16609929844624 C75.99376094555267 28.890919288739305, 63.191120750666215 17.248823228392595, 42.88817407518112 -1.3639965136322445 M92.9098344939326 36.950322944972925 C79.68532608529408 25.35122177250345, 65.3500690700503 14.302083431268638, 50.06170432136171 -1.056314576707912 M91.93149642837543 35.59356043424856 C76.2401338233927 22.52760847450119, 59.823488003392846 9.316397784569702, 49.00780404691361 0.12353753921376409 M91.7053437473051 29.177452181959385 C81.57011380297217 22.030055883525844, 68.76242589153549 13.313990760593292, 52.915247348474374 1.0784036371977201 M90.76903223132562 30.484264337019855 C84.34475949290952 24.955149883967547, 77.26754045663722 18.734739313173357, 54.053547764534166 -0.022212740580631163 M93.05196646578806 24.272567861876773 C83.51175993271833 18.74192171260401, 72.04067513277141 10.426503110086884, 60.51552151647877 -1.2580640692469665 M92.27086070623444 25.516448449506747 C78.88195711119226 16.193789949991157, 67.66984609198366 6.28578025524283, 60.47778703497272 -0.7392208477688023 M90.51431913346717 19.698149094712832 C81.32330732251071 13.615634002690177, 73.65686603032037 3.459232516703267, 69.13693101468334 -0.3710076820637269 M91.59708783914068 20.026340660993853 C82.92670607892371 14.463800296184651, 76.20837654073378 7.429830855520612, 66.88967336199084 0.25483919842437075 M92.92780968031927 13.570207981417333 C86.885320328721 12.063843522193928, 78.43958032980683 6.883690893931405, 73.11833315739659 0.6510796877256908 M91.59755637447431 14.912881539227818 C84.48100912670583 9.470256674636872, 78.97475740898669 4.920862756724562, 73.16300668685017 -0.9129800587259851 M91.52137399343394 10.713126033294913 C88.17632993045119 6.0226358424481745, 83.27993359543157 4.419346232304012, 78.76586778072252 -0.3759491935997019 M91.479717743067 9.924264570681345 C88.12014125889178 7.254658255998804, 86.83765418266742 5.224262068217847, 80.34420303401149 -0.5549376817579129 M90.86636721415412 4.150755206567661 C89.50127056952658 3.0747334319395954, 88.13057922863283 1.4201738241458415, 85.9331212717204 -1.1234287763405855 M91.40755883863163 4.811660360244528 C89.34961090867544 2.991591531808619, 87.47863602994197 0.7479040424989294, 85.3175796813427 -0.33153789773772396" stroke="#868e96" stroke-width="0.5" fill="none"></path><path d="M-1.651593653485179 -0.0772473830729723 C26.948101358953863 -0.5253927649278195, 53.88742840569466 0.28656751501373934, 91.50904211588204 -0.028024258092045784 M-0.5958249280229211 0.9348994055762887 C24.375927829835568 -0.7543731952365488, 47.622734565660366 0.7717846309486777, 90.09371983911842 0.950354085303843 M90.40522083826363 1.4150838237255812 C90.21877307093702 16.440524962265044, 88.91279137528501 32.045737142674625, 90.02725377865136 47.567149279639125 M90.06779920961708 -0.2643525740131736 C90.42700188052841 16.71849527740851, 90.27461715233513 33.08304269090295, 90.15169116761535 46.284351960755885 M91.21412769146264 47.157794592902064 C55.925965385045856 45.777346187205985, 20.866717339493334 46.30783140000887, 0.8720817286521196 47.257123766466975 M90.58406063821167 47.19106711540371 C64.423671023082 46.317912130495536, 40.420842710137364 45.89298009767197, 0.6807995429262519 47.8747365931049 M-0.9281811993569136 46.76532584242523 C0.39622165956534444 30.332048546802252, 0.44306512870825826 15.485744441486894, 0.9202959854155779 -0.39248800463974476 M0.8549063792452216 46.18583254609257 C-0.8345639218855649 37.54735188288614, -0.46069399614818396 26.725446270033714, -0.03517207596451044 0.20872111711651087" stroke="#000000" stroke-width="1" fill="none"></path></g><g transform="translate(685.5 299.9333333333334) rotate(0 43 20.5)"><text x="43" y="15.5" font-family="Helvetica, Segoe UI Emoji" font-size="20px" fill="#000000" text-anchor="middle" style="white-space: pre;" direction="ltr">Digital</text><text x="43" y="36" font-family="Helvetica, Segoe UI Emoji" font-size="20px" fill="#000000" text-anchor="middle" style="white-space: pre;" direction="ltr">Signature</text></g><g transform="translate(703 260.9333333333334) rotate(0 24.5 10.5)"><text x="0" y="16" font-family="Helvetica, Segoe UI Emoji" font-size="20px" fill="#000000" text-anchor="start" style="white-space: pre;" direction="ltr">&lt;1KB</text></g><g transform="translate(859 121.93333333333338) rotate(0 84 35)"><path d="M-1.6738833207637072 -0.021776584908366203 C66.07526687569917 2.6279507258534434, 128.66901965700092 -0.09492397516965867, 166.27873259596527 0.7011398393660784 M-0.12393270339816809 -0.35552573297172785 C56.875306457467374 -1.0136763816699383, 112.1750989401713 -1.0499607985839245, 167.7740846136585 0.8383859088644385 M167.12812119536102 1.5382212717086077 C167.28875821577384 18.213266336359087, 167.29155826317145 36.457801833748825, 168.3572854977101 68.52825996465981 M168.6186888674274 0.730319588445127 C167.17175364205613 26.320095382630825, 167.09011670658364 54.35222251806408, 167.83517332468182 69.6515557160601 M168.62471914105117 69.81765768118203 C111.62163339294493 69.32298980340362, 59.09144612811505 69.06280354842544, 0.705321965739131 68.59660819359124 M168.53313298616558 70.86237519886345 C109.9706764595583 69.72002941954881, 53.239351868070656 70.47928676594049, 0.8358152965083718 69.6401777556166 M-0.05792981572449207 69.66986516304314 C0.25355396745726466 54.157477538101375, -1.1321767163462937 41.40855007246137, 0.2751735430210829 -1.0979048293083906 M0.5294643500819802 69.7736428072676 C0.20998552320525044 51.693901812657714, 1.0520756232552229 34.59917573351412, 0.8511142889037728 0.13783967401832342" stroke="#000000" stroke-width="1" fill="none"></path></g><g transform="translate(897.5 146.4333333333334) rotate(0 45.5 10.5)"><text x="45.5" y="16" font-family="Helvetica, Segoe UI Emoji" font-size="20px" fill="#000000" text-anchor="middle" style="white-space: pre;" direction="ltr">Document</text></g><g transform="translate(920 81.93333333333338) rotate(0 20 10.5)"><text x="0" y="16" font-family="Helvetica, Segoe UI Emoji" font-size="20px" fill="#000000" text-anchor="start" style="white-space: pre;" direction="ltr">2GB</text></g><g transform="translate(840 53.93333333333338) rotate(0 103.5 166)"><path d="M-0.9943665243630423 1.4581328715796247 C65.52798261237422 2.2316470002312223, 131.6665518972545 -0.3832527270736651, 207.9439315783974 1.5093520216473832 M0.2822473713766224 -0.4806994790568359 C51.41582736661333 -0.4625140945691386, 101.50169943012473 -1.8187961431859054, 207.52802321188827 -0.8553805420702226 M206.01366886622222 -0.6430305873663804 C204.35971242599564 106.57724166210434, 204.10024206179574 212.95478833131153, 206.62633800870552 332.8453974242942 M206.48795129439128 0.6719843620182882 C206.4661469879713 96.96149220224375, 207.2540494436993 194.6632154350851, 207.27330405790096 332.1461061371502 M207.44495881958485 331.3584281800533 C139.97358481282012 332.0510904416185, 73.07841344433514 331.13637319032375, -0.6018699240932955 330.3093996925265 M207.21280581139075 331.97411204271873 C144.6300229401099 331.988663501287, 83.11419366781666 331.24397822679896, 0.7770831281734354 331.177020859904 M-1.3051186521181322 331.9379164056375 C2.246753793243449 201.3460137253312, 1.2828698265304261 71.78350663199771, -0.056647840611694 -1.0231861670814655 M-0.2753699011760067 331.40720753297967 C-0.9968266063599037 254.59389124265493, -2.185746474729352 176.45125959374982, -0.31417091073991765 0.4035132734336387" stroke="#000000" stroke-width="1" fill="none"></path></g><g transform="translate(853 10) rotate(0 93 10)"><text x="0" y="15" font-family="Helvetica, Segoe UI Emoji" font-size="19.33333333333333px" fill="#000000" text-anchor="start" style="white-space: pre;" direction="ltr">Share this with others</text></g><g transform="translate(918 413.9333333333334) rotate(0 26 10.5)"><text x="0" y="16" font-family="Helvetica, Segoe UI Emoji" font-size="20px" fill="#000000" text-anchor="start" style="white-space: pre;" direction="ltr">~2GB</text></g><g transform="translate(237 297.9333333333334) rotate(0 57.5 25)"><path d="M-0.6763684172183275 -0.9798675458878279 C44.470903338398784 1.5293040276039391, 86.16022640932351 1.6164020896423608, 114.15635728649795 0.522576542571187 M-0.9295782586559653 0.32787641789764166 C42.85321544623003 -1.0911074011120945, 84.64692013897003 0.5615091295447201, 115.23817725572735 -0.9456887850537896 M113.38680362515152 1.3977896887809038 C115.44309024279937 16.850343487225473, 113.29726396268234 37.95325930044055, 116.03922956995666 50.65057137794793 M115.36381025705487 -0.5150817045941949 C115.0843584924005 15.200247609987855, 114.81249309470877 28.31309794355184, 114.68441401515156 50.34892538096756 M114.38352173380554 51.97761252708733 C70.59805115545169 49.30733482907526, 22.041521540842936 51.2944992668461, 0.9285849314182997 49.72322449274361 M114.70222078356892 49.89944365527481 C81.87012071581557 51.77911091842689, 47.95646337419748 50.958775560045616, 0.8975050607696176 49.46678841020912 M1.5161174517124891 50.5055116135627 C1.146375520620495 39.34858093876392, -0.007000045385211706 25.039888255298138, 0.5404267888516188 -1.0584753435105085 M0.035757080651819706 50.03004014398903 C0.4359614481218159 39.473216865211725, 1.3377620507963002 27.448375054635108, -0.8511567851528525 -0.18917611334472895" stroke="#000000" stroke-width="1" fill="none"></path></g><g transform="translate(258 312.4333333333334) rotate(0 36.5 10.5)"><text x="36.5" y="16" font-family="Helvetica, Segoe UI Emoji" font-size="20px" fill="#000000" text-anchor="middle" style="white-space: pre;" direction="ltr">Hashing</text></g><g transform="translate(402 304.9333333333334) rotate(0 26 16.5)"><path d="M0 0 C0 0, 0 0, 0 0 M0 0 C0 0, 0 0, 0 0 M0.17540340277833155 6.077793800135248 C1.1147528660979837 4.949608161929327, 1.5111504647191971 3.372800910574786, 4.660998051198668 0.776283850133163 M-0.41625618372577017 6.077893660639517 C1.2578899581504799 4.660758079223006, 2.3080061396634957 3.1730176122577443, 5.0424132704311075 0.07033141924415254 M0.6729750626813251 12.559429283856929 C5.479249308773352 7.047195297636062, 8.536272311408192 4.03921916191609, 10.381614005518092 -0.6117287387058359 M0.10368212620724049 12.220092743306934 C3.053560328654191 9.763085644240793, 4.46151650296228 7.454823215258112, 10.031751777929198 -0.8113166821107488 M1.345922420681429 17.18148559415775 C3.831221649096669 13.410173768387718, 9.982152882387162 10.347559882295213, 14.219846909403282 1.2681291426462131 M0.1601960937911393 18.98596027297961 C4.471081916712377 11.97953297097558, 10.506254771497252 6.7381329188457, 15.729569666556495 1.0953396853921014 M1.8126287816277902 23.36427514226651 C5.7008469790670055 19.63403034626613, 11.50298337969082 12.972043983548499, 21.81716470820632 -1.845148377662941 M0.6130231257713596 23.19966129650837 C5.764316800451689 17.54316878245973, 10.761934058867341 12.739830104874788, 21.52759534800228 0.35226521307374625 M1.981077550961576 29.73495794064199 C9.07103919544368 22.000708008469392, 18.928991514805404 10.941354805755449, 26.64814630211553 -1.3932743469241284 M0.3388768602674226 31.065417443167618 C9.643316026623154 20.803858723266313, 17.564638431435107 9.672519003853239, 26.85661281985453 -0.5059965677547478 M0.27744576261356 32.76474693792435 C11.665293721792409 23.37161171901443, 23.203827274310672 10.219160290172852, 32.77802254208068 0.6219614689483581 M1.252917485506977 33.76028272605064 C8.970073334671941 28.260202434065697, 14.916742715978163 20.228823702381124, 30.922203274859882 0.3701134539454518 M6.876148296524018 33.494017787976524 C15.336527466129514 26.15586250049866, 20.753038691011955 19.920764561137496, 37.2395850380895 0.8445607499313112 M7.365222723227173 33.605669175973496 C16.19560896419745 22.6334619830399, 25.150788619282075 12.809010671903813, 35.962938352302956 -0.16760885239573753 M13.482806617728151 35.63719507188917 C21.282426236629092 26.459562754046182, 27.955877935072472 16.611088365288357, 40.96915839109175 1.8391399801104384 M11.532506567760088 34.703483063479965 C22.72470092364395 21.575490820454398, 35.69505078807882 9.083283146199634, 42.155102369930376 0.5409424992605167 M19.486870327175723 32.55577027374798 C28.088289071349717 22.365226935551064, 37.0146216257316 12.798452584861227, 47.245627961075186 1.441107089462534 M17.579490836852358 33.440392874608875 C29.14339405328874 22.575403578473825, 40.41466133169622 9.858172698083152, 47.02047009202677 0.8456102533441339 M23.120349784854465 36.38202632352976 C31.164313288155263 23.004661826216, 42.06886862316009 14.416855407547654, 51.97035306999904 0.7861943922960712 M22.426387794788592 34.14280385379014 C33.62859544422557 22.188078227318833, 44.8810408872438 9.767018854431264, 51.674969932348255 0.3467568511167123 M27.737729312723634 34.048570535542986 C31.53359291121719 29.94212904121896, 36.957062007594246 23.19438179762247, 52.13801768289853 7.924763969701708 M28.33756335532492 34.63764094228538 C32.77605334457837 28.582103593889315, 39.2832796813787 21.67676270383825, 52.26828463522691 6.0408198131220345 M35.53529010774249 32.864963349096136 C40.71116349146545 27.928210263782315, 47.27322433472645 18.247869973519826, 53.30137001668543 11.285406484874066 M33.60960999471748 34.360227518856185 C40.029069724930096 27.877752181123746, 45.833964530759324 20.14266795915761, 53.417340884371406 13.315160554507848 M39.270433154898775 36.094347069166005 C42.747177617842766 28.324659086818357, 48.83168799735624 22.932398455417786, 53.44966001831902 20.572213627121613 M38.25941966475089 35.46216414043248 C42.25405355424883 29.916632491690507, 47.16796907526181 24.944946968268315, 53.05349678103788 19.376586829035745 M43.13320483239882 33.505248132124926 C45.87306860378865 30.272196353883807, 49.43740912387251 27.527485817767012, 52.250920766056225 24.429807955955763 M43.60852029999301 35.05818437133954 C46.60251379981603 31.37311321996827, 48.86856742267972 29.51955788581775, 53.149644877551765 24.44139395714519 M48.97101240759718 34.65406497134281 C50.57874773952705 34.117262104192854, 51.446904846799356 32.078918028488076, 52.224133124444364 31.1436979966711 M49.167318506548206 35.045767436357345 C50.663507224234536 33.62966712712143, 51.59913034479213 32.04987438368548, 52.738292011068864 31.107314247918104 M0.26418763066507367 33.22965480363224 C0.26418763066507367 33.22965480363224, 0.26418763066507367 33.22965480363224, 0.26418763066507367 33.22965480363224 M0.26418763066507367 33.22965480363224 C0.26418763066507367 33.22965480363224, 0.26418763066507367 33.22965480363224, 0.26418763066507367 33.22965480363224 M5.91777761357184 33.230976154345555 C3.622853148492565 31.606409416380103, 2.201022855425385 29.534026840863795, -0.20095288124531085 27.43196407123283 M5.542005287504749 32.725024569842496 C3.6943287356796906 30.64914585787922, 1.5866331319238092 28.810397628839635, -0.04230396602898412 27.97375047853962 M13.45368542827303 32.666268149421064 C7.7180517207852315 30.78225502382559, 1.94580862448629 25.50884479645949, -0.27523216536517325 23.76651211063704 M12.215520040016719 33.18481162901267 C8.55763753512395 29.957035743966024, 5.562454471565608 26.080740946453655, 0.5783354013574579 23.12652537877998 M19.419419929450882 33.79563096385219 C11.461635007767509 27.684227331072872, 7.169247484740005 24.752293343097904, -1.7140585017740921 17.980387009493136 M18.853337290762497 32.420578836796366 C12.206992439803857 27.56374989519966, 6.329158924393717 23.1980152206201, -0.13542753005178731 16.07602301686915 M25.503291256840953 33.177643963622415 C14.51434650882644 23.933746985240404, 5.639085095333527 16.85152983791175, -0.13435742273358375 12.001045163203553 M24.007481510866114 32.9453960121819 C17.672716945072068 26.237620855653148, 9.25143729690675 20.77628556696716, 1.0098953720611545 12.22770270001568 M30.291643709108953 32.56803594593658 C19.246138076408393 23.287174696768673, 7.023460095840033 11.792666649373256, -1.354213412319167 6.532531571248661 M31.36268411872608 32.759648574225146 C24.08841488885569 28.14724115451908, 18.753577347221253 22.08753161136022, 0.2501571695982978 7.104891309188794 M37.80045862400085 33.332049151335426 C23.751357629116008 20.12594709493518, 12.583652021796919 9.412022015587233, -1.142344517116549 1.92584368614072 M36.22078460638524 32.88754482791997 C22.981181831430632 22.142110264686018, 11.528250462993636 10.159588420640166, 0.2538651577708102 0.3630601738538781 M41.714142954930956 31.617556032331237 C30.218221680933944 23.262118983512316, 20.340470672065177 11.569066050037897, 2.569618511065793 -1.4971269435985106 M43.398727769054766 32.21111860273177 C27.977815852902438 19.633592549042813, 12.127296865859002 5.447926437604963, 1.0920436140670895 -1.5149799680141824 M47.79006220942247 33.075146050474224 C39.08166005609367 20.77257614848572, 26.06466868292053 14.231573230088902, 10.393470536087696 -3.5068585574757525 M48.60184664355475 32.7215660496639 C34.243777643096976 19.72806112271673, 20.119930326540615 8.253996498341714, 8.913322119143848 -1.7510928539689847 M52.074297930444146 30.10697985029566 C40.85596743585323 21.317762747386695, 30.692352439508625 11.12451541371233, 14.605997914358507 -1.8385255888933063 M52.60836998965081 32.29934981520074 C39.65040742498155 18.295376854459487, 25.861653879278983 6.186044350612196, 14.034251433707308 -2.6128931029597044 M54.551471054628095 27.930817027383736 C45.76239308109751 18.36884957452322, 35.495395378179886 12.605518803210904, 19.93067009929252 -1.7583180853389067 M53.88799564827194 25.30947680938362 C44.04844425590626 18.18056455412512, 33.88812608777504 10.253277404558371, 19.689745102968637 -1.4488156355209512 M51.92643351672524 23.013696708193763 C44.23974952276231 13.735414347942449, 35.664591134759945 6.386319429472131, 25.413915098412943 -1.279709085262322 M53.35233214596593 20.56642878562097 C46.103047553835765 15.35473332370004, 41.026272624785584 8.871051749239832, 26.87810491374792 -3.3731330506493684 M51.1987383242588 14.63902085427598 C46.770047236224926 12.347281373901572, 46.20192683783518 8.803971737865709, 32.15029611513407 -0.6024823861512818 M52.89811876955288 15.432495644916155 C46.42608191387172 9.665007193213913, 40.37941699233969 3.914324538005337, 32.05494753625632 -3.1737333938795604 M53.88261982879794 11.35299825257605 C48.61479491228155 7.965656495418548, 47.576920468372904 2.450251077369294, 37.74806799381718 -3.3269579197922368 M53.61028903696879 9.873345867488368 C48.72513785396198 7.360122069091403, 45.23307446629115 3.301386538582838, 38.52653882038526 -2.0616886519072226 M54.19011916178819 5.723172813779974 C50.16492878233751 3.1214285594088036, 47.33154546174578 0.9300916969416386, 44.20564867896188 -1.8904488417728935 M53.38135574586298 5.5043226882213 C51.48929006920107 3.923781550333146, 49.054758615221495 1.9548480744354972, 44.38218507082362 -2.7022772838770543" stroke="#868e96" stroke-width="0.5" fill="none"></path><path d="M0.9022516589611769 0.5898297149688005 C14.254430732131006 -0.7245709506794811, 30.358744128420952 1.7983524592593312, 53.22614633850753 -0.6900939028710127 M-0.024709715507924557 -0.762677283026278 C17.645628773234787 0.2833044071495533, 33.93570393342525 0.28475020721554756, 52.04440344963223 -0.6010828027501702 M53.33815395645797 -1.970367817208171 C52.42299259713851 5.2727167819626635, 51.380708644902334 12.219752263091506, 51.703550634905696 31.092697532847524 M51.406257764436305 -0.531452895142138 C52.31893491973169 11.534727378655225, 51.99056813349016 21.83589205034077, 52.512435481883585 32.7731460025534 M53.08858376555145 32.02694693394005 C40.59586409255862 33.880642641149464, 24.01873089112341 33.3693062549457, -0.38079929538071156 31.437212677672505 M51.632186220027506 32.26102694775909 C38.82956906240433 32.53684669114649, 26.753439064510165 33.3274255631119, -0.8093798598274589 33.42478626873344 M0.3754038792103529 34.12065336294472 C-0.7625191081222147 20.287310302536934, -0.15536992437206207 7.2542316006496534, 1.8336312156170607 -0.7875909488648176 M-0.9378362139686942 32.70811551716179 C0.7373475243430585 26.621376021858303, -0.6970163474697619 19.517362623661754, 0.7468346217647195 0.4540272047743201" stroke="#000000" stroke-width="1" fill="none"></path></g><g transform="translate(404.5 310.9333333333334) rotate(0 23.5 10.5)"><text x="23.5" y="16" font-family="Helvetica, Segoe UI Emoji" font-size="20px" fill="#000000" text-anchor="middle" style="white-space: pre;" direction="ltr">Hash</text></g><g transform="translate(410 346.4333333333334) rotate(0 20 8.5)"><text x="0" y="13" font-family="Helvetica, Segoe UI Emoji" font-size="16px" fill="#000000" text-anchor="start" style="white-space: pre;" direction="ltr">&lt;1KB</text></g><g><g transform="translate(190 318.9333333333334) rotate(0 20.693247448103506 0.12862007869117065)"><path d="M-0.19944419972598548 -0.9709649730473756 C6.839620283121863 -1.0893134245028098, 35.947886235391096 -0.383531436199943, 43.149786030128595 0.12146033756434926 M-1.7632911339215935 1.1336744707636535 C5.050760913609217 1.0700608304950097, 34.94440764001881 1.3411913480175037, 42.28037823231891 1.1976522660069167" stroke="#000000" stroke-width="1" fill="none"></path></g><g transform="translate(190 318.9333333333334) rotate(0 20.693247448103506 0.12862007869117065)"><path d="M20.4773977850795 8.868728408446076 C28.175179274634996 5.879996072557949, 38.999554967924986 4.229601349405868, 41.54986421445385 2.555495901610702 M22.846748662669977 7.8049405783838655 C28.990355546337053 5.749473513317801, 35.208020792063905 4.0586593564803595, 42.14950481949374 1.807141782362014" stroke="#000000" stroke-width="1" fill="none"></path></g><g transform="translate(190 318.9333333333334) rotate(0 20.693247448103506 0.12862007869117065)"><path d="M20.429316775440075 -5.842035621048021 C28.247129937603653 -3.295273782519088, 39.089597709997115 0.5897457564251436, 41.54986421445385 2.555495901610702 M22.798667653030552 -6.905823451110232 C29.09386187587966 -4.202727440040244, 35.32708165092136 -1.1345107018004015, 42.14950481949374 1.807141782362014" stroke="#000000" stroke-width="1" fill="none"></path></g></g><g><g transform="translate(358 321.9333333333334) rotate(0 21.409038589196285 -0.7582609063852601)"><path d="M0.3160419691354037 -1.1381078649312257 C7.50689249324302 -1.6924586662401755, 36.562781889115776 -2.0554304926345743, 43.79525190480054 -2.3953033734112976 M-0.977174726407975 0.8787815606407823 C6.068351034043977 0.4127643368455272, 35.88212351194893 -0.505954713045309, 43.26471369119361 -1.065412393230945" stroke="#000000" stroke-width="1" fill="none"></path></g><g transform="translate(358 321.9333333333334) rotate(0 21.409038589196285 -0.7582609063852601)"><path d="M21.538801346981582 8.63008184609802 C29.734924844149354 5.472703524467073, 35.45456187228383 1.9439017512395136, 42.13826139608398 -0.044149630162864995 M23.94228047326362 6.970986606272474 C29.872519624182086 3.3877808366291955, 37.08277506379647 0.3778381681249643, 42.81242980120704 -1.261065935175866" stroke="#000000" stroke-width="1" fill="none"></path></g><g transform="translate(358 321.9333333333334) rotate(0 21.409038589196285 -0.7582609063852601)"><path d="M20.797741387483345 -6.074021444708096 C29.370387810616865 -4.02546595252874, 35.35249276108983 -2.3463821948722696, 42.13826139608398 -0.044149630162864995 M23.20122051376538 -7.733116684533643 C29.45702325814534 -5.897458596551218, 36.9405384833298 -3.4853837066294293, 42.81242980120704 -1.261065935175866" stroke="#000000" stroke-width="1" fill="none"></path></g></g><g><g transform="translate(457 322.9333333333334) rotate(0 17.394200291056194 -0.3515810359269267)"><path d="M0.022384213283658028 0.5083594154566526 C5.635944647466143 0.4840778381874164, 28.313359871382513 -0.805648494636019, 34.01734350807965 -1.2115214873105287 M-1.425002804081887 -0.27035583676770325 C4.525155569234242 -0.015517493902395096, 29.851754934905717 0.3524628339024882, 36.21340338619426 0.214854983072728" stroke="#000000" stroke-width="1" fill="none"></path></g><g transform="translate(457 322.9333333333334) rotate(0 17.394200291056194 -0.3515810359269267)"><path d="M20.506201357056696 4.775805142208778 C24.90439062320597 3.140536335141068, 29.255936439413766 1.4656455318862307, 35.45593695833337 -1.5329845056290838 M19.90636212744949 6.7482283919098505 C24.854482456069015 4.971390194622386, 29.725938936124336 2.486551439959839, 36.333917506696594 -0.07112147251835499" stroke="#000000" stroke-width="1" fill="none"></path></g><g transform="translate(457 322.9333333333334) rotate(0 17.394200291056194 -0.3515810359269267)"><path d="M20.50126506927988 -7.199783862142093 C24.79470704443552 -4.90707945474087, 29.147871955178413 -2.6539961227357862, 35.45593695833337 -1.5329845056290838 M19.901425839672676 -5.227360612441021 C24.789901186359458 -3.0996688355849944, 29.66296709081928 -1.6799934951777895, 36.333917506696594 -0.07112147251835499" stroke="#000000" stroke-width="1" fill="none"></path></g></g><g transform="translate(901.5 301.4333333333334) rotate(0 45.5 23.5)"><path d="M0 0 C0 0, 0 0, 0 0 M0 0 C0 0, 0 0, 0 0 M-0.5485489144595225 5.775488411684625 C1.3351091702159004 3.907539654588286, 3.762596034659739 1.489338020508029, 5.474822680982298 0.10498813575480603 M-0.5002629581512767 6.186885367010825 C1.2352192560068966 4.252750544987501, 2.9794950941243314 2.5989164562383418, 5.052512407260484 0.3657653100637021 M0.20464043552983613 13.578642054318964 C4.159863037748545 6.162006501616635, 9.683414534092856 3.1061772953149007, 10.09855006928457 -0.3909946669742683 M-0.38955343802463216 11.246171706586658 C3.6950555866508075 7.176029809309307, 7.250295120633427 4.074834136335401, 11.136322762769591 -0.4653074514970403 M0.870647798241091 19.200185776595646 C4.059538204830867 13.501790891656274, 7.708612911146683 9.615970562789242, 14.025416021704155 -0.10525098192272608 M-0.9478063006466506 18.602378366422528 C5.708964533892649 10.53829188470883, 12.473203838747635 4.694444285194338, 14.690389179162162 0.8140326735493737 M-0.9890866519697745 25.75857995422101 C7.342902898316801 13.816417839189837, 15.786922926860965 5.13981723881, 19.945157755443716 -1.4927651813090286 M0.10539018476374551 23.249965917966424 C7.879885854218579 16.80519078821112, 14.794825599592997 7.799249585558609, 21.501168347241247 0.6945114772930303 M0.5315712085505346 28.61430341726934 C11.306216925158004 16.305196307826975, 19.59741360466627 7.654341074086261, 26.3143225616332 0.6009488305088855 M-0.5185514222318908 30.144792918812684 C6.946849614697805 20.57727284127737, 16.246665636097614 12.808720554210364, 26.264844823304923 0.261041986198423 M1.44335570176127 36.54371348004912 C8.43171535271834 23.808207859415106, 19.306962579476902 13.31380759456803, 33.68837566622237 0.2776169126167236 M-1.133390207877433 36.44190931022291 C9.671445514523061 24.89157054743974, 19.98702562135601 13.406307440237253, 31.957507612599827 -0.4541995011956157 M1.5987980246216935 41.700120581868816 C12.143754534473494 27.406410522879725, 27.517852110524014 10.752351992887085, 37.02784305419897 -0.1527436300087217 M-0.5206586959167439 43.4047634709587 C9.540234923581131 31.754099934414775, 19.542116639805688 19.052708590080133, 36.369486166910576 0.3019500720408317 M1.7236672201005554 45.68099786725969 C14.13780140704722 33.74904795873922, 26.893993746826585 19.377563074377928, 42.63428370151274 -0.897000688281743 M1.0705281234158015 48.003661797504435 C16.255403615535613 29.710189590338604, 30.28371845167887 14.014883836824445, 42.0100726164838 -0.19028612055340233 M7.0408243511191415 46.31222370463913 C14.481695011922028 35.60804481251867, 24.007414552300133 28.909859103780686, 48.58931734315145 -1.3287307072255459 M6.516076967338364 48.23126122273063 C15.034161093280037 36.76075243880971, 24.635065912161803 25.35205800660414, 46.51529953810412 -0.24219814704839848 M10.460778036703157 47.035934969875015 C25.819462775741087 30.019056484627264, 42.13315530864806 12.542838790850134, 53.690596705064834 1.28660467224557 M10.976221796673524 48.02167249945829 C21.951538318200086 35.79434633948918, 32.53468634969265 22.78791052655363, 52.55266218701816 0.04948404109466864 M16.078246973811858 46.63825460227582 C29.213701829658902 33.53879343110891, 42.058403475358254 19.403958149360587, 57.89083527224065 -0.8581647448915923 M16.360836337677412 47.50943775644902 C25.561653108661808 36.623053804143616, 35.239136825058445 28.010905300530396, 58.22889626501055 -0.3159827491942728 M22.29906964743298 48.10888740681834 C35.73139574002019 34.778357779990785, 46.14479802588873 20.119099446086313, 63.233779520628644 -0.8370943495513323 M22.42509379213464 47.420376300632725 C32.62408069161753 36.100895753202984, 43.99909867476438 22.632856850580968, 62.99470015232791 0.5627184056236025 M26.120117533516293 48.67065299258829 C36.58652111879503 35.27259184782498, 48.71349725042854 21.116999496112868, 70.29323668521657 -1.6409480867568575 M28.01813004029185 47.63236755554826 C44.46832550051724 30.23873702065189, 59.41945104466527 11.519210848294676, 68.05251267575487 0.3703911874782122 M31.568322867049524 47.12966241456245 C38.98102969902694 39.29609020333173, 48.085530625860194 28.11075531242273, 75.10904699195417 1.097624902577543 M31.49082140893365 48.056777703125526 C44.18997712343844 34.49807546602008, 53.608986251240474 22.436993825166958, 74.26123534053805 0.38139939490839225 M38.63665087398245 49.15014153182654 C51.451650679062666 33.08716409316666, 65.94727297966851 18.698835431314386, 77.62611142582921 -1.545733076571338 M38.60050690330668 48.44453304190336 C48.46289006792232 36.74140094857978, 58.951552978353554 24.338379843854213, 78.54401009846208 0.34109358484406016 M43.72312753930279 46.60460764935735 C53.58475896403765 32.91513149896195, 67.18863092763127 20.500824014681857, 86.63036396279142 1.4877350848822033 M42.91876597519555 47.26754662881169 C53.436182781644305 36.09263150823901, 65.61046719844275 23.138589136263498, 85.79294157977358 0.2718844308240449 M48.56681183896032 46.84869287624057 C65.40259621708684 28.12953690189761, 81.00820895223393 11.613010643816537, 88.18779933782855 0.5900779419149558 M47.7361407548469 47.52479163738932 C65.1047384007789 29.256953953737224, 80.32868375203628 10.383712390446895, 89.27687486125717 -0.6453306352217396 M52.686823507942776 48.071320767453024 C61.75555243749906 35.697593850911886, 72.40336939526931 26.002877271444987, 92.61226818991886 1.0255875942809567 M54.469913819045345 47.623727999566206 C65.3138240817268 33.32952373586045, 78.27994973977745 19.092952729633716, 94.57794061118798 1.9990346759138689 M58.31831527219991 48.569529682080386 C68.17062316637355 38.46561745610951, 78.37825866301515 26.03405265016962, 93.52874094606906 7.262138007402534 M58.56883042303751 47.186375763881145 C71.83732984455554 34.20475234365277, 84.33838788133622 19.233796948550655, 92.6235689733696 7.705843831606323 M62.85150061671948 46.098649425099474 C73.22317275175891 39.11114840169497, 78.891079617239 30.77849326219886, 92.08957519819093 16.4724604694743 M63.920876268608026 47.93074173726408 C75.29271476377761 36.42934630074948, 86.30464982243205 23.382156371186234, 92.87150694401068 15.09976293450336 M71.76762601745122 47.14712460559599 C76.97113106722723 41.095656011113675, 82.03470045946459 30.998011564796478, 92.82113026824373 19.167287294804744 M70.75799973600351 47.476892843253836 C75.86719233017003 41.72362782595473, 81.2055554515575 34.57663605423056, 93.12518293686736 20.093654425866596 M75.0779987093829 46.28669127854671 C78.53403163075681 42.08391533115983, 82.13305517231717 38.37439031907778, 92.62338526621521 24.998432663370654 M74.0638896520086 48.22838276378032 C79.83899322688544 43.60933413671137, 82.080857835945 37.889066757693335, 93.50207484122426 26.22290792512594 M80.25995891846425 47.44720030303736 C84.10763771032725 39.488796102216085, 89.96270892045254 34.410220617148646, 95.04985229305512 30.788325559257736 M81.4786975218699 47.17832529738237 C84.77589935301766 42.287540355041074, 90.18274891870968 37.00794139823665, 94.68237322482801 32.20622316832023 M85.0468646902883 47.515066461880146 C87.9954617859195 43.47715535236866, 91.2788313453271 40.85514865001667, 93.02636597688365 38.260495933849676 M85.65340929090172 48.42948267204726 C88.06636675484643 44.72878510492431, 91.5819648491834 41.16808558634907, 93.36845891281087 39.42860607631163 M0.12469737147903004 47.10839777126726 C0.12469737147903004 47.10839777126726, 0.12469737147903004 47.10839777126726, 0.12469737147903004 47.10839777126726 M0.12469737147903004 47.10839777126726 C0.12469737147903004 47.10839777126726, 0.12469737147903004 47.10839777126726, 0.12469737147903004 47.10839777126726 M5.487842646515314 46.25322550587644 C3.24310074743346 45.213299326617935, 0.32026934431445864 42.05066631479592, 0.34521231038957045 40.98497361563482 M5.9556715710967225 46.423243975046184 C4.14174166773135 45.30722024757191, 1.892046470709577 43.63046585827835, -0.36782301568896403 41.25674847871401 M11.567024625416336 48.07569759090253 C8.518801945719524 45.33577569906119, 6.893980221261381 40.49689698608231, 1.2939206304109412 35.55416115661068 M12.922783235039052 47.099542689070184 C9.294895688273137 45.29131705605618, 7.956985325253298 42.68866845919913, -0.27035996074911783 36.56574526940389 M17.497927200049688 46.703046271291626 C12.614761266751326 41.48973333872948, 6.602452526264193 36.696437790165746, -2.1558209615445456 28.877735566994794 M18.531833558343877 46.3968674900877 C11.41559222778564 41.03084384043675, 5.034044933285482 35.04155556719429, -0.9274020273855648 29.88810635515923 M23.208348865429873 45.2265122965147 C20.347505586750444 40.39481597456607, 11.877594246988648 37.31801734554525, 1.3799691372713525 25.271467298586074 M24.044684869977647 46.00178782215167 C18.1253372449004 41.232988597539475, 10.861378055826476 35.57436048200348, -0.9258035668009441 25.31726902475596 M31.36587627497326 46.06126691920972 C18.77536436793117 38.76016033210048, 9.85207455731059 28.98475174795733, 0.38927345652366085 21.60022162044954 M30.08868256755929 46.64381633939511 C18.050310981539923 36.824737581072384, 6.855847976349512 26.162078139501514, -0.5527159178233703 20.831132514910514 M38.11068743620306 47.60008710092693 C28.125070968101426 41.285669609529805, 21.935784021842235 32.26920566616744, -0.3927198003733299 14.273589735097456 M35.36525343790888 46.755555442821375 C27.51603411253352 40.337388180215854, 21.781720762303088 32.49785548953403, 0.20216508975832248 15.962121280088294 M44.63109555253355 47.0494390441786 C31.35508827014207 40.29673423743659, 24.095993574894035 29.891725775025705, -2.032863875896414 9.078879854080064 M42.53313915123759 46.595992086895876 C27.420355390121493 33.743143989760874, 12.46030535632832 19.66262100643229, 0.17503186776421487 10.414322096292658 M47.56808196171073 47.14956498950546 C31.24307714627107 34.18208439403217, 15.097024258039028 18.408503020799063, 0.3251231833687038 3.7420894299096235 M49.58167919958828 47.50183457661246 C30.835572582266483 31.56262404015798, 14.07980390123086 15.782892500698352, 0.721891711405477 4.1557062929889925 M54.96692487648057 47.45516030244825 C31.473843232824358 27.69555234241378, 12.127055450604402 8.550319221603303, -0.13480853483199812 -1.352008046873122 M53.75118963750379 46.699439654464996 C38.19943221431272 31.299339430514376, 21.288687120006813 16.35389918235677, 1.0918497377249625 -1.3305334498288328 M60.22882812525735 45.616050560519255 C41.53399311308496 29.647506364847523, 19.101634502759687 11.184384718993044, 4.842974154252405 -1.9746546998128638 M60.45334182269529 47.11673958741889 C44.93942720735833 33.37070856004344, 30.403793681918895 19.933109485952063, 7.139873848270471 -0.3295247537523851 M66.5154540905643 46.09727835026869 C50.272843295644144 32.80684576447601, 37.119637688740625 22.255816715441348, 10.650838446585716 0.20185697970708194 M67.64444535448288 47.63457896397748 C45.49698717612132 28.137753979561246, 23.39145065927071 8.047480715670673, 12.36059564330268 -0.10850029571185527 M72.47410035081569 48.740075499208835 C53.859488287208606 30.52187991458236, 32.73175207549368 13.509211876870921, 18.63725379558223 1.2863369441989825 M72.5193747155777 46.17893692610618 C61.98873539121542 36.35997849335573, 50.41912064361598 28.455235536523272, 18.67642866803276 0.2966050037581489 M80.64223261875752 45.48194987288042 C58.025289442181275 30.403387057051187, 38.92155077576491 10.539511911594914, 24.473648208765148 0.6403121552130671 M79.88485221052262 47.97226396629884 C59.36110504922858 29.771540267192922, 38.292735635179625 11.254846404667148, 23.773174709280788 0.08401854566098166 M83.39911348213576 45.637362461824196 C65.36260268830044 29.21970022457088, 45.336032854421276 9.294191096878066, 29.879584889548774 -0.5610011847383927 M85.0798267063605 47.34540901454933 C67.43717200554056 31.70702119244559, 50.20957128751907 17.87040584587021, 30.79395043725794 -1.2216477155379604 M90.91743114436468 47.17840446855243 C73.73288819398421 31.318276157587118, 56.92519260352544 15.297485146452253, 37.02729517567907 -0.6086108351146571 M91.89585237330249 46.54954652532305 C71.27013112346395 29.509344967601276, 52.094509506328656 12.045165149482564, 37.71247034400706 -0.5180604748448125 M91.53015572118535 42.20641187269128 C76.09878986714268 26.988899081066275, 60.692104819601056 14.903017430668214, 44.493307279902034 -1.9790714303749866 M91.91269498138651 41.75904104269928 C77.3005015634103 29.258331608765033, 64.14451266269191 17.881116497708575, 43.25342548407101 -0.31323798976571027 M89.56874580779422 35.25835435867708 C82.38286713004251 27.269221378886442, 73.83311135668019 21.729739313180485, 49.21007503063195 -2.053807393007112 M92.30528846760589 36.909086128067486 C80.65787927974826 27.08924947770426, 69.41671564787578 17.03353147800663, 49.812862215160955 -0.9136229933352595 M92.89994191171449 29.625446388060087 C81.98672272993826 22.313665405989145, 73.88162831782063 18.625968591987434, 54.87051081039201 -0.3990261364607939 M90.34927836878073 30.545565432431037 C77.90764775629073 19.07510641194864, 64.82949893245834 7.455122258195413, 55.83146513659697 -0.17274589705009546 M90.68861973636048 27.162591663352536 C81.12350763298559 19.73251495035438, 75.1262388368171 10.7693437251224, 61.653162197596544 -2.204745833223779 M91.1526251051222 25.1657471602553 C82.39773358859786 16.503578274608994, 72.33981235984432 8.917825115866439, 60.48848373109024 -0.39900255894484005 M91.04761353925535 18.352410896104672 C84.20377407156005 13.233544637808121, 79.22188375697809 9.203608658407646, 66.62674490499148 -1.564708617755322 M90.27417733845034 19.813561837543645 C85.41119849002875 15.868701769478633, 78.90871518370344 10.717583225930591, 68.07501530318359 -0.10431748652562334 M92.76289277381345 16.866214038828765 C85.82207664601316 13.363562503023198, 83.86067302458892 8.004915999486208, 73.70177152032284 -0.19570349951467136 M91.41759861397638 16.171824543761467 C84.03080496019051 8.488618806918833, 77.92600664357565 3.471815400772906, 72.9143837199199 -0.1922167497985683 M90.97381744877987 9.611159036617693 C88.20643115887422 6.676295578352052, 83.86948819192392 4.319819527399436, 81.1227526225297 -0.18775031889516214 M91.05373390200168 9.258272506745499 C88.98845396720134 6.885360070644129, 86.2464061690187 4.16088397957365, 79.39800605090878 -0.929509032626704 M91.95359440220487 4.094349604172127 C89.86228872644817 3.690987485513966, 87.76112252096401 1.6720443709417578, 85.70047364859866 -0.8568444857765256 M91.693360625561 4.749717227814213 C89.34428014813129 2.905396782500987, 88.14316544333687 1.9758610619152916, 85.1450209154843 -0.3157246491331878" stroke="#868e96" stroke-width="0.5" fill="none"></path><path d="M-0.8404275197535753 -0.27680602483451366 C30.304635050054642 -0.30813920023851094, 64.84679043907673 -2.635940964249894, 90.51132017187774 -1.0639832895249128 M0.024931208230555058 -0.5456475028768182 C28.454361243452876 -0.6167920390609651, 58.324115108326076 0.8391453763004393, 90.06914679799229 0.7850858857855201 M89.24504715017974 -1.3290136735886335 C90.53203919419087 18.46623035548255, 92.94579657801427 35.188630832917994, 89.77739596180618 46.680472346022725 M90.78164045605808 -0.43354562018066645 C91.1689800358098 14.51467752819881, 91.05245769384317 28.154153385013345, 90.54581244383007 46.91247612144798 M90.70455860905349 45.74861762113869 C70.09397840509192 48.179144531069326, 52.805661918781695 46.784246056852865, -0.48416382260620594 47.92811897583306 M90.08334119711071 46.96292573120445 C58.486545879114416 47.092042963812126, 25.83721550405025 47.956070970604195, 0.13598154578357935 46.96519651915878 M-0.749795975163579 45.59848287887871 C-1.000413190955296 31.589041601587084, 1.2342861179169269 20.653851499222217, 1.0149098616093397 -1.286070255562663 M0.6096293786540627 46.41973701026291 C-0.14015540237538515 33.2691769127734, -0.47284328694455324 17.7509705979377, 0.8092891136184335 -0.8051965245977044" stroke="#000000" stroke-width="1" fill="none"></path></g><g transform="translate(905 306.4333333333334) rotate(0 43 20.5)"><text x="43" y="15.5" font-family="Helvetica, Segoe UI Emoji" font-size="20px" fill="#000000" text-anchor="middle" style="white-space: pre;" direction="ltr">Digital</text><text x="43" y="36" font-family="Helvetica, Segoe UI Emoji" font-size="20px" fill="#000000" text-anchor="middle" style="white-space: pre;" direction="ltr">Signature</text></g><g transform="translate(922.5 267.4333333333334) rotate(0 24.5 10.5)"><text x="0" y="16" font-family="Helvetica, Segoe UI Emoji" font-size="20px" fill="#000000" text-anchor="start" style="white-space: pre;" direction="ltr">&lt;1KB</text></g><g><g transform="translate(624 318.9333333333334) rotate(0 29.38931969515977 -0.6489949416369143)"><path d="M-0.6451501775532961 0.3557793248444796 C9.446515459939837 0.18110008922715984, 49.39850538484752 -1.5799013586093982, 59.42378956787288 -1.6537692081183195 M1.2170072498917581 -0.5030404749512674 C11.198776058256625 -0.47755856106678657, 48.62910184293985 -0.21827278365691502, 58.17323362737894 -0.45957279115915295" stroke="#000000" stroke-width="1" fill="none"></path></g><g transform="translate(624 318.9333333333334) rotate(0 29.38931969515977 -0.6489949416369143)"><path d="M30.647551643886366 9.036732807473584 C34.814399399603715 7.17021199182117, 43.221617671419104 7.793663961985116, 57.049139258489014 -1.6188534768670797 M30.37078348383377 9.160878908538564 C38.61425752460761 7.03003757233616, 47.39306333018385 4.0922648833476725, 58.86954881254584 -0.6292695999518036" stroke="#000000" stroke-width="1" fill="none"></path></g><g transform="translate(624 318.9333333333334) rotate(0 29.38931969515977 -0.6489949416369143)"><path d="M30.504656363811755 -11.483978274863983 C34.59738470282717 -9.119393539800761, 43.034060785936816 -4.2656042598821085, 57.049139258489014 -1.6188534768670797 M30.227888203759157 -11.359832173799003 C38.42208559439715 -6.963274754360806, 47.24634653283697 -3.3733885296625754, 58.86954881254584 -0.6292695999518036" stroke="#000000" stroke-width="1" fill="none"></path></g></g><g><g transform="translate(777 318.70458498140295) rotate(0 63.123272961396765 0.5207303795320399)"><path d="M0.8757221449166537 0.7836572717875241 C21.669567460690935 0.625704812342449, 103.24720164823034 -0.0551892715964509, 124.12016645558178 -0.23616381050929935 M-0.12366245834156864 0.14947339413687577 C21.101430359402052 0.1296884965804955, 105.36086364459867 1.1430374235201584, 126.37020838113501 1.2776245695733972" stroke="#000000" stroke-width="1" fill="none"></path></g><g transform="translate(777 318.70458498140295) rotate(0 63.123272961396765 0.5207303795320399)"><path d="M99.39015455997198 9.805921879286148 C104.92015852927516 10.458803271037205, 111.78051645800741 8.081961130189917, 126.02677610555664 -0.5417498743897728 M97.78951381320714 11.276434793757476 C107.05959156190072 8.352464505740704, 117.11850038673347 3.976843510746879, 126.99858245013282 1.5223091623941012" stroke="#000000" stroke-width="1" fill="none"></path></g><g transform="translate(777 318.70458498140295) rotate(0 63.123272961396765 0.5207303795320399)"><path d="M99.58339568811954 -10.714376857628762 C105.18745728318788 -5.003379937774571, 112.00019585450394 -2.323516763312286, 126.02677610555664 -0.5417498743897728 M97.9827549413547 -9.243863943157434 C107.0721736263472 -5.009086213543634, 117.06367786395514 -2.2270059502656174, 126.99858245013282 1.5223091623941012" stroke="#000000" stroke-width="1" fill="none"></path></g></g><g><g transform="translate(185 146.9333333333334) rotate(0 321.11657445480114 -1.7335789073258638)"><path d="M0.36910986788570876 -0.29756728895008566 C107.62472555922966 -0.9725304254641136, 535.9749577590575 -2.9140125362823404, 643.1293950904161 -3.1695905257016417 M-0.8962461808137596 -1.4993940609879792 C106.2480464596736 -2.1493450959709786, 534.9856917136101 -2.425292329608152, 642.2492820492573 -2.2462003004737197" stroke="#000000" stroke-width="1" fill="none"></path></g><g transform="translate(185 146.9333333333334) rotate(0 321.11657445480114 -1.7335789073258638)"><path d="M613.560054397981 8.223181434162164 C619.5395804767966 5.683039800173779, 629.2786141769974 3.957216511967343, 642.6540598461963 -3.217164257261902 M614.0469612514855 7.703906948864663 C620.655127756935 4.6952565046874675, 627.5252477525726 3.5828451950909423, 643.1404481690936 -2.76642968384549" stroke="#000000" stroke-width="1" fill="none"></path></g><g transform="translate(185 146.9333333333334) rotate(0 321.11657445480114 -1.7335789073258638)"><path d="M613.565063169649 -12.298026554112926 C619.6937764290808 -9.373182472680856, 629.4314762512533 -5.634035452025576, 642.6540598461963 -3.217164257261902 M614.0519700231534 -12.817301039410427 C620.730426949428 -11.107213097877972, 627.5993952176206 -7.500934873647932, 643.1404481690936 -2.76642968384549" stroke="#000000" stroke-width="1" fill="none"></path></g></g></svg>