<svg version="1.1" xmlns="http://www.w3.org/2000/svg" viewBox="0 0 1241 505.9666666666667" width="2482" height="1011.9333333333334">
  <!-- svg-source:excalidraw -->
  
  <defs>
    <style>
      @font-face {
        font-family: "Virgil";
        src: url("https://excalidraw.com/FG_Virgil.woff2");
      }
      @font-face {
        font-family: "Cascadia";
        src: url("https://excalidraw.com/Cascadia.woff2");
      }
    </style>
  </defs>
  <rect x="0" y="0" width="1241" height="505.9666666666667" fill="#ffffff"></rect><g><g transform="translate(195.49999999999997 288.7509849336441) rotate(0 49.73477725815029 -0.06328817606609505)"><path d="M-0.48364298455417154 -1.1305074144154788 C16.302852110750973 -1.2035379288211592, 83.29905752334744 -0.48317044109857454, 99.95319750085474 -0.27009217559702847 M1.4633057192154229 0.8903722476772966 C18.200487060081215 0.9631011912174399, 83.05643190084025 0.9154055145866538, 99.2553663812019 1.003931062283291" stroke="#000000" stroke-width="1" fill="none"></path></g><g transform="translate(195.49999999999997 288.7509849336441) rotate(0 49.73477725815029 -0.06328817606609505)"><path d="M69.16010015259623 12.002896492405927 C76.85684001111153 8.853075495896682, 84.21664918911797 7.612439988856382, 98.55612465547398 -0.09341154993854595 M70.9160095032969 11.50316416475842 C77.61444245812251 9.083104168454518, 81.96691452329999 6.072753118829013, 99.59451451426372 0.023462089697195765" stroke="#000000" stroke-width="1" fill="none"></path></g><g transform="translate(195.49999999999997 288.7509849336441) rotate(0 49.73477725815029 -0.06328817606609505)"><path d="M69.20082835785404 -8.518271690695538 C76.91669398378778 -6.821452879829847, 84.26688374711817 -3.2152844302389942, 98.55612465547398 -0.09341154993854595 M70.95673770855471 -9.018004018343046 C77.45197864464289 -7.154570668158282, 81.79594917463379 -5.881368532125459, 99.59451451426372 0.023462089697195765" stroke="#000000" stroke-width="1" fill="none"></path></g></g><g transform="translate(304.5 265.4666666666667) rotate(0 63 25)"><path d="M-0.3615494053810835 -0.35134715028107166 C39.5619313498959 -0.6189606363512575, 79.60379169806839 1.038349909093231, 126.76068571396172 -0.9399013537913561 M-0.7738875756040215 -0.32716198172420263 C24.901012356951835 -0.18494517141953115, 49.690596394427125 -2.053554152790457, 125.39239230658859 0.16903133783489466 M125.28029278106987 -0.9871649760752916 C126.30303579056635 12.280488484539092, 126.76727389777079 25.076704490929842, 126.73056325502694 51.01888340525329 M126.91352215316147 0.6278552571311593 C125.24882137635723 10.419791704043746, 126.33600631216541 23.22596555482596, 125.62920904066414 49.549601898528636 M127.60971316881478 48.46437185816467 C79.39509263206273 52.28442531162873, 28.762352664768684 50.18406450087205, 0.8434022981673479 49.87233483605087 M125.66404890920967 49.304896459914744 C79.56532917246221 49.97540631057694, 30.957941489852956 49.60571967722848, -0.002162129618227482 49.631841198541224 M1.0698880273848772 50.56496989540756 C-0.3930241079069674 31.739550176076587, -0.6798426718451083 12.688176400959485, 0.0599572379142046 -1.8041686434298754 M-0.927977473475039 49.599377886392176 C0.029765694867819548 36.8127747438848, 0.3113571400754154 25.074893868528306, -0.9943054327741265 -0.11754543986171484" stroke="#000000" stroke-width="1" fill="none"></path></g><g transform="translate(319.5 279.9666666666667) rotate(0 48 10.5)"><text x="48" y="16" font-family="Helvetica, Segoe UI Emoji" font-size="20px" fill="#000000" text-anchor="middle" style="white-space: pre;" direction="ltr">Decryption</text></g><g transform="translate(328.5 388.4666666666667) rotate(0 47 20.5)"><text x="0" y="15.5" font-family="Helvetica, Segoe UI Emoji" font-size="20px" fill="#000000" text-anchor="start" style="white-space: pre;" direction="ltr">Public Key</text><text x="0" y="36" font-family="Helvetica, Segoe UI Emoji" font-size="20px" fill="#000000" text-anchor="start" style="white-space: pre;" direction="ltr">of Signer</text></g><g transform="translate(29 127.93333333333341) rotate(0 84 35)"><path d="M-1.9121696036309004 1.6610631328076124 C50.54903010539711 -1.863361945450306, 99.59040139950812 0.5275568458437918, 168.89028325863183 -1.1368225831538439 M0.7311941375955939 -0.5277841230854392 C53.40413862150163 0.5879422533139587, 107.37200402673335 1.914693455658853, 168.83620425965637 0.415817872621119 M166.5478602964431 -0.23563039489090443 C170.14669492049143 21.497748306952417, 166.455144606065 39.284225687384605, 169.6284217555076 71.546560106799 M167.08009716775268 -0.6296154102310538 C167.3880017801188 14.739941634237766, 166.74140490135179 28.872210203669965, 167.38936048652977 69.82004527840763 M168.61136195249856 69.05280905775726 C125.73137555085123 68.78972719326616, 85.4184992108494 69.57605080023409, -1.1253659408539534 71.46066903881729 M168.71874076034874 70.3352427938953 C118.48145302664489 70.50085539769381, 67.21651541348547 70.70506898712367, 0.8575929692015052 70.87021632585675 M1.201980384066701 70.79511928372085 C1.0177123305387794 46.8475799607113, 0.19937292309477928 26.300185214728117, -0.0548566859215498 0.012913880869746208 M0.03247037436813116 69.37744112405926 C-0.049425173085182905 51.988850409165025, -0.6125774565152824 33.28417483251542, 0.6018331041559577 -0.9142292877659202" stroke="#000000" stroke-width="1" fill="none"></path></g><g transform="translate(67.5 152.4333333333334) rotate(0 45.5 10.5)"><text x="45.5" y="16" font-family="Helvetica, Segoe UI Emoji" font-size="20px" fill="#000000" text-anchor="middle" style="white-space: pre;" direction="ltr">Document</text></g><g transform="translate(90 87.93333333333341) rotate(0 20 10.5)"><text x="0" y="16" font-family="Helvetica, Segoe UI Emoji" font-size="20px" fill="#000000" text-anchor="start" style="white-space: pre;" direction="ltr">2GB</text></g><g transform="translate(44.5 252.9333333333334) rotate(0 69.5 35.5)"><path d="M0 0 C0 0, 0 0, 0 0 M0 0 C0 0, 0 0, 0 0 M-0.9256648793490488 6.8107472293573545 C1.275403262226043 3.977522997109085, 2.842043170820423 2.574778740765815, 4.643661611112303 0.7289844412205042 M0.12185634936672862 6.107978568648092 C0.7288897604646082 4.729013034510268, 2.2081223209021146 3.4649614562495135, 4.951251435237474 0.3973847873357358 M-0.6739170557726543 11.12997939181286 C2.754562636642335 6.382080584845126, 6.62843411432508 2.7958795238376206, 11.400281274271142 0.27600123985556557 M0.3920188562105973 12.122386735349476 C2.1654881274544455 9.560254150158094, 4.956058016764791 5.963139407302137, 11.38553879479779 0.6417745816603084 M-0.4101776974788187 16.472681880836063 C4.502515840153816 13.84700430741761, 5.894700323552006 9.823565044982049, 14.568706279158073 1.0587665761751133 M0.3579916934901597 18.77735334439265 C2.8922416032692433 14.478887732843898, 5.933871070214572 11.826963052527642, 16.07335659163393 0.03400009841891105 M0.22726879103101894 24.452169045521973 C3.811234709821284 16.198222671616794, 12.779494499025255 10.693495171771142, 21.447665084430838 -1.9614876439631423 M-0.23757929241292075 23.7703331231094 C4.8582008229402165 16.784816844349763, 10.672587908219208 10.792634426040292, 20.515092409493292 -0.17707955425833077 M0.7569484105845312 31.79722280031835 C8.959387148664073 20.352400555117008, 17.468516062836226 8.34448740998922, 24.776169032466026 0.3919424017903186 M0.06484590662171641 31.31725401128476 C5.669981335452285 23.88766159939162, 13.057476194598168 15.258802070217904, 26.95946918768099 0.4737347833824135 M-1.8533732668590304 36.13966920953368 C4.924287337615302 27.220598106802214, 13.022537681120966 19.351230829471504, 30.191714599213398 0.9512513225212036 M-1.0582574206498023 37.17668157518034 C11.18320773264132 23.407344354277228, 22.568022331182966 10.826384997369448, 31.310310306443668 0.6846350348799763 M0.33086620565959635 41.36328746247642 C7.372038007772909 33.576777607594366, 14.990862306315343 22.834822514820587, 36.8618590196607 -0.36807482679369485 M1.0393125770286602 42.77807981855773 C14.09300471451489 26.818690737290442, 26.657999011413114 13.246242005772473, 37.72317959256594 0.4372998821642753 M-2.0696509368718523 49.18043861412339 C11.571775352316594 35.4239261824618, 22.48032170016139 24.161918828944458, 42.42019251975768 0.7075648129313308 M-0.33844277355828467 48.32968992334686 C11.697940721786763 36.60370298338643, 21.248946703431326 21.875207982012093, 42.510103551294435 0.8029681237741428 M0.5317905314963838 53.16159852356027 C15.725000698207896 33.40843909969769, 31.931223205506022 14.837978666573527, 47.40536608449209 0.16006254667307473 M0.01894053283599817 55.379313188086556 C15.265431926012962 37.178665073817776, 29.58350074253943 20.7411709041032, 46.54734913441378 0.8238653166394982 M1.1269665957520445 62.08553449576388 C17.54369318304867 38.87917880201563, 36.744099020205894 18.367372217878405, 52.197063689813675 -1.0455745164827626 M-0.3638330520038764 61.695737669706745 C13.476021654671094 48.11883913717638, 24.184029465339282 33.53675004305802, 53.18014597217059 -0.6807228657008331 M0.3926272028543778 65.96883822004268 C17.618868180922494 43.78499621228456, 39.17521713489882 20.236607793512604, 57.455030070710194 -1.611047821559378 M-0.3991554268217854 67.82952112196902 C16.027800454059886 48.32590787696965, 33.015714094374594 28.978969085085048, 58.630464141349506 -0.23302399131692297 M-0.934121796246842 70.88784493048239 C24.74436136646265 46.97417166903647, 45.969217435349414 21.662900019431987, 65.05504295313139 1.370055990528929 M0.9076171011289205 71.46616015591222 C21.23126986162373 48.552894737294324, 42.89178191001419 26.01816285955612, 63.90173639719714 0.10929448833005395 M6.943799411369682 72.78171424550038 C28.339516032531016 47.456635462597696, 48.81590497439019 21.71936640407064, 70.52794082206502 -0.23755827524104944 M6.426531874066413 71.76042107940685 C26.62850126240032 46.88644599265627, 48.293944583609886 23.02876688282967, 69.18663594149812 -0.3654481198299848 M10.074000136748612 70.84028345141009 C24.89962514748106 56.54406978153218, 41.757874454782225 37.17106960466144, 75.99559515346083 -0.33607100978360194 M12.06234541983223 72.25544318071947 C33.79144202702713 45.53037554743097, 55.959638512931605 18.68529718161294, 73.77179865449908 -1.2168723922582032 M17.531476855839742 73.45824715729722 C34.50802952826833 49.94541973229745, 56.09645169109993 25.711569054553827, 78.60993818230656 0.7556288418780639 M16.50013111867304 71.3681683833889 C35.24472506275393 51.43885561088507, 54.35245895188202 29.123307505268073, 78.44560086298463 0.028887852975316264 M21.921286803630785 74.11359141813858 C38.51786028342249 53.05569429415203, 49.95393595218539 39.50908504835109, 83.48893513455198 1.576767138829652 M21.67670279737343 71.79902536934509 C43.32540004594369 46.54649562859316, 66.537717311255 22.88836819555972, 85.40288157220141 -0.31474108559059744 M28.314520206071514 72.64241709301984 C44.29743714468928 51.44575095325314, 65.13705706734868 29.034683786090206, 88.15561199518481 -1.1251388139520486 M28.68533696118005 72.33800293712682 C41.93025898853388 55.83834303924465, 56.37692484717272 38.76193276406397, 90.65272023393402 0.7866538489739696 M34.68732804814967 70.58911648691785 C55.77935630465645 44.19812088488145, 76.02194377602794 18.432347030197867, 95.47402774015487 0.8805430926186872 M32.18355056187752 72.74607664366405 C46.951558144984894 55.67743999690992, 61.153968617269015 39.19364538047583, 95.92315897842914 -1.1054541697921323 M36.85689430581502 72.48119670891826 C61.467231184426694 46.64694146639363, 83.43247551332763 19.39923110290578, 102.08830210444981 -1.3422635864813728 M38.29782322971246 71.5612821624956 C53.96806693525456 55.888940229812505, 67.7044744496447 37.95591838425136, 101.06898038247132 0.9788947900409894 M44.92046371405529 73.17945631399789 C58.580429164776746 55.446136476046334, 72.19729167827072 37.72700293269089, 107.35858781401944 -0.6215204921665034 M43.0313750414695 72.98014192555138 C66.77273742805767 45.37120262400159, 91.48954914901782 18.360262734876244, 105.97642970130724 -0.7757792229878149 M48.191313998820235 71.15280866124245 C62.760340479816534 54.084919495946245, 77.86059940481739 36.759543225559696, 109.80009835385151 1.6731021805400843 M48.16888875239526 72.66373848137023 C63.52488957131099 56.23389866190452, 77.93537120555345 38.29970409867869, 110.9709926367215 -0.08896940194863134 M55.637783645097606 71.82845855562871 C69.46949942499862 52.15162580040905, 87.53063663422736 33.80129029246508, 115.36302117090526 1.6597586209468673 M53.68428756427436 72.61914113688206 C72.63387019097455 52.18263792699438, 89.0726813963016 31.47892487069481, 116.06605853997024 -0.023399243079857968 M60.81924412883717 72.86672560624241 C79.5810478776446 52.005255342521046, 96.45342354662313 28.649121174981502, 121.15184058713993 0.5210561433623155 M59.64545735735345 71.00547931562572 C81.96497051866291 45.86977682428032, 106.4095398849804 18.63627606963255, 122.65099332480958 0.12285619488010013 M66.32512768502664 71.51122086806033 C80.07163978815962 51.36050067359102, 99.11353521178845 32.911128177428076, 125.14466071254327 2.0806839277632463 M64.62202445841712 73.01536919953112 C80.26211627909123 53.390273362999295, 97.251915917128 34.5408752684991, 126.17921238052412 0.9242490313611853 M68.71089953961582 69.86367020016816 C84.51893324791402 56.68607492832798, 93.89769810101438 41.71018147520067, 132.47311864806505 0.832945958235328 M69.59007787271203 70.68098708713707 C94.20331221648459 44.71137122241659, 116.931897017614 17.81028498092531, 132.41684377486052 0.388541502402191 M74.93708567759242 70.23409090754272 C91.44091886222647 53.831429428667036, 107.52423646894499 33.605504179396426, 137.86141225369303 -0.7070623352446006 M74.33994705202278 71.75549603537353 C96.7370886927086 46.210876121789276, 120.1470078872847 20.775694221784548, 136.85050602210342 -0.16176739756691916 M79.3052450749062 72.4156150992697 C93.83641740131687 59.05322604891759, 106.6444941101411 45.56379582446954, 142.59409529340542 1.535498022077462 M81.380924126596 71.51911921777929 C97.22874324672291 51.44306394811116, 115.35036327220047 30.990345042864682, 141.62385322802788 2.9807601831609816 M83.89699746654489 73.03466633032589 C102.23919114966841 53.97897989708618, 121.30345288468256 33.5309271601121, 140.23540034819942 6.77183829040105 M86.3490416732163 71.66056656628429 C97.69414214553446 58.008458799233836, 109.28337464739113 44.416880178308695, 142.225648002928 8.016379694238552 M91.50999557845829 70.82578295979701 C102.89863553085556 54.85467446656749, 118.99211616721817 40.954419109102965, 140.22127007700587 15.869655793366384 M91.91179494713036 72.08310812942736 C105.79877420668336 54.7335516322192, 118.34683280911364 38.82577588465536, 141.0505427225315 13.689527961259138 M98.0969528956341 69.98179479265985 C112.43966084117363 53.30241412815466, 129.75144737983751 34.20374102654556, 140.98626692678397 22.212729720281907 M96.17591965012275 71.78600071413842 C107.77630956240158 59.45662451351673, 117.28169252810635 47.9146410112232, 141.49473923809444 20.679668987984307 M101.04555686503159 74.18335601822288 C113.44117093381789 56.51386804358509, 129.78189189526975 40.652358351581405, 141.61925021949304 26.749292385456087 M101.9360551334496 71.42527082417907 C111.12370763411967 61.97306234747461, 118.07687954134006 51.84374180287547, 141.580415963373 26.180915215675654 M106.89779180861002 70.17557395079459 C116.8452786707151 60.98505821097323, 130.00960930470941 48.41273629280842, 139.58269906512078 31.568657968865757 M106.36281731086707 72.4215934008109 C114.61976926801304 63.361254354402305, 121.27586345689086 53.44088878661427, 140.6438007876518 32.009906263763135 M113.06926183635713 73.34463777035177 C122.55604559909601 62.361510911551335, 130.5331621469234 50.56672128346209, 140.99262556461693 39.93075545459659 M111.69087157165976 73.06817056346387 C121.67738085863584 62.345339890141695, 130.54742926830664 49.80911151253008, 141.58383427867741 38.16659186828555 M118.12910404922265 71.7473514609801 C124.74535806391617 62.240088835854365, 135.5878326959422 53.157344906193025, 143.05760257796925 45.61630527262538 M117.46759598357427 72.09151454817675 C125.19802682961823 62.73512371235502, 133.1723820774829 55.843740724049866, 142.2699474507345 44.715658523672815 M124.23901630719436 71.46131045265642 C127.01876694717924 69.74178052886795, 131.4268065766235 63.141651600457195, 140.35867692713703 52.95635223726063 M121.96085906089527 72.53287434937951 C128.54232431824948 66.5902571555851, 134.4283909604108 58.91261319574277, 141.7907249675792 51.34731242118656 M128.08922946122203 71.8597249794664 C132.95664137142515 65.94629635664776, 135.67659758028694 62.88121472238884, 142.5686923090795 58.40889428781081 M129.0637419963694 72.55430907811096 C132.0887174056719 67.30249651590184, 135.6370895149603 65.08311425030352, 141.14197805546763 57.485158189588375 M134.54130740463881 71.45348609012956 C135.10418535878995 69.72870400453832, 137.27049724516064 68.71781828830576, 141.79083699628785 62.53522880977975 M133.56017618943153 71.66859681957806 C135.3887765910855 69.66532334565423, 136.82611182276813 67.5580725670752, 141.03676012072788 63.29036865371304 M0.3168338301445317 71.27541944663616 C0.3168338301445317 71.27541944663616, 0.3168338301445317 71.27541944663616, 0.3168338301445317 71.27541944663616 M0.3168338301445317 71.27541944663616 C0.3168338301445317 71.27541944663616, 0.3168338301445317 71.27541944663616, 0.3168338301445317 71.27541944663616 M6.215599246210174 70.94007480938104 C3.5170243945219752 69.88451132415514, 2.080237481888803 66.9937136325749, -0.8644113084214304 66.39129542280152 M6.123952999225573 71.08408661570516 C4.11770087263252 68.82026135316073, 2.046491006962416 67.41602376808834, -0.33198062869780953 65.75263636168256 M10.848011534597585 70.94281611189827 C8.917726103042313 68.75740763483857, 3.385214566548002 64.36971178441546, 1.8236334307054742 60.46876960680565 M11.943353278871484 70.58415395737275 C9.443766811482044 68.53241201253394, 7.072422717192997 66.21876568938369, -0.09398928825457192 61.3025026863881 M17.189096356114643 70.60749201999165 C15.865308535709184 68.65252508499837, 11.187318870865269 63.32275405601413, -1.5161613262089695 55.4360182835281 M18.39658231784244 71.16235058252819 C15.312259343847087 68.14217202592494, 10.294262497835629 64.7039571801928, 0.03277267433528053 54.0291585550204 M22.50546394510139 69.81654855308706 C18.98459957654829 64.78535102327777, 9.626412741085367 61.817248207335155, 1.2947542761469713 49.412931396344966 M24.917953138593028 71.0824075879308 C14.002526594367584 62.945334177842795, 5.770686603588963 53.71225614586392, 1.0230138274858227 50.2297340740434 M31.623175451934813 71.69786346325768 C22.875040020463643 65.17383577839551, 11.300742032172959 53.89314696697457, -0.9583525221544349 43.894630283027766 M30.611970481865583 71.82275325147552 C19.824097713207856 62.75321002861633, 8.560112906808392 52.324470097029774, -0.661428926673814 44.69350772807735 M35.15000908936091 70.24363211604422 C27.34448219380789 64.69034660563659, 19.510319211398855 54.91287235840575, -0.2649028926988848 37.67156552108877 M36.93770040220298 69.89099431565619 C26.055459944084788 63.00745042897479, 16.815564018876632 52.68172350402817, -0.28857173043245155 39.15309928408765 M43.04966868579393 71.54118008895898 C27.552143479685608 57.44176858345508, 9.625396218775556 44.419287687154366, -1.3538594529631816 34.849404697078214 M42.52556425731635 70.4963130474382 C30.588401091539026 59.43373054057651, 17.562078459757448 49.25390470372521, 0.668207515529982 34.04404083057766 M49.04631662375713 70.49304996855216 C32.034928653513845 57.74823754429482, 17.71119927578116 45.45179810840318, 0.031450375466976155 29.41000463850836 M47.550621646525805 69.80080403532492 C35.750105089045746 61.12918870235399, 24.83318508127023 50.5011177269151, -0.7759042060753369 29.596999009512764 M56.34975048166478 71.37797358233605 C44.36296844382392 59.837581027467685, 31.43739726367032 50.82077315210171, 0.7831577251147923 21.275439181929443 M54.42649705254251 70.01169642128174 C38.620767778727725 56.31127832116698, 20.982839331416024 41.27756840271564, 0.5014183290716705 23.433052784396324 M62.05993597226285 72.5709587958514 C41.08399979088678 54.46190780530836, 20.407133965788134 38.75137649537844, 0.15402892439455762 16.86897140485373 M62.1786627799093 71.63269069780253 C44.48438799555903 56.43871333436106, 25.61787840496961 41.66553656750514, 0.42356522868217006 17.655915672193736 M67.11863568329734 71.82396659963891 C46.53909873475824 50.58807158668457, 21.696086890047127 32.49712986935535, -0.5927111441705186 13.179081393831453 M67.36481769566906 71.27588579488113 C39.96427617109845 48.84822031687756, 14.480332972449489 25.012697760646127, -0.666435157923754 12.44721351140835 M72.26103781818252 69.54658819621089 C53.950079198212165 51.56872319158558, 32.61223956014021 34.23897392998016, -0.4582024021661426 6.32043847637488 M73.99526597003292 70.47370616698298 C49.33797157995798 51.58748832064293, 24.489627939366002 30.208061556058922, 0.6880104019650672 7.158706694005565 M80.42028913444162 71.52613179711756 C50.61304169885324 46.508332905499884, 21.9372787876567 21.447178633568477, 0.9418737829308909 3.597928989034245 M78.906200014821 70.9302385901114 C58.165031950184314 53.861425131922225, 37.609147928892355 36.570728036244674, 0.6756333826687139 1.907567933488736 M84.45267158548891 71.48859485487118 C61.27675364537219 50.3028684337331, 38.072775888989526 34.09850333700885, 2.61189039998042 -2.620253432697173 M85.45362712524444 70.6134543937318 C58.35959073795463 49.56921830841755, 33.0703658478599 26.597309877230906, 2.4206493023438993 -2.0192774451957307 M93.54213525907038 69.81875086001249 C69.19837351206729 51.295269214320285, 45.00017210642852 31.051941345808075, 6.580807732619512 -2.182521057316603 M90.88665241834609 71.00654625783802 C60.43165829650097 43.84596976729072, 31.957783895168625 18.057309985785565, 8.356040661424565 -1.9138147085919397 M97.15192711793202 72.84082642808224 C73.24713572456304 48.49453610073462, 49.179542275865074 27.67831942245136, 14.79728713725751 -1.7459233182263443 M98.26785757366883 69.91985529992397 C72.1867665566976 49.25936634481257, 48.221049758456665 27.729250958536085, 14.08742072061693 -1.7077209756490657 M102.9762197404881 70.09917838659268 C79.08462820111218 50.54579700223141, 50.39307739868413 28.027549038193406, 21.15667306730871 -2.998525262914132 M103.39367957392382 71.302798161955 C83.88774427996924 54.84039420413504, 61.729201534705304 36.03718720634651, 20.388765525132165 -2.6634936669017186 M109.34464425926183 71.07838057209409 C90.26514858053883 56.099990279632294, 73.24486120182372 38.14697574958759, 25.37726853029632 -3.875674929829735 M109.16769364343111 71.4952038074345 C77.33643119530069 42.363780664578215, 44.88262771036911 13.746376365341064, 26.047439361790353 -2.059467881346542 M114.94746700266754 69.76419606209868 C92.33182441195927 48.11161597928964, 65.87302102669676 29.18887433417445, 32.72551172963463 0.0009688835391177264 M116.29453988990193 70.31953575332784 C97.03703291701912 54.867488009449644, 77.10358223113911 36.87866725748591, 31.558121400802662 -1.0975941645181404 M123.24012243345115 69.36366397214721 C97.24075400427868 50.261694376025616, 72.64904448498018 31.87697956206437, 40.42050900306962 -1.9564765822668342 M121.65320624287907 71.33222886712889 C88.34026424275069 41.84633743222017, 56.12102675911581 13.681127001072412, 38.49608863421194 -1.6521017114226488 M128.39484188935867 71.58577654278045 C98.17447335290727 46.52165644306007, 70.0981717226409 19.75109968041101, 45.58566356334727 -0.021440961706847617 M127.21740719440541 71.63561645383155 C103.78247970637113 50.033657052388435, 79.67334282530499 28.319666728058202, 43.43759461656104 -1.4575712795661993 M135.25228232380442 71.92215622651062 C104.75864011053913 47.24783750935981, 77.63670251606149 22.74067185581496, 51.20030423888187 -2.8722236772686607 M133.97596253969215 70.68985734290115 C106.5291010501457 46.079206872950536, 76.58335289908285 20.202948818665732, 50.880248205561145 -2.2970081019834048 M140.9713496640888 69.71108345589748 C121.4622075687865 54.65723367049371, 103.50762860068994 40.15809655258919, 54.50421841219662 -0.8719071424020335 M138.55137073533655 70.90821365635058 C121.04709414594224 54.82391253404468, 104.6845332753987 41.60927411323503, 55.616296500532314 -1.7505050901709005 M139.73553713228944 64.07423275951024 C122.01078493520706 49.75331505449921, 103.66242886081656 34.90744682385211, 60.72282866170583 -1.507384529594706 M139.87489722021314 65.12503692470219 C123.81869807567297 50.48936351656653, 106.82991745850867 36.341115733822946, 63.42655148418574 -2.1030206021633013 M138.7422306277118 60.445822080823206 C119.12884827613043 41.97701036501034, 92.69664447050877 21.63716541626699, 67.47172570015547 -0.6692729733059295 M140.14462979792424 59.656167405883394 C111.88174563323848 35.81410988499786, 83.02573167118476 11.397262670757549, 69.45367296106426 -2.0930416454667338 M139.0601458631018 52.732109285377106 C123.59195873772461 44.19055020801515, 112.58977822742101 28.4981195276081, 74.70829711529151 -1.3712364829949735 M139.65166577301267 53.989680592388055 C116.62347878856602 33.375361193310056, 93.10804848654818 12.66981841289261, 75.12254729821072 -1.100656790087342 M138.86392416687374 49.18448245068421 C118.58816358665555 34.462651175527334, 99.15404347472636 15.63179054932737, 80.68335611052827 -2.469308856149553 M138.98345775318955 49.19022750118156 C124.14056477976408 34.78461456119625, 107.34396222760105 21.891533750858954, 80.06066616583631 -2.3356290815597163 M137.83866542155087 45.119546663294734 C122.94842363829662 29.84516484920384, 106.21484329088611 12.440037723990397, 88.34567444338892 -3.941806881219456 M139.39709658777505 44.15037147076726 C123.20070920320681 30.255308254723662, 107.37567169537132 15.43683791048781, 87.47140947576109 -1.5860592438805199 M138.90510470554742 39.480096250720976 C122.43128235835773 26.093422779911478, 106.56434824537772 10.52039688101738, 93.06715906728778 -0.328358105692395 M139.51323800948026 38.68281039311057 C124.9090185414693 25.660904086701642, 111.5110508270141 12.308271558693665, 93.82797202319625 -1.1261634475843394 M139.86943565138665 34.899142549513144 C130.75391435144363 26.04915245781515, 118.05073516191703 17.910351020699146, 101.0473850699708 -2.0098140390276527 M138.93467599262533 33.11565448171483 C124.1090275630831 19.776814786323232, 108.16254623454537 6.509151407856059, 100.24664642518462 -2.4649365126773333 M139.1484870874828 26.260886137183526 C126.78567035713439 14.73120007669241, 112.92074776497483 4.320400467616338, 105.265224414184 -3.927573065684463 M138.94026939492136 27.384648503545442 C125.78063689444215 16.474667901095415, 112.40762432643001 5.588416910727464, 104.40720186126909 -1.5342248216656102 M139.41954639635915 20.76474460028235 C129.15233265142052 13.56925651213698, 116.56107193684025 3.9056161141730747, 111.43047467834165 -0.3029033581505729 M140.1035153156885 22.628449547105767 C131.64911831964022 16.663545553660644, 125.60948874350996 10.20631646550558, 111.47326281416079 -0.8767992325837923 M141.34553615642992 18.48632476632187 C130.5440144330836 9.783430544892427, 123.54651485788317 1.2165309119938925, 118.38839199496695 -3.9168560798757426 M138.98647573763785 18.280849254361186 C135.82931416850928 14.265661678974856, 129.7449504790874 10.573677291227074, 116.46559200817981 -1.3950182819285146 M139.22483750021837 12.441450471852328 C135.13439247395175 10.163334923142004, 130.67845284993814 5.248669934860073, 123.84486769247421 -1.5492931533477048 M139.75835088508956 11.666051588815058 C133.7877561543454 6.3041066059592215, 125.93543973714324 0.7270485455321776, 122.95601705103734 -1.258605952734385 M139.06483389648776 5.777366580998414 C137.24888894075772 3.704279951560159, 134.44688256163428 3.2632986334933856, 129.16632671683007 -1.3715599182260139 M139.17724431773814 7.040810758478827 C136.6566967704299 4.877908332049683, 134.10103402311535 2.889481077982129, 129.60166560696348 -1.6279942876391957 M139.61037413011942 1.1499439088659782 C137.93481812802605 0.8534567674952229, 137.06824978905107 -0.5816714445859261, 135.49637074163508 -2.257182097058973 M139.18028543567922 1.3385745859271339 C137.96553082411938 -0.10502428647965265, 136.50041244768087 -1.2027779792770867, 135.72288424359027 -2.2239292177802388" stroke="#868e96" stroke-width="0.5" fill="none"></path><path d="M-1.4106016177684069 0.8493087012320757 C29.390738428290934 0.07123704803176234, 55.68401992637664 -0.3819576297979801, 137.70288389734924 -1.0913910549134016 M-0.3288262328132987 -0.7710841307416558 C52.86152348211036 1.7638978452142329, 104.14301489777864 0.8722228795941919, 139.37355242762715 -0.2507660100236535 M139.88604324869812 -1.8063420932739973 C136.97716678068974 17.77332580788061, 140.46291131661275 30.292723399586976, 137.72419726662338 70.72625717706978 M139.7297381022945 -0.8120641419664025 C139.4047761985194 14.158050377573819, 138.37301833714358 28.94301379695535, 138.35953165683895 70.95260727312416 M137.86934697441757 69.24780211038888 C92.70670501152054 68.58612282457761, 48.56273789908737 69.6666615146678, 0.1437783818691969 71.32627120800316 M139.22678758297116 70.26341760065407 C87.74050460355356 72.55940969632007, 36.489223188161844 71.9140821580682, 0.2646173695102334 70.34504362847656 M-0.6665620226413012 71.38460508175194 C0.9896339023020119 45.37811295064166, -0.26935346485115585 19.23188273664563, 1.4569275360554457 -0.6509070675820112 M0.7696525314822793 70.89734718110412 C1.2877958790678532 50.07129344614222, -0.4722124858479947 27.176970935240384, -0.07632104959338903 -0.09338492248207331" stroke="#000000" stroke-width="1" fill="none"></path></g><g transform="translate(71 267.9333333333334) rotate(0 43 20.5)"><text x="43" y="15.5" font-family="Helvetica, Segoe UI Emoji" font-size="20px" fill="#000000" text-anchor="middle" style="white-space: pre;" direction="ltr">Digital</text><text x="43" y="36" font-family="Helvetica, Segoe UI Emoji" font-size="20px" fill="#000000" text-anchor="middle" style="white-space: pre;" direction="ltr">Signature</text></g><g transform="translate(84.5 215.9333333333334) rotate(0 26 10.5)"><text x="0" y="16" font-family="Helvetica, Segoe UI Emoji" font-size="20px" fill="#000000" text-anchor="start" style="white-space: pre;" direction="ltr">~2GB</text></g><g transform="translate(10 59.93333333333341) rotate(0 103.5 165.5)"><path d="M0.7908443164555057 -1.0098467762800916 C47.8885418397904 -2.0535373254750575, 94.03105685321165 0.39774807418996405, 206.06233197128964 -1.185721078115104 M0.7428055955600149 0.3693736774837248 C55.24402199764467 -1.5031496817135426, 110.36383690992297 -2.4799511900921196, 206.89534400609193 0.8373212640911571 M208.1099700479387 1.0541712489886805 C203.60103079065385 113.09439902426088, 204.7757005991127 226.67397730749664, 206.141679058618 330.7744273491256 M206.58377394078198 -0.12266131318689807 C204.76270933277922 123.01777310438398, 205.13553899538672 247.11702161710636, 206.67718633946873 330.36814449572483 M206.0003302323974 332.29752165546324 C156.5624384810303 330.8111437796133, 106.49434643176129 331.96034855753453, 0.5955966387421593 331.8970191227719 M207.7618053231367 331.77301873164305 C140.3940537733084 332.02758377957934, 72.82919212844911 332.32638591061266, 0.35315477424632385 331.5342916442987 M-0.03739158979924172 331.00880240080284 C-0.8660554059337834 243.72467708400777, -0.8775411188647011 154.50746807039107, -0.8487011464142605 0.6277742372282072 M0.4102234063207172 330.37684010733926 C-0.2877601289550239 206.17247900988536, 0.16794916732099707 81.59651035763177, 0.119909432575538 -0.195994546204748" stroke="#000000" stroke-width="1" fill="none"></path></g><g transform="translate(23 10) rotate(0 103.5 19.500000000000007)"><text x="0" y="15.5" font-family="Helvetica, Segoe UI Emoji" font-size="19.33333333333333px" fill="#000000" text-anchor="start" style="white-space: pre;" direction="ltr">Receiving the document</text><text x="0" y="35" font-family="Helvetica, Segoe UI Emoji" font-size="19.33333333333333px" fill="#000000" text-anchor="start" style="white-space: pre;" direction="ltr">with Signature</text></g><g transform="translate(94 407.9333333333334) rotate(0 26 10.5)"><text x="0" y="16" font-family="Helvetica, Segoe UI Emoji" font-size="20px" fill="#000000" text-anchor="start" style="white-space: pre;" direction="ltr">~4GB</text></g><g transform="translate(588.5 253.7166666666667) rotate(0 84 35)"><path d="M0.5313094835728407 -1.1599184554070234 C54.914219273999336 -1.4714426228404045, 107.9154132898897 1.521388547718525, 168.19288688711822 -1.157071916386485 M0.10151006374508142 -0.007712961174547672 C41.5324536504224 2.216192311681807, 83.03921911362559 0.8300505644455551, 168.90133325848728 0.25772043969482183 M169.88108163885772 1.6917893011122942 C167.84530112491922 22.88193782512099, 167.6652322147973 46.73898889124394, 166.05382656864822 70.26229521818459 M167.55944459233433 -0.05008342955261469 C167.8336188645102 25.014054618775845, 167.73288173982874 51.71597857866436, 167.7850347319618 69.41154652740806 M166.33780073933303 69.97948834486306 C106.67316303886473 69.43002702340483, 41.33323046229779 70.23955054625868, 0.2606658320873976 68.60038069076836 M167.22325928602368 69.94899564888328 C126.16784497667103 68.98697462428362, 83.55476865712552 69.15296643722803, -0.25218416657298803 70.81809535529464 M-1.8708110470324755 68.07994869537652 C1.831237761955708 47.95227603148669, -0.3335532856173814 24.357350636273623, 1.1172987204045057 1.1265326458960772 M-0.11026240792125463 69.52330723311752 C-0.13703466178849344 52.28533557616174, -0.2620427978225053 35.01687590498477, -0.37350092735141516 0.7367358198389411" stroke="#000000" stroke-width="1" fill="none"></path></g><g transform="translate(627 278.2166666666667) rotate(0 45.5 10.5)"><text x="45.5" y="16" font-family="Helvetica, Segoe UI Emoji" font-size="20px" fill="#000000" text-anchor="middle" style="white-space: pre;" direction="ltr">Document</text></g><g transform="translate(658.5 213.2166666666667) rotate(0 20 10.5)"><text x="0" y="16" font-family="Helvetica, Segoe UI Emoji" font-size="20px" fill="#000000" text-anchor="start" style="white-space: pre;" direction="ltr">2GB</text></g><g><g transform="translate(368.5 380.4666666666667) rotate(0 0.38694171398967825 -28.714465076848853)"><path d="M-0.3146787453442812 -0.2577165137976408 C-0.31253756769001484 -9.834263298039636, -1.2773487139493227 -47.96643771442274, -1.0338375259190797 -57.17121363990009 M1.7209761840105058 -1.438621628880501 C2.1762201911211014 -10.938487726648647, 1.258424342274666 -46.89524072627226, 1.135352309346199 -56.24867554962635" stroke="#000000" stroke-width="1" fill="none"></path></g><g transform="translate(368.5 380.4666666666667) rotate(0 0.38694171398967825 -28.714465076848853)"><path d="M10.77608478658916 -31.84531729839555 C7.048159063093163 -33.797097654850326, 7.71351584992874 -43.04354407022488, 1.258999937698245 -55.65400736801326 M11.367604696500017 -30.5877459913846 C7.9857802818071 -39.94024636513347, 4.287070624182708 -49.69761163343569, 1.6732501206174493 -55.38342767510563" stroke="#000000" stroke-width="1" fill="none"></path></g><g transform="translate(368.5 380.4666666666667) rotate(0 0.38694171398967825 -28.714465076848853)"><path d="M-8.373648071819321 -31.484700270188547 C-8.027830480271795 -33.462994595277316, -3.2878646959834974 -42.786171761865546, 1.258999937698245 -55.65400736801326 M-7.782128161908464 -30.2271289631776 C-4.241407862727234 -39.6004208136316, -1.0196006896532621 -49.48810937320873, 1.6732501206174493 -55.38342767510563" stroke="#000000" stroke-width="1" fill="none"></path></g></g><g><g transform="translate(439.5 287.4666666666667) rotate(0 72.68032569568605 -0.7169713196158227)"><path d="M0.16474827043712148 -1.0362377297133207 C24.532995990042888 -1.0505646398911874, 122.24283020409446 -0.44321815681954224, 146.56854900829495 -0.5708205949515104 M-1.2078976169228555 1.0341335168480872 C23.020658866663773 0.6941527270277339, 121.4816971922914 -2.144830900927385, 145.91899177402257 -2.4680761560797695" stroke="#000000" stroke-width="1" fill="none"></path></g><g transform="translate(439.5 287.4666666666667) rotate(0 72.68032569568605 -0.7169713196158227)"><path d="M116.23344160035816 9.357142602825387 C127.94387149909434 4.980841218216353, 135.1162688865336 2.834973130306568, 146.9294092335552 -0.6068870570510629 M118.68543147739587 9.360497089834734 C129.06265555908752 5.229775153252549, 139.19137663289635 -0.6841119684259365, 145.49918954137712 -2.74164818469435" stroke="#000000" stroke-width="1" fill="none"></path></g><g transform="translate(439.5 287.4666666666667) rotate(0 72.68032569568605 -0.7169713196158227)"><path d="M115.78247472735919 -11.159110253515045 C127.5587926979759 -8.767269835252723, 134.87997392888298 -4.1443769868548905, 146.9294092335552 -0.6068870570510629 M118.23446460439689 -11.155755766505699 C128.71331101083064 -7.636262341242496, 139.01022016221708 -5.898613765725738, 145.49918954137712 -2.74164818469435" stroke="#000000" stroke-width="1" fill="none"></path></g></g><g transform="translate(473.5 258.9666666666667) rotate(0 30 8.5)"><text x="0" y="13" font-family="Helvetica, Segoe UI Emoji" font-size="16px" fill="#000000" text-anchor="start" style="white-space: pre;" direction="ltr">Success</text></g><g><g transform="translate(437.5 303.4666666666667) rotate(0 76.8709605831653 82.20535253200677)"><path d="M0.28810234777629384 -1.0115704905241727 C25.960457251779737 26.55011788191894, 128.97741005327552 136.75126777452724, 154.7617038153112 164.51357222057874 M-1.0197826489806174 1.071751056611538 C24.507962748892606 28.807969017277152, 128.30405875269324 137.80063736682132, 154.27610560320318 165.42227555453772" stroke="#000000" stroke-width="1" fill="none"></path></g><g transform="translate(437.5 303.4666666666667) rotate(0 76.8709605831653 82.20535253200677)"><path d="M125.75875909611784 153.47111449706927 C135.02921935781953 158.63303078204098, 146.453264372218 159.84523756979172, 153.81605752184987 166.4413405490666 M127.66499102380328 151.19249580092355 C135.30042158453583 155.32897937815463, 140.65096701337094 158.7051112847096, 154.13378295954317 165.36594344224775" stroke="#000000" stroke-width="1" fill="none"></path></g><g transform="translate(437.5 303.4666666666667) rotate(0 76.8709605831653 82.20535253200677)"><path d="M140.66183928601902 139.36373333544984 C144.457085612693 149.64899151061985, 150.50661494532764 155.94876008530383, 153.81605752184987 166.4413405490666 M142.56807121370446 137.08511463930412 C146.22517214437298 145.0180222986518, 147.6365720014704 152.1229825630697, 154.13378295954317 165.36594344224775" stroke="#000000" stroke-width="1" fill="none"></path></g></g><g transform="translate(538.5 383.4666666666667) rotate(0 24.5 8.5)"><text x="24.5" y="13" font-family="Helvetica, Segoe UI Emoji" font-size="16px" fill="#000000" text-anchor="middle" style="white-space: pre;" direction="ltr">Failure</text></g><g transform="translate(594.5 478.9666666666667) rotate(0 88.5 8.5)"><text x="0" y="13" font-family="Helvetica, Segoe UI Emoji" font-size="16px" fill="#000000" text-anchor="start" style="white-space: pre;" direction="ltr">Invalid Digital Signature!!</text></g><g transform="translate(807.5 135.4666666666667) rotate(0 55.5 26.5)"><path d="M1.6426531057804823 0.5080691296607256 C27.59323793454096 -0.8511701436992734, 54.8342261293903 2.022161820316687, 111.26490098051727 -0.9647694509476423 M-0.9165888866409659 -0.6621470460668206 C41.756714158784604 0.304525662465021, 85.39438888542355 1.7224572489690035, 110.85645131859928 0.761600106023252 M111.66104250960052 1.182980926707387 C110.30622089746409 9.878481873217972, 110.99333185794764 25.064859971217814, 109.17751455120742 51.80490133352578 M111.00287442002445 0.7511290004476905 C110.82621708252468 15.061565026734026, 110.60127722957172 29.27944028489292, 110.29726262483746 53.16416352894157 M111.40966987423599 52.174499245360494 C74.20454131783917 52.719568245774134, 35.574362025968725 52.99797146833502, 1.473381219431758 54.58484319038689 M111.61930675897747 53.556562601588666 C66.62402171725407 52.78082143795677, 22.04556197002529 54.015290881516414, 0.5387111762538552 53.12718894984573 M1.9678198676556349 53.632831605151296 C-0.08071874338202178 40.64378581186756, -1.4588963265996426 25.183336896635588, -0.44204247184097767 -1.8321582358330488 M0.7412103274837136 53.96371796634048 C-0.4877664312813431 36.86398609383031, 0.43221215753816067 21.542482027411456, 0.3043382326141 0.7108265152201056" stroke="#000000" stroke-width="1" fill="none"></path></g><g transform="translate(829.5 153.4666666666667) rotate(0 33.5 8.5)"><text x="33.5" y="13" font-family="Helvetica, Segoe UI Emoji" font-size="16px" fill="#000000" text-anchor="middle" style="white-space: pre;" direction="ltr">Equals??</text></g><g><g transform="translate(204.49999999999994 164.91955312527443) rotate(0 298.2600595139433 -2.072172050904072)"><path d="M0.5420531261712314 0.6464534115046263 C100.2240426171571 -0.04485306242466902, 497.9334855306894 -3.9500773583531847, 597.1526267398149 -4.790797513312754 M-0.6325077119283378 -0.05976249279454349 C98.98700497301296 -0.5389735445751342, 496.48744656534865 -3.0269733194627335, 596.2847103145905 -3.544559520016518" stroke="#000000" stroke-width="1" fill="none"></path></g><g transform="translate(204.49999999999994 164.91955312527443) rotate(0 298.2600595139433 -2.072172050904072)"><path d="M569.231103638838 7.13311947919148 C573.5224537102764 2.5354070412951817, 580.414665520992 4.097295369558018, 596.9175419197418 -4.1301472618236215 M567.9326600504098 5.962662461583493 C578.1791629964342 3.532489891596866, 587.807512296958 0.3543827133225017, 597.248428280931 -3.9146062985985544" stroke="#000000" stroke-width="1" fill="none"></path></g><g transform="translate(204.49999999999994 164.91955312527443) rotate(0 298.2600595139433 -2.072172050904072)"><path d="M569.1125454019794 -13.387746641182519 C573.3202321244622 -13.436023032231478, 580.2387311594103 -7.324163116596949, 596.9175419197418 -4.1301472618236215 M567.8141018135512 -14.558203658790505 C577.9011672226254 -9.70896378634932, 587.5715698128321 -5.608201521450987, 597.248428280931 -3.9146062985985544" stroke="#000000" stroke-width="1" fill="none"></path></g></g><g><g transform="translate(927.5 151.35275852363702) rotate(0 59.21293529478834 -28.836525798245972)"><path d="M-0.8376170206815003 0.18879468329250804 C19.02594442709659 -9.315273128832281, 99.26693017554156 -48.2070639748618, 119.26348761025812 -57.861846279784444 M0.9234953141212463 -0.7576920533180238 C20.666313823380815 -10.08414509312302, 98.97299259979896 -47.55778264601976, 118.58222468327727 -56.924594572543505" stroke="#000000" stroke-width="1" fill="none"></path></g><g transform="translate(927.5 151.35275852363702) rotate(0 59.21293529478834 -28.836525798245972)"><path d="M97.8886731950636 -34.6614304015733 C102.26438629699882 -41.28915065404968, 108.91385860215632 -49.01043921147174, 119.92074169162657 -57.37008454351068 M96.99934163355036 -35.5852362074278 C102.83457207871157 -40.59931533004387, 109.10299769543185 -46.79371256656391, 119.4372073434293 -56.05660637447924" stroke="#000000" stroke-width="1" fill="none"></path></g><g transform="translate(927.5 151.35275852363702) rotate(0 59.21293529478834 -28.836525798245972)"><path d="M89.03756968471177 -53.17569433603412 C95.99997931239858 -54.06065583145893, 105.36535292839913 -56.10096758976346, 119.92074169162657 -57.37008454351068 M88.14823812319852 -54.09950014188862 C96.39812196052384 -53.71064318873462, 105.21283809951072 -54.57884638313048, 119.4372073434293 -56.05660637447924" stroke="#000000" stroke-width="1" fill="none"></path></g></g><g><g transform="translate(923.5000000000001 167.25488292130404) rotate(0 63.505327992513685 27.942780640143553)"><path d="M-0.4000703942030668 1.0020014237612485 C20.66879564809301 9.903359722631556, 106.01314367738854 45.20160434761337, 127.41072637923051 53.98483558654715 M1.5907539195008575 0.48244822589680547 C22.45025334519022 9.517856302155685, 105.65392523906495 46.35836802973664, 126.67831226469937 55.403113054390296" stroke="#000000" stroke-width="1" fill="none"></path></g><g transform="translate(923.5000000000001 167.25488292130404) rotate(0 63.505327992513685 27.942780640143553)"><path d="M98.40806721773276 54.195149573276716 C107.83984522113516 55.97787202403232, 118.83836646220882 56.941169687019986, 125.23473089406255 56.28677104441379 M96.01293318316618 52.680167009833234 C104.20373600375814 53.297116226317115, 111.42347467702268 53.75486932641045, 127.6482738473824 54.418670746776506" stroke="#000000" stroke-width="1" fill="none"></path></g><g transform="translate(923.5000000000001 167.25488292130404) rotate(0 63.505327992513685 27.942780640143553)"><path d="M106.62923481385991 35.392692134361226 C113.00161659383409 44.35174457944039, 120.8503823607743 52.51878095142655, 125.23473089406255 56.28677104441379 M104.23410077929333 33.877709570917744 C110.3479192999121 39.23458280689823, 115.48982510251327 44.44450324320212, 127.6482738473824 54.418670746776506" stroke="#000000" stroke-width="1" fill="none"></path></g></g><g><g transform="translate(760.5 289.4666666666667) rotate(0 57.93977283268424 -44.76785350153685)"><path d="M0.9067212413996459 -0.45895639769732954 C18.40888975771765 -1.0491718780249357, 87.60717764608562 11.272154198959466, 106.11572675220668 -3.953944231197238 C124.62427585832775 -19.180042661353944, 111.22200463923315 -76.98072624318301, 111.95801587812602 -91.81554697863757 M-0.07638883620500558 -1.7455124518275262 C17.181396862367787 -2.178723311126232, 86.59982704132796 12.381111941635611, 105.22843783348799 -2.9173397013545035 C123.85704862564802 -18.215791344344616, 110.81120135913292 -78.71585996121169, 111.6952759167552 -93.5362223097682" stroke="#000000" stroke-width="1" fill="none"></path></g><g transform="translate(760.5 289.4666666666667) rotate(0 57.93977283268424 -44.76785350153685)"><path d="M123.26209940234158 -65.99507347818098 C117.69843738701435 -75.21567457594324, 116.42970634103078 -88.31030587457191, 111.7571615102142 -94.2567404498905 M123.43156672021333 -65.63817249096564 C120.56010062407275 -74.84114412811448, 117.54691358628628 -81.84837688369927, 110.85811325911432 -94.21486929241568" stroke="#000000" stroke-width="1" fill="none"></path></g><g transform="translate(760.5 289.4666666666667) rotate(0 57.93977283268424 -44.76785350153685)"><path d="M102.79788808498344 -64.46665679927729 C105.25926250594704 -74.44086144297, 112.01031203621478 -88.13446849511297, 111.7571615102142 -94.2567404498905 M102.96735540285519 -64.10975581206195 C106.08834162383158 -73.73190797736117, 109.08023226158696 -81.18764376758895, 110.85811325911432 -94.21486929241568" stroke="#000000" stroke-width="1" fill="none"></path></g></g><g transform="translate(1054 219.9666666666667) rotate(0 88.5 8.5)"><text x="0" y="13" font-family="Helvetica, Segoe UI Emoji" font-size="16px" fill="#000000" text-anchor="start" style="white-space: pre;" direction="ltr">Invalid Digital Signature!!</text></g><g transform="translate(1047 76.96666666666671) rotate(0 82.5 8.5)"><text x="0" y="13" font-family="Helvetica, Segoe UI Emoji" font-size="16px" fill="#000000" text-anchor="start" style="white-space: pre;" direction="ltr">Valid Digital Signature!!</text></g><g transform="translate(969.5 96.96666666666671) rotate(0 13 8.5)"><text x="0" y="13" font-family="Helvetica, Segoe UI Emoji" font-size="16px" fill="#000000" text-anchor="start" style="white-space: pre;" direction="ltr">Yes</text></g><g transform="translate(968 203.86077479398534) rotate(0 10 8.5)"><text x="10" y="13" font-family="Helvetica, Segoe UI Emoji" font-size="16px" fill="#000000" text-anchor="middle" style="white-space: pre;" direction="ltr">No</text></g></svg>